<svg version="1.1" viewBox="0.0 0.0 558.0 292.0" fill="none" stroke="none" stroke-linecap="square" stroke-miterlimit="10" xmlns:xlink="http://www.w3.org/1999/xlink" xmlns="http://www.w3.org/2000/svg"><clipPath id="p.0"><path d="m0 0l558.0 0l0 292.0l-558.0 0l0 -292.0z" clip-rule="nonzero"/></clipPath><g clip-path="url(#p.0)"><path fill="#000000" fill-opacity="0.0" d="m0 0l558.0 0l0 292.0l-558.0 0z" fill-rule="evenodd"/><path fill="#000000" fill-opacity="0.0" d="m16.467192 15.107612l52.913383 0l0 52.913383l-52.913383 0z" fill-rule="evenodd"/><path stroke="#000000" stroke-width="2.0" stroke-linejoin="round" stroke-linecap="butt" d="m16.467192 15.107612l52.913383 0l0 52.913383l-52.913383 0z" fill-rule="evenodd"/><path fill="#000000" d="m32.239902 35.781178l0 -1.296875l-1.953125 0l0 1.296875l0 3.65625l1.703125 0l0.25 -3.65625zm12.804947 9.9375l0.765625 2.765625l2.703125 0l-4.265625 -13.265625l-2.328125 0l-4.34375 13.265625l2.703125 0l0.78125 -2.765625l3.984375 0zm-3.359375 -2.1875l1.390625 -4.875l1.359375 4.875l-2.75 0zm12.945572 -7.75l0 -1.296875l-1.953125 0l0 1.296875l0 3.65625l1.703125 0l0.25 -3.65625z" fill-rule="nonzero"/><path fill="#000000" fill-opacity="0.0" d="m69.38058 15.107612l52.913383 0l0 52.913383l-52.913383 0z" fill-rule="evenodd"/><path stroke="#000000" stroke-width="2.0" stroke-linejoin="round" stroke-linecap="butt" d="m69.38058 15.107612l52.913383 0l0 52.913383l-52.913383 0z" fill-rule="evenodd"/><path fill="#000000" d="m85.15329 35.781178l0 -1.296875l-1.953125 0l0 1.296875l0 3.65625l1.703125 0l0.25 -3.65625zm6.258072 12.703125l4.84375 0q1.09375 0 1.96875 -0.234375q0.875 -0.25 1.484375 -0.75q0.609375 -0.484375 0.9375 -1.21875q0.328125 -0.734375 0.328125 -1.6875q0 -0.5 -0.140625 -0.96875q-0.125 -0.46875 -0.40625 -0.875q-0.265625 -0.375 -0.65625 -0.65625q-0.375 -0.28125 -1.03125 -0.453125l0 -0.015625q0.34375 -0.125 0.609375 -0.296875q0.28125 -0.1875 0.5 -0.40625q0.40625 -0.40625 0.609375 -0.9375q0.203125 -0.53125 0.21875 -1.140625q0 -0.921875 -0.34375 -1.609375q-0.34375 -0.6875 -0.96875 -1.125q-0.640625 -0.453125 -1.53125 -0.671875q-0.875 -0.21875 -1.96875 -0.21875l-4.453125 0l0 13.265625zm2.578125 -5.84375l2.375 0q0.546875 0 0.9375 0.140625q0.390625 0.140625 0.640625 0.390625q0.234375 0.25 0.34375 0.609375q0.125 0.34375 0.125 0.796875q0 0.421875 -0.15625 0.78125q-0.140625 0.34375 -0.4375 0.578125q-0.265625 0.21875 -0.671875 0.359375q-0.390625 0.125 -0.890625 0.125l-2.265625 0l0 -3.78125zm0 -1.859375l0 -3.46875l1.890625 0q0.625 0 1.078125 0.140625q0.453125 0.125 0.734375 0.40625q0.203125 0.1875 0.3125 0.5q0.109375 0.296875 0.109375 0.703125q0 0.375 -0.125 0.6875q-0.125 0.296875 -0.359375 0.5q-0.265625 0.265625 -0.71875 0.40625q-0.4375 0.125 -1.03125 0.125l-1.890625 0zm13.554947 -5.0l0 -1.296875l-1.953125 0l0 1.296875l0 3.65625l1.703125 0l0.25 -3.65625z" fill-rule="nonzero"/><path fill="#000000" fill-opacity="0.0" d="m122.29396 15.107612l52.91339 0l0 52.913383l-52.91339 0z" fill-rule="evenodd"/><path stroke="#000000" stroke-width="2.0" stroke-linejoin="round" stroke-linecap="butt" d="m122.29396 15.107612l52.91339 0l0 52.913383l-52.91339 0z" fill-rule="evenodd"/><path fill="#000000" d="m138.06668 35.781178l0 -1.296875l-1.953125 0l0 1.296875l0 3.65625l1.703125 0l0.25 -3.65625zm15.492447 8.546875l-2.5625 0q-0.03125 0.609375 -0.203125 1.03125q-0.15625 0.421875 -0.4375 0.703125q-0.28125 0.265625 -0.6875 0.40625q-0.40625 0.125 -0.90625 0.125q-0.375 0 -0.6875 -0.078125q-0.296875 -0.09375 -0.546875 -0.28125q-0.21875 -0.15625 -0.40625 -0.40625q-0.171875 -0.25 -0.296875 -0.5625q-0.1875 -0.46875 -0.28125 -1.09375q-0.078125 -0.625 -0.078125 -1.421875l0 -1.796875q0 -0.578125 0.046875 -1.078125q0.0625 -0.515625 0.1875 -0.9375q0.15625 -0.53125 0.40625 -0.9375q0.265625 -0.40625 0.640625 -0.625q0.21875 -0.125 0.46875 -0.1875q0.265625 -0.078125 0.5625 -0.078125q0.5625 0 0.96875 0.15625q0.40625 0.15625 0.6875 0.4375q0.265625 0.3125 0.40625 0.765625q0.140625 0.4375 0.171875 1.03125l2.546875 0q-0.078125 -1.046875 -0.4375 -1.875q-0.34375 -0.828125 -0.9375 -1.40625q-0.609375 -0.5625 -1.46875 -0.875q-0.84375 -0.3125 -1.9375 -0.3125q-0.734375 0 -1.375 0.1875q-0.640625 0.1875 -1.1875 0.53125q-0.59375 0.40625 -1.078125 1.0q-0.46875 0.59375 -0.75 1.34375q-0.265625 0.625 -0.390625 1.359375q-0.125 0.71875 -0.125 1.515625l0 1.78125q0 0.859375 0.140625 1.625q0.140625 0.765625 0.40625 1.40625q0.28125 0.640625 0.671875 1.171875q0.390625 0.515625 0.90625 0.890625q0.546875 0.40625 1.25 0.625q0.703125 0.203125 1.515625 0.203125q1.046875 0 1.890625 -0.296875q0.859375 -0.3125 1.484375 -0.875q0.609375 -0.5625 0.984375 -1.359375q0.375 -0.8125 0.4375 -1.8125zm6.898697 -8.546875l0 -1.296875l-1.953125 0l0 1.296875l0 3.65625l1.703125 0l0.25 -3.65625z" fill-rule="nonzero"/><path fill="#000000" fill-opacity="0.0" d="m175.20735 15.107612l52.913376 0l0 52.913383l-52.913376 0z" fill-rule="evenodd"/><path stroke="#000000" stroke-width="2.0" stroke-linejoin="round" stroke-linecap="butt" d="m175.20735 15.107612l52.913376 0l0 52.913383l-52.913376 0z" fill-rule="evenodd"/><path fill="#000000" d="m190.98006 35.781178l0 -1.296875l-1.953125 0l0 1.296875l0 3.65625l1.703125 0l0.25 -3.65625zm6.226822 12.703125l3.5625 0q0.875 0 1.65625 -0.21875q0.78125 -0.21875 1.421875 -0.625q0.5625 -0.34375 1.03125 -0.859375q0.46875 -0.515625 0.8125 -1.125q0.359375 -0.6875 0.5625 -1.5q0.203125 -0.828125 0.203125 -1.75l0 -1.09375q0 -0.953125 -0.21875 -1.796875q-0.21875 -0.84375 -0.609375 -1.546875q-0.328125 -0.578125 -0.78125 -1.0625q-0.453125 -0.484375 -1.03125 -0.828125q-0.65625 -0.40625 -1.453125 -0.625q-0.796875 -0.234375 -1.71875 -0.234375l-3.4375 0l0 13.265625zm2.578125 -11.1875l0.859375 0q0.453125 0 0.84375 0.109375q0.40625 0.09375 0.734375 0.296875q0.4375 0.25 0.75 0.65625q0.328125 0.390625 0.53125 0.90625q0.15625 0.421875 0.234375 0.9375q0.09375 0.515625 0.09375 1.09375l0 1.109375q0 0.609375 -0.09375 1.140625q-0.078125 0.515625 -0.234375 0.953125q-0.203125 0.484375 -0.484375 0.859375q-0.28125 0.359375 -0.625 0.609375q-0.328125 0.21875 -0.75 0.34375q-0.40625 0.109375 -0.875 0.109375l-0.984375 0l0 -9.125zm13.586197 -1.515625l0 -1.296875l-1.953125 0l0 1.296875l0 3.65625l1.703125 0l0.25 -3.65625z" fill-rule="nonzero"/><path fill="#000000" fill-opacity="0.0" d="m228.12073 15.107612l52.91339 0l0 52.913383l-52.91339 0z" fill-rule="evenodd"/><path stroke="#000000" stroke-width="2.0" stroke-linejoin="round" stroke-linecap="butt" d="m228.12073 15.107612l52.91339 0l0 52.913383l-52.91339 0z" fill-rule="evenodd"/><path fill="#000000" d="m243.89345 35.781178l0 -1.296875l-1.953125 0l0 1.296875l0 3.65625l1.703125 0l0.25 -3.65625zm14.445572 6.890625l0 -2.015625l-5.453125 0l0 -3.34375l6.34375 0l0 -2.09375l-8.90625 0l0 13.265625l8.9375 0l0 -2.0625l-6.375 0l0 -3.75l5.453125 0zm7.9455566 -6.890625l0 -1.296875l-1.953125 0l0 1.296875l0 3.65625l1.703125 0l0.25 -3.65625z" fill-rule="nonzero"/><path fill="#000000" fill-opacity="0.0" d="m122.29396 119.19423l52.91339 0l0 52.913376l-52.91339 0z" fill-rule="evenodd"/><path stroke="#000000" stroke-width="2.0" stroke-linejoin="round" stroke-linecap="butt" d="m122.29396 119.19423l52.91339 0l0 52.913376l-52.91339 0z" fill-rule="evenodd"/><path fill="#000000" d="m138.06668 139.8678l0 -1.296875l-1.953125 0l0 1.296875l0 3.65625l1.703125 0l0.25 -3.65625zm12.570572 12.703125l0 -13.265625l-0.140625 0l-5.765625 2.09375l0 2.203125l3.34375 -1.203125l0 10.171875l2.5625 0zm9.820572 -12.703125l0 -1.296875l-1.953125 0l0 1.296875l0 3.65625l1.703125 0l0.25 -3.65625z" fill-rule="nonzero"/><path fill="#000000" fill-opacity="0.0" d="m175.20735 119.19423l52.913376 0l0 52.913376l-52.913376 0z" fill-rule="evenodd"/><path stroke="#000000" stroke-width="2.0" stroke-linejoin="round" stroke-linecap="butt" d="m175.20735 119.19423l52.913376 0l0 52.913376l-52.913376 0z" fill-rule="evenodd"/><path fill="#000000" d="m190.98006 139.8678l0 -1.296875l-1.953125 0l0 1.296875l0 3.65625l1.703125 0l0.25 -3.65625zm15.039322 12.703125l0 -2.03125l-5.8125 0l2.484375 -2.640625q0.65625 -0.671875 1.171875 -1.265625q0.53125 -0.609375 0.921875 -1.1875q0.375 -0.59375 0.578125 -1.1875q0.203125 -0.59375 0.203125 -1.25q0 -0.875 -0.28125 -1.578125q-0.265625 -0.71875 -0.78125 -1.234375q-0.53125 -0.5 -1.3125 -0.78125q-0.78125 -0.296875 -1.78125 -0.296875q-1.0625 0 -1.9375 0.34375q-0.859375 0.34375 -1.46875 0.9375q-0.625 0.59375 -0.96875 1.390625q-0.328125 0.78125 -0.328125 1.65625l2.53125 0q0 -0.53125 0.140625 -0.953125q0.140625 -0.421875 0.40625 -0.703125q0.25 -0.265625 0.640625 -0.40625q0.390625 -0.140625 0.890625 -0.140625q0.390625 0 0.71875 0.125q0.328125 0.125 0.5625 0.359375q0.234375 0.25 0.359375 0.59375q0.125 0.34375 0.125 0.796875q0 0.296875 -0.09375 0.625q-0.09375 0.3125 -0.3125 0.671875q-0.21875 0.375 -0.5625 0.828125q-0.34375 0.4375 -0.84375 0.984375l-4.296875 4.609375l0 1.734375l9.046875 0zm7.351822 -12.703125l0 -1.296875l-1.953125 0l0 1.296875l0 3.65625l1.703125 0l0.25 -3.65625z" fill-rule="nonzero"/><path fill="#000000" fill-opacity="0.0" d="m228.12073 119.19423l52.91339 0l0 52.913376l-52.91339 0z" fill-rule="evenodd"/><path stroke="#000000" stroke-width="2.0" stroke-linejoin="round" stroke-linecap="butt" d="m228.12073 119.19423l52.91339 0l0 52.913376l-52.91339 0z" fill-rule="evenodd"/><path fill="#000000" d="m243.89345 139.8678l0 -1.296875l-1.953125 0l0 1.296875l0 3.65625l1.703125 0l0.25 -3.65625zm8.914322 4.953125l0 1.96875l1.375 0q0.53125 0 0.9375 0.125q0.421875 0.125 0.71875 0.359375q0.296875 0.25 0.4375 0.640625q0.15625 0.375 0.15625 0.90625q0 0.4375 -0.125 0.78125q-0.125 0.34375 -0.390625 0.578125q-0.265625 0.265625 -0.65625 0.40625q-0.390625 0.140625 -0.875 0.140625q-0.4375 0 -0.8125 -0.125q-0.359375 -0.140625 -0.625 -0.375q-0.265625 -0.234375 -0.421875 -0.546875q-0.140625 -0.328125 -0.140625 -0.71875l-2.53125 0q0 0.96875 0.375 1.6875q0.375 0.703125 1.015625 1.171875q0.625 0.46875 1.421875 0.703125q0.8125 0.234375 1.65625 0.234375q0.984375 0 1.828125 -0.265625q0.859375 -0.265625 1.484375 -0.765625q0.625 -0.484375 0.96875 -1.203125q0.359375 -0.734375 0.359375 -1.671875q0 -0.53125 -0.125 -1.0q-0.125 -0.46875 -0.390625 -0.875q-0.265625 -0.390625 -0.671875 -0.703125q-0.40625 -0.3125 -0.96875 -0.515625q0.484375 -0.21875 0.84375 -0.53125q0.359375 -0.3125 0.609375 -0.6875q0.25 -0.375 0.375 -0.78125q0.125 -0.421875 0.125 -0.859375q0 -0.921875 -0.328125 -1.625q-0.3125 -0.703125 -0.90625 -1.1875q-0.578125 -0.484375 -1.40625 -0.71875q-0.8125 -0.25 -1.796875 -0.25q-0.90625 0 -1.703125 0.265625q-0.78125 0.265625 -1.359375 0.75q-0.59375 0.484375 -0.921875 1.15625q-0.328125 0.65625 -0.328125 1.46875l2.53125 0q0 -0.375 0.140625 -0.65625q0.15625 -0.296875 0.40625 -0.515625q0.25 -0.1875 0.578125 -0.296875q0.328125 -0.109375 0.71875 -0.109375q0.453125 0 0.796875 0.125q0.359375 0.125 0.59375 0.359375q0.21875 0.234375 0.328125 0.5625q0.125 0.3125 0.125 0.703125q0 0.40625 -0.125 0.75q-0.109375 0.34375 -0.328125 0.578125q-0.25 0.265625 -0.65625 0.421875q-0.390625 0.140625 -0.9375 0.140625l-1.375 0zm13.476807 -4.953125l0 -1.296875l-1.953125 0l0 1.296875l0 3.65625l1.703125 0l0.25 -3.65625z" fill-rule="nonzero"/><path fill="#000000" fill-opacity="0.0" d="m439.7743 222.60367l52.91336 0l0 52.91339l-52.91336 0z" fill-rule="evenodd"/><path stroke="#000000" stroke-width="2.0" stroke-linejoin="round" stroke-linecap="butt" d="m439.7743 222.60367l52.91336 0l0 52.91339l-52.91336 0z" fill-rule="evenodd"/><path fill="#000000" fill-opacity="0.0" d="m492.68765 222.60367l52.91342 0l0 52.91339l-52.91342 0z" fill-rule="evenodd"/><path stroke="#000000" stroke-width="2.0" stroke-linejoin="round" stroke-linecap="butt" d="m492.68765 222.60367l52.91342 0l0 52.91339l-52.91342 0z" fill-rule="evenodd"/><path fill="#000000" fill-opacity="0.0" d="m95.83727 68.020996c0 38.645668 -13.228348 57.968506 -26.456696 77.291336c-13.228348 19.322845 -26.456692 38.645676 -26.456692 77.291336" fill-rule="evenodd"/><path stroke="#000000" stroke-width="2.0" stroke-linejoin="round" stroke-linecap="butt" d="m95.83727 68.020996c0 38.645668 -13.228348 57.968506 -26.456696 77.291336c-6.614174 9.661423 -13.228348 19.322845 -18.188976 31.399612c-2.4803162 6.038391 -4.547245 12.680603 -5.994095 20.228592c-0.723423 3.7739868 -1.291832 7.774414 -1.6793785 12.039047c-0.04844284 0.5330658 -0.094062805 1.0702667 -0.13680267 1.6116638l-0.0016021729 0.021087646" fill-rule="evenodd"/><path fill="#000000" stroke="#000000" stroke-width="2.0" stroke-linecap="butt" d="m40.07864 210.48685l2.9563103 9.195129l3.6458511 -8.944153z" fill-rule="evenodd"/><path fill="#000000" fill-opacity="0.0" d="m16.467192 222.60367l52.913383 0l0 52.91339l-52.913383 0z" fill-rule="evenodd"/><path stroke="#000000" stroke-width="2.0" stroke-linejoin="round" stroke-linecap="butt" d="m16.467192 222.60367l52.913383 0l0 52.91339l-52.913383 0z" fill-rule="evenodd"/><path fill="#000000" d="m32.239902 243.27724l0 -1.296875l-1.953125 0l0 1.296875l0 3.65625l1.703125 0l0.25 -3.65625zm12.804947 9.9375l0.765625 2.765625l2.703125 0l-4.265625 -13.265625l-2.328125 0l-4.34375 13.265625l2.703125 0l0.78125 -2.765625l3.984375 0zm-3.359375 -2.1875l1.390625 -4.875l1.359375 4.875l-2.75 0zm12.945572 -7.75l0 -1.296875l-1.953125 0l0 1.296875l0 3.65625l1.703125 0l0.25 -3.65625z" fill-rule="nonzero"/><path fill="#000000" fill-opacity="0.0" d="m69.38058 222.60367l52.913383 0l0 52.91339l-52.913383 0z" fill-rule="evenodd"/><path stroke="#000000" stroke-width="2.0" stroke-linejoin="round" stroke-linecap="butt" d="m69.38058 222.60367l52.913383 0l0 52.91339l-52.913383 0z" fill-rule="evenodd"/><path fill="#000000" d="m85.15329 243.27724l0 -1.296875l-1.953125 0l0 1.296875l0 3.65625l1.703125 0l0.25 -3.65625zm6.258072 12.703125l4.84375 0q1.09375 0 1.96875 -0.234375q0.875 -0.25 1.484375 -0.75q0.609375 -0.484375 0.9375 -1.21875q0.328125 -0.734375 0.328125 -1.6875q0 -0.5 -0.140625 -0.96875q-0.125 -0.46875 -0.40625 -0.875q-0.265625 -0.375 -0.65625 -0.65625q-0.375 -0.28125 -1.03125 -0.453125l0 -0.015625q0.34375 -0.125 0.609375 -0.296875q0.28125 -0.1875 0.5 -0.40625q0.40625 -0.40625 0.609375 -0.9375q0.203125 -0.53125 0.21875 -1.140625q0 -0.921875 -0.34375 -1.609375q-0.34375 -0.6875 -0.96875 -1.125q-0.640625 -0.453125 -1.53125 -0.671875q-0.875 -0.21875 -1.96875 -0.21875l-4.453125 0l0 13.265625zm2.578125 -5.84375l2.375 0q0.546875 0 0.9375 0.140625q0.390625 0.140625 0.640625 0.390625q0.234375 0.25 0.34375 0.609375q0.125 0.34375 0.125 0.796875q0 0.421875 -0.15625 0.78125q-0.140625 0.34375 -0.4375 0.578125q-0.265625 0.21875 -0.671875 0.359375q-0.390625 0.125 -0.890625 0.125l-2.265625 0l0 -3.78125zm0 -1.859375l0 -3.46875l1.890625 0q0.625 0 1.078125 0.140625q0.453125 0.125 0.734375 0.40625q0.203125 0.1875 0.3125 0.5q0.109375 0.296875 0.109375 0.703125q0 0.375 -0.125 0.6875q-0.125 0.296875 -0.359375 0.5q-0.265625 0.265625 -0.71875 0.40625q-0.4375 0.125 -1.03125 0.125l-1.890625 0zm13.554947 -5.0l0 -1.296875l-1.953125 0l0 1.296875l0 3.65625l1.703125 0l0.25 -3.65625z" fill-rule="nonzero"/><path fill="#000000" fill-opacity="0.0" d="m122.29396 222.60367l52.91339 0l0 52.91339l-52.91339 0z" fill-rule="evenodd"/><path stroke="#000000" stroke-width="2.0" stroke-linejoin="round" stroke-linecap="butt" d="m122.29396 222.60367l52.91339 0l0 52.91339l-52.91339 0z" fill-rule="evenodd"/><path fill="#000000" d="m138.06668 243.27724l0 -1.296875l-1.953125 0l0 1.296875l0 3.65625l1.703125 0l0.25 -3.65625zm15.492447 8.546875l-2.5625 0q-0.03125 0.609375 -0.203125 1.03125q-0.15625 0.421875 -0.4375 0.703125q-0.28125 0.265625 -0.6875 0.40625q-0.40625 0.125 -0.90625 0.125q-0.375 0 -0.6875 -0.078125q-0.296875 -0.09375 -0.546875 -0.28125q-0.21875 -0.15625 -0.40625 -0.40625q-0.171875 -0.25 -0.296875 -0.5625q-0.1875 -0.46875 -0.28125 -1.09375q-0.078125 -0.625 -0.078125 -1.421875l0 -1.796875q0 -0.578125 0.046875 -1.078125q0.0625 -0.515625 0.1875 -0.9375q0.15625 -0.53125 0.40625 -0.9375q0.265625 -0.40625 0.640625 -0.625q0.21875 -0.125 0.46875 -0.1875q0.265625 -0.078125 0.5625 -0.078125q0.5625 0 0.96875 0.15625q0.40625 0.15625 0.6875 0.4375q0.265625 0.3125 0.40625 0.765625q0.140625 0.4375 0.171875 1.03125l2.546875 0q-0.078125 -1.046875 -0.4375 -1.875q-0.34375 -0.828125 -0.9375 -1.40625q-0.609375 -0.5625 -1.46875 -0.875q-0.84375 -0.3125 -1.9375 -0.3125q-0.734375 0 -1.375 0.1875q-0.640625 0.1875 -1.1875 0.53125q-0.59375 0.40625 -1.078125 1.0q-0.46875 0.59375 -0.75 1.34375q-0.265625 0.625 -0.390625 1.359375q-0.125 0.71875 -0.125 1.515625l0 1.78125q0 0.859375 0.140625 1.625q0.140625 0.765625 0.40625 1.40625q0.28125 0.640625 0.671875 1.171875q0.390625 0.515625 0.90625 0.890625q0.546875 0.40625 1.25 0.625q0.703125 0.20314026 1.515625 0.20314026q1.046875 0 1.890625 -0.29689026q0.859375 -0.3125 1.484375 -0.875q0.609375 -0.5625 0.984375 -1.359375q0.375 -0.8125 0.4375 -1.8125zm6.898697 -8.546875l0 -1.296875l-1.953125 0l0 1.296875l0 3.65625l1.703125 0l0.25 -3.65625z" fill-rule="nonzero"/><path fill="#000000" fill-opacity="0.0" d="m175.20735 222.60367l52.913376 0l0 52.91339l-52.913376 0z" fill-rule="evenodd"/><path stroke="#000000" stroke-width="2.0" stroke-linejoin="round" stroke-linecap="butt" d="m175.20735 222.60367l52.913376 0l0 52.91339l-52.913376 0z" fill-rule="evenodd"/><path fill="#000000" d="m190.98006 243.27724l0 -1.296875l-1.953125 0l0 1.296875l0 3.65625l1.703125 0l0.25 -3.65625zm6.226822 12.703125l3.5625 0q0.875 0 1.65625 -0.21875q0.78125 -0.21875 1.421875 -0.625q0.5625 -0.34375 1.03125 -0.859375q0.46875 -0.515625 0.8125 -1.125q0.359375 -0.6875 0.5625 -1.5q0.203125 -0.828125 0.203125 -1.75l0 -1.09375q0 -0.953125 -0.21875 -1.796875q-0.21875 -0.84375 -0.609375 -1.546875q-0.328125 -0.578125 -0.78125 -1.0625q-0.453125 -0.484375 -1.03125 -0.828125q-0.65625 -0.40625 -1.453125 -0.625q-0.796875 -0.234375 -1.71875 -0.234375l-3.4375 0l0 13.265625zm2.578125 -11.1875l0.859375 0q0.453125 0 0.84375 0.109375q0.40625 0.09375 0.734375 0.296875q0.4375 0.25 0.75 0.65625q0.328125 0.390625 0.53125 0.90625q0.15625 0.421875 0.234375 0.9375q0.09375 0.515625 0.09375 1.09375l0 1.109375q0 0.609375 -0.09375 1.140625q-0.078125 0.515625 -0.234375 0.953125q-0.203125 0.484375 -0.484375 0.859375q-0.28125 0.359375 -0.625 0.609375q-0.328125 0.21875 -0.75 0.34375q-0.40625 0.109375 -0.875 0.109375l-0.984375 0l0 -9.125zm13.586197 -1.515625l0 -1.296875l-1.953125 0l0 1.296875l0 3.65625l1.703125 0l0.25 -3.65625z" fill-rule="nonzero"/><path fill="#000000" fill-opacity="0.0" d="m228.12073 222.60367l52.91339 0l0 52.91339l-52.91339 0z" fill-rule="evenodd"/><path stroke="#000000" stroke-width="2.0" stroke-linejoin="round" stroke-linecap="butt" d="m228.12073 222.60367l52.91339 0l0 52.91339l-52.91339 0z" fill-rule="evenodd"/><path fill="#000000" d="m243.89345 243.27724l0 -1.296875l-1.953125 0l0 1.296875l0 3.65625l1.703125 0l0.25 -3.65625zm14.445572 6.890625l0 -2.015625l-5.453125 0l0 -3.34375l6.34375 0l0 -2.09375l-8.90625 0l0 13.265625l8.9375 0l0 -2.0625l-6.375 0l0 -3.75l5.453125 0zm7.9455566 -6.890625l0 -1.296875l-1.953125 0l0 1.296875l0 3.65625l1.703125 0l0.25 -3.65625z" fill-rule="nonzero"/><path fill="#000000" fill-opacity="0.0" d="m281.03412 222.60367l52.91339 0l0 52.91339l-52.91339 0z" fill-rule="evenodd"/><path stroke="#000000" stroke-width="2.0" stroke-linejoin="round" stroke-linecap="butt" d="m281.03412 222.60367l52.91339 0l0 52.91339l-52.91339 0z" fill-rule="evenodd"/><path fill="#000000" d="m296.80682 243.27724l0 -1.296875l-1.953125 0l0 1.296875l0 3.65625l1.703125 0l0.25 -3.65625zm12.570587 12.703125l0 -13.265625l-0.140625 0l-5.765625 2.09375l0 2.203125l3.34375 -1.203125l0 10.171875l2.5625 0zm9.820557 -12.703125l0 -1.296875l-1.953125 0l0 1.296875l0 3.65625l1.703125 0l0.25 -3.65625z" fill-rule="nonzero"/><path fill="#000000" fill-opacity="0.0" d="m333.9475 222.60367l52.91339 0l0 52.91339l-52.91339 0z" fill-rule="evenodd"/><path stroke="#000000" stroke-width="2.0" stroke-linejoin="round" stroke-linecap="butt" d="m333.9475 222.60367l52.91339 0l0 52.91339l-52.91339 0z" fill-rule="evenodd"/><path fill="#000000" d="m349.7202 243.27724l0 -1.296875l-1.953125 0l0 1.296875l0 3.65625l1.703125 0l0.25 -3.65625zm15.039337 12.703125l0 -2.03125l-5.8125 0l2.484375 -2.640625q0.65625 -0.671875 1.171875 -1.265625q0.53125 -0.609375 0.921875 -1.1875q0.375 -0.59375 0.578125 -1.1875q0.203125 -0.59375 0.203125 -1.25q0 -0.875 -0.28125 -1.578125q-0.265625 -0.71875 -0.78125 -1.234375q-0.53125 -0.5 -1.3125 -0.78125q-0.78125 -0.296875 -1.78125 -0.296875q-1.0625 0 -1.9375 0.34375q-0.859375 0.34375 -1.46875 0.9375q-0.625 0.59375 -0.96875 1.390625q-0.328125 0.78125 -0.328125 1.65625l2.53125 0q0 -0.53125 0.140625 -0.953125q0.140625 -0.421875 0.40625 -0.703125q0.25 -0.265625 0.640625 -0.40625q0.390625 -0.140625 0.890625 -0.140625q0.390625 0 0.71875 0.125q0.328125 0.125 0.5625 0.359375q0.234375 0.25 0.359375 0.59375q0.125 0.34375 0.125 0.796875q0 0.296875 -0.09375 0.625q-0.09375 0.3125 -0.3125 0.671875q-0.21875 0.375 -0.5625 0.828125q-0.34375 0.4375 -0.84375 0.984375l-4.296875 4.609375l0 1.734375l9.046875 0zm7.3518066 -12.703125l0 -1.296875l-1.953125 0l0 1.296875l0 3.65625l1.703125 0l0.25 -3.65625z" fill-rule="nonzero"/><path fill="#000000" fill-opacity="0.0" d="m386.8609 222.60367l52.91339 0l0 52.91339l-52.91339 0z" fill-rule="evenodd"/><path stroke="#000000" stroke-width="2.0" stroke-linejoin="round" stroke-linecap="butt" d="m386.8609 222.60367l52.91339 0l0 52.91339l-52.91339 0z" fill-rule="evenodd"/><path fill="#000000" d="m402.6336 243.27724l0 -1.296875l-1.953125 0l0 1.296875l0 3.65625l1.703125 0l0.25 -3.65625zm8.914307 4.953125l0 1.96875l1.375 0q0.53125 0 0.9375 0.125q0.421875 0.125 0.71875 0.359375q0.296875 0.25 0.4375 0.640625q0.15625 0.375 0.15625 0.90625q0 0.4375 -0.125 0.78125q-0.125 0.34375 -0.390625 0.578125q-0.265625 0.265625 -0.65625 0.40625q-0.390625 0.140625 -0.875 0.140625q-0.4375 0 -0.8125 -0.125q-0.359375 -0.140625 -0.625 -0.375q-0.265625 -0.234375 -0.421875 -0.546875q-0.140625 -0.328125 -0.140625 -0.71875l-2.53125 0q0 0.96875 0.375 1.6875q0.375 0.703125 1.015625 1.171875q0.625 0.46875 1.421875 0.703125q0.8125 0.23439026 1.65625 0.23439026q0.984375 0 1.828125 -0.26564026q0.859375 -0.265625 1.484375 -0.765625q0.625 -0.484375 0.96875 -1.203125q0.359375 -0.734375 0.359375 -1.671875q0 -0.53125 -0.125 -1.0q-0.125 -0.46875 -0.390625 -0.875q-0.265625 -0.390625 -0.671875 -0.703125q-0.40625 -0.3125 -0.96875 -0.515625q0.484375 -0.21875 0.84375 -0.53125q0.359375 -0.3125 0.609375 -0.6875q0.25 -0.375 0.375 -0.78125q0.125 -0.421875 0.125 -0.859375q0 -0.921875 -0.328125 -1.625q-0.3125 -0.703125 -0.90625 -1.1875q-0.578125 -0.484375 -1.40625 -0.71875q-0.8125 -0.25 -1.796875 -0.25q-0.90625 0 -1.703125 0.265625q-0.78125 0.265625 -1.359375 0.75q-0.59375 0.484375 -0.921875 1.15625q-0.328125 0.65625 -0.328125 1.46875l2.53125 0q0 -0.375 0.140625 -0.65625q0.15625 -0.296875 0.40625 -0.515625q0.25 -0.1875 0.578125 -0.296875q0.328125 -0.109375 0.71875 -0.109375q0.453125 0 0.796875 0.125q0.359375 0.125 0.59375 0.359375q0.21875 0.234375 0.328125 0.5625q0.125 0.3125 0.125 0.703125q0 0.40625 -0.125 0.75q-0.109375 0.34375 -0.328125 0.578125q-0.25 0.265625 -0.65625 0.421875q-0.390625 0.140625 -0.9375 0.140625l-1.375 0zm13.476837 -4.953125l0 -1.296875l-1.953125 0l0 1.296875l0 3.65625l1.703125 0l0.25 -3.65625z" fill-rule="nonzero"/><path fill="#000000" fill-opacity="0.0" d="m254.57742 172.1076c0 12.624069 26.456696 18.937119 52.91339 25.248138c26.456696 6.31102 52.91339 12.620026 52.91339 25.240051" fill-rule="evenodd"/><path stroke="#000000" stroke-width="2.0" stroke-linejoin="round" stroke-linecap="butt" d="m254.57742 172.1076c0 12.624069 26.456696 18.937119 52.91339 25.248138c13.2283325 3.1555176 26.456696 6.3105164 36.37796 10.25415c2.4803162 0.9859009 4.753937 2.0210876 6.7691956 3.11792c1.0076294 0.54841614 1.9506531 1.1122284 2.8226624 1.6929779l0.28451538 0.19216919" fill-rule="evenodd"/><path fill="#000000" stroke="#000000" stroke-width="2.0" stroke-linecap="butt" d="m350.99698 214.44612l7.784729 5.7173615l-2.288391 -9.383682z" fill-rule="evenodd"/></g></svg>