<svg version="1.1" viewBox="0.0 0.0 514.0 314.0" fill="none" stroke="none" stroke-linecap="square" stroke-miterlimit="10" xmlns:xlink="http://www.w3.org/1999/xlink" xmlns="http://www.w3.org/2000/svg"><clipPath id="p.0"><path d="m0 0l514.0 0l0 314.0l-514.0 0l0 -314.0z" clip-rule="nonzero"/></clipPath><g clip-path="url(#p.0)"><path fill="#000000" fill-opacity="0.0" d="m0 0l514.0 0l0 314.0l-514.0 0z" fill-rule="evenodd"/><path fill="#000000" fill-opacity="0.0" d="m7.984252 77.52231l41.574802 0l0 41.574806l-41.574802 0z" fill-rule="evenodd"/><path stroke="#000000" stroke-width="2.0" stroke-linejoin="round" stroke-linecap="butt" d="m7.984252 77.52231l41.574802 0l0 41.574806l-41.574802 0z" fill-rule="evenodd"/><path fill="#000000" d="m30.595871 101.79471l0.65625 2.375l2.3125 0l-3.65625 -11.375l-1.984375 0l-3.734375 11.375l2.3125 0l0.671875 -2.375l3.421875 0zm-2.875 -1.875l1.1875 -4.1875l1.171875 4.1875l-2.359375 0z" fill-rule="nonzero"/><path fill="#000000" fill-opacity="0.0" d="m49.559055 77.52231l41.574802 0l0 41.574806l-41.574802 0z" fill-rule="evenodd"/><path stroke="#000000" stroke-width="2.0" stroke-linejoin="round" stroke-linecap="butt" d="m49.559055 77.52231l41.574802 0l0 41.574806l-41.574802 0z" fill-rule="evenodd"/><path fill="#000000" d="m66.5613 104.16971l4.140625 0q0.9375 0 1.6875 -0.203125q0.75 -0.21875 1.28125 -0.640625q0.515625 -0.421875 0.796875 -1.046875q0.28125 -0.625 0.28125 -1.453125q0 -0.421875 -0.109375 -0.828125q-0.109375 -0.40625 -0.34375 -0.75q-0.234375 -0.3125 -0.5625 -0.546875q-0.328125 -0.25 -0.890625 -0.40625l0 -0.015625q0.28125 -0.109375 0.515625 -0.265625q0.25 -0.15625 0.4375 -0.34375q0.34375 -0.34375 0.515625 -0.796875q0.171875 -0.453125 0.1875 -0.96875q0 -0.796875 -0.296875 -1.375q-0.296875 -0.59375 -0.828125 -0.984375q-0.546875 -0.375 -1.3125 -0.5625q-0.75 -0.1875 -1.6875 -0.1875l-3.8125 0l0 11.375zm2.203125 -5.015625l2.046875 0q0.453125 0 0.78125 0.125q0.34375 0.109375 0.5625 0.328125q0.203125 0.21875 0.296875 0.53125q0.109375 0.296875 0.109375 0.671875q0 0.375 -0.140625 0.671875q-0.125 0.296875 -0.375 0.5q-0.21875 0.1875 -0.5625 0.296875q-0.34375 0.109375 -0.765625 0.109375l-1.953125 0l0 -3.234375zm0 -1.59375l0 -2.984375l1.625 0q0.53125 0.015625 0.921875 0.125q0.390625 0.109375 0.625 0.34375q0.1875 0.171875 0.265625 0.4375q0.09375 0.25 0.09375 0.59375q0 0.328125 -0.109375 0.59375q-0.09375 0.25 -0.296875 0.4375q-0.234375 0.21875 -0.625 0.34375q-0.375 0.109375 -0.875 0.109375l-1.625 0z" fill-rule="nonzero"/><path fill="#000000" fill-opacity="0.0" d="m91.13386 77.52231l41.574806 0l0 41.574806l-41.574806 0z" fill-rule="evenodd"/><path stroke="#000000" stroke-width="2.0" stroke-linejoin="round" stroke-linecap="butt" d="m91.13386 77.52231l41.574806 0l0 41.574806l-41.574806 0z" fill-rule="evenodd"/><path fill="#000000" d="m116.04235 100.60721l-2.1875 0q-0.03125 0.515625 -0.171875 0.890625q-0.140625 0.359375 -0.390625 0.59375q-0.234375 0.234375 -0.578125 0.34375q-0.34375 0.109375 -0.78125 0.109375q-0.3125 0 -0.578125 -0.078125q-0.265625 -0.078125 -0.46875 -0.234375q-0.203125 -0.140625 -0.359375 -0.34375q-0.140625 -0.21875 -0.25 -0.484375q-0.15625 -0.40625 -0.234375 -0.9375q-0.078125 -0.53125 -0.078125 -1.21875l0 -1.546875q0 -0.5 0.046875 -0.921875q0.046875 -0.4375 0.15625 -0.796875q0.125 -0.46875 0.34375 -0.8125q0.234375 -0.34375 0.546875 -0.53125q0.1875 -0.109375 0.40625 -0.15625q0.234375 -0.0625 0.484375 -0.0625q0.484375 0 0.828125 0.125q0.359375 0.125 0.59375 0.375q0.21875 0.265625 0.34375 0.65625q0.125 0.375 0.15625 0.875l2.1875 0q-0.078125 -0.890625 -0.375 -1.59375q-0.296875 -0.71875 -0.8125 -1.203125q-0.515625 -0.5 -1.25 -0.765625q-0.734375 -0.265625 -1.671875 -0.265625q-0.625 0 -1.1875 0.171875q-0.546875 0.15625 -1.0 0.453125q-0.515625 0.34375 -0.921875 0.859375q-0.40625 0.5 -0.65625 1.15625q-0.21875 0.53125 -0.328125 1.15625q-0.109375 0.609375 -0.109375 1.296875l0 1.53125q0 0.734375 0.109375 1.390625q0.125 0.65625 0.359375 1.203125q0.234375 0.546875 0.5625 1.0q0.34375 0.453125 0.78125 0.78125q0.484375 0.34375 1.078125 0.53125q0.59375 0.1875 1.296875 0.1875q0.890625 0 1.625 -0.265625q0.734375 -0.265625 1.265625 -0.75q0.53125 -0.484375 0.84375 -1.171875q0.328125 -0.6875 0.375 -1.546875z" fill-rule="nonzero"/><path fill="#000000" fill-opacity="0.0" d="m132.70866 77.52231l41.5748 0l0 41.574806l-41.5748 0z" fill-rule="evenodd"/><path stroke="#000000" stroke-width="2.0" stroke-linejoin="round" stroke-linecap="butt" d="m132.70866 77.52231l41.5748 0l0 41.574806l-41.5748 0z" fill-rule="evenodd"/><path fill="#000000" d="m149.67966 104.16971l3.046875 0q0.765625 0 1.421875 -0.1875q0.671875 -0.1875 1.234375 -0.546875q0.46875 -0.296875 0.859375 -0.734375q0.40625 -0.4375 0.703125 -0.96875q0.3125 -0.578125 0.484375 -1.28125q0.171875 -0.703125 0.171875 -1.5l0 -0.9375q0 -0.8125 -0.1875 -1.53125q-0.171875 -0.734375 -0.515625 -1.34375q-0.28125 -0.484375 -0.671875 -0.90625q-0.390625 -0.421875 -0.875 -0.703125q-0.5625 -0.359375 -1.25 -0.546875q-0.6875 -0.1875 -1.484375 -0.1875l-2.9375 0l0 11.375zm2.203125 -9.59375l0.734375 0q0.40625 0 0.734375 0.09375q0.34375 0.078125 0.625 0.25q0.375 0.21875 0.640625 0.5625q0.28125 0.34375 0.453125 0.78125q0.140625 0.359375 0.21875 0.8125q0.078125 0.4375 0.078125 0.921875l0 0.953125q0 0.53125 -0.078125 0.984375q-0.078125 0.4375 -0.21875 0.8125q-0.171875 0.421875 -0.40625 0.734375q-0.234375 0.3125 -0.53125 0.515625q-0.296875 0.203125 -0.65625 0.3125q-0.34375 0.09375 -0.75 0.09375l-0.84375 0l0 -7.828125z" fill-rule="nonzero"/><path fill="#000000" fill-opacity="0.0" d="m174.28346 77.52231l41.5748 0l0 41.574806l-41.5748 0z" fill-rule="evenodd"/><path stroke="#000000" stroke-width="2.0" stroke-linejoin="round" stroke-linecap="butt" d="m174.28346 77.52231l41.5748 0l0 41.574806l-41.5748 0z" fill-rule="evenodd"/><path fill="#000000" d="m198.30133 99.18533l0 -1.734375l-4.671875 0l0 -2.875l5.4375 0l0 -1.78125l-7.640625 0l0 11.375l7.65625 0l0 -1.78125l-5.453125 0l0 -3.203125l4.671875 0z" fill-rule="nonzero"/><path fill="#000000" fill-opacity="0.0" d="m62.070866 185.88583l41.574802 0l0 41.5748l-41.574802 0z" fill-rule="evenodd"/><path stroke="#000000" stroke-width="2.0" stroke-linejoin="round" stroke-linecap="butt" d="m62.070866 185.88583l41.574802 0l0 41.5748l-41.574802 0z" fill-rule="evenodd"/><path fill="#000000" d="m84.47936 212.53323l0 -11.375l-0.109375 0l-4.953125 1.78125l0 1.890625l2.875 -1.03125l0 8.734375l2.1875 0z" fill-rule="nonzero"/><path fill="#000000" fill-opacity="0.0" d="m103.64567 185.88583l41.574806 0l0 41.5748l-41.574806 0z" fill-rule="evenodd"/><path stroke="#000000" stroke-width="2.0" stroke-linejoin="round" stroke-linecap="butt" d="m103.64567 185.88583l41.574806 0l0 41.5748l-41.574806 0z" fill-rule="evenodd"/><path fill="#000000" d="m128.17917 212.53323l0 -1.75l-5.0000076 0l2.140625 -2.265625q0.5625 -0.5625 1.015625 -1.078125q0.453125 -0.53125 0.78125 -1.03125q0.3125 -0.5 0.484375 -1.0q0.1875 -0.515625 0.1875 -1.078125q0 -0.75 -0.234375 -1.359375q-0.234375 -0.609375 -0.6875 -1.046875q-0.453125 -0.4375 -1.125 -0.671875q-0.65625 -0.25 -1.53125 -0.25q-0.90625 0 -1.65625 0.296875q-0.734375 0.28125 -1.265625 0.796875q-0.53125 0.5 -0.828125 1.1875q-0.28125 0.671875 -0.28125 1.421875l2.1875 0q0 -0.453125 0.109375 -0.8125q0.125 -0.359375 0.34375 -0.609375q0.21875 -0.234375 0.546875 -0.34375q0.34375 -0.125 0.78125 -0.125q0.328125 0 0.609375 0.109375q0.28125 0.109375 0.484375 0.3125q0.1875 0.203125 0.296875 0.5q0.109375 0.296875 0.109375 0.6875q0 0.25 -0.078125 0.53125q-0.078125 0.265625 -0.265625 0.578125q-0.1875 0.328125 -0.484375 0.71875q-0.296875 0.375 -0.71875 0.84375l-3.6875 3.953125l0 1.484375l7.7656326 0z" fill-rule="nonzero"/><path fill="#000000" fill-opacity="0.0" d="m145.22047 186.15092l41.5748 0l0 41.5748l-41.5748 0z" fill-rule="evenodd"/><path stroke="#000000" stroke-width="2.0" stroke-linejoin="round" stroke-linecap="butt" d="m145.22047 186.15092l41.5748 0l0 41.5748l-41.5748 0z" fill-rule="evenodd"/><path fill="#000000" d="m164.50397 206.1577l0 1.6875l1.171875 0q0.453125 0 0.796875 0.109375q0.359375 0.09375 0.625 0.296875q0.25 0.21875 0.375 0.546875q0.140625 0.328125 0.140625 0.78125q0 0.375 -0.125 0.671875q-0.109375 0.296875 -0.328125 0.5q-0.21875 0.21875 -0.5625 0.34375q-0.328125 0.109375 -0.75 0.109375q-0.375 0 -0.6875 -0.109375q-0.3125 -0.109375 -0.546875 -0.3125q-0.234375 -0.203125 -0.359375 -0.46875q-0.125 -0.28125 -0.125 -0.609375l-2.171875 0q0 0.828125 0.328125 1.4375q0.328125 0.609375 0.859375 1.0q0.546875 0.40625 1.234375 0.609375q0.6875 0.203125 1.421875 0.203125q0.84375 0 1.5625 -0.21875q0.734375 -0.234375 1.265625 -0.65625q0.53125 -0.421875 0.828125 -1.046875q0.3125 -0.625 0.3125 -1.421875q0 -0.453125 -0.109375 -0.859375q-0.109375 -0.40625 -0.328125 -0.75q-0.234375 -0.34375 -0.578125 -0.609375q-0.34375 -0.265625 -0.828125 -0.4375q0.40625 -0.1875 0.71875 -0.453125q0.3125 -0.28125 0.53125 -0.59375q0.203125 -0.328125 0.3125 -0.671875q0.109375 -0.359375 0.109375 -0.734375q0 -0.796875 -0.28125 -1.390625q-0.265625 -0.609375 -0.765625 -1.03125q-0.5 -0.40625 -1.203125 -0.609375q-0.703125 -0.203125 -1.546875 -0.203125q-0.78125 0 -1.46875 0.234375q-0.671875 0.21875 -1.171875 0.625q-0.5 0.40625 -0.78125 0.984375q-0.28125 0.5625 -0.28125 1.265625l2.171875 0q0 -0.3125 0.125 -0.5625q0.125 -0.25 0.34375 -0.4375q0.203125 -0.171875 0.484375 -0.265625q0.296875 -0.09375 0.625 -0.09375q0.390625 0 0.6875 0.109375q0.3125 0.109375 0.5 0.3125q0.203125 0.203125 0.296875 0.484375q0.09375 0.265625 0.09375 0.609375q0 0.34375 -0.09375 0.640625q-0.09375 0.28125 -0.296875 0.484375q-0.203125 0.234375 -0.546875 0.375q-0.34375 0.125 -0.8125 0.125l-1.171875 0z" fill-rule="nonzero"/><path fill="#000000" fill-opacity="0.0" d="m340.58267 262.7814l41.5748 0l0 41.5748l-41.5748 0z" fill-rule="evenodd"/><path stroke="#000000" stroke-width="2.0" stroke-linejoin="round" stroke-linecap="butt" d="m340.58267 262.7814l41.5748 0l0 41.5748l-41.5748 0z" fill-rule="evenodd"/><path fill="#000000" d="m353.00275 277.3963l4.609375 13.375l2.203125 0l-4.609375 -13.375l-2.203125 0zm17.58609 7.625l0 -2.9375q0 -1.203125 -0.28125 -2.109375q-0.28125 -0.90625 -0.796875 -1.53125q-0.53125 -0.609375 -1.28125 -0.921875q-0.734375 -0.3125 -1.671875 -0.3125q-0.921875 0 -1.65625 0.3125q-0.734375 0.3125 -1.25 0.921875q-0.53125 0.625 -0.8125 1.53125q-0.28125 0.90625 -0.28125 2.109375l0 2.9375q0 1.1875 0.28125 2.109375q0.296875 0.90625 0.8125 1.515625q0.515625 0.609375 1.265625 0.921875q0.75 0.3125 1.671875 0.3125q0.921875 0 1.65625 -0.3125q0.75 -0.3125 1.265625 -0.921875q0.53125 -0.609375 0.796875 -1.515625q0.28125 -0.921875 0.28125 -2.109375zm-5.65625 -1.015625q0 -0.265625 0 -0.390625q0 -0.140625 0 -0.546875l0 -1.359375q0 -0.6875 0.109375 -1.1875q0.109375 -0.5 0.328125 -0.8125q0.203125 -0.296875 0.5 -0.4375q0.296875 -0.15625 0.6875 -0.15625q0.359375 0 0.640625 0.125q0.296875 0.109375 0.484375 0.34375q0.25 0.296875 0.375 0.796875q0.140625 0.484375 0.15625 1.1875l-3.28125 2.4375zm3.28125 1.375q0 0.6875 -0.109375 1.1875q-0.09375 0.5 -0.3125 0.828125q-0.203125 0.296875 -0.515625 0.453125q-0.296875 0.140625 -0.6875 0.140625q-0.4375 0 -0.75 -0.171875q-0.3125 -0.171875 -0.515625 -0.515625q-0.171875 -0.28125 -0.28125 -0.703125q-0.09375 -0.4375 -0.109375 -1.0l3.28125 -2.4375q0 0.25 0 0.375q0 0.125 0 0.40625l0 1.4375z" fill-rule="nonzero"/><path fill="#000000" fill-opacity="0.0" d="m382.15747 262.7814l41.5748 0l0 41.5748l-41.5748 0z" fill-rule="evenodd"/><path stroke="#000000" stroke-width="2.0" stroke-linejoin="round" stroke-linecap="butt" d="m382.15747 262.7814l41.5748 0l0 41.5748l-41.5748 0z" fill-rule="evenodd"/><path fill="#000000" fill-opacity="0.0" d="m70.34646 119.097115c0 35.921257 -10.393703 53.88189 -20.787403 71.84252c-10.3937 17.960632 -20.787401 35.92125 -20.787401 71.84253" fill-rule="evenodd"/><path stroke="#000000" stroke-width="2.0" stroke-linejoin="round" stroke-linecap="butt" d="m70.34646 119.097115c0 35.921257 -10.393703 53.88189 -20.787403 71.84252c-5.19685 8.980316 -10.3937 17.960632 -14.29134 29.18602c-1.9488182 5.6127014 -3.572834 11.786667 -4.7096443 18.802536c-0.56840515 3.5079346 -1.0150108 7.2263336 -1.3195133 11.190308l-0.04814148 0.6709595" fill-rule="evenodd"/><path fill="#000000" stroke="#000000" stroke-width="2.0" stroke-linecap="butt" d="m25.888964 250.67418l2.9847221 9.185959l3.6181812 -8.955399z" fill-rule="evenodd"/><path fill="#000000" fill-opacity="0.0" d="m7.984252 262.7814l41.574802 0l0 41.5748l-41.574802 0z" fill-rule="evenodd"/><path stroke="#000000" stroke-width="2.0" stroke-linejoin="round" stroke-linecap="butt" d="m7.984252 262.7814l41.574802 0l0 41.5748l-41.574802 0z" fill-rule="evenodd"/><path fill="#000000" d="m30.595871 287.0538l0.65625 2.375l2.3125 0l-3.65625 -11.375l-1.984375 0l-3.734375 11.375l2.3125 0l0.671875 -2.375l3.421875 0zm-2.875 -1.875l1.1875 -4.1875l1.171875 4.1875l-2.359375 0z" fill-rule="nonzero"/><path fill="#000000" fill-opacity="0.0" d="m49.559055 262.7814l41.574802 0l0 41.5748l-41.574802 0z" fill-rule="evenodd"/><path stroke="#000000" stroke-width="2.0" stroke-linejoin="round" stroke-linecap="butt" d="m49.559055 262.7814l41.574802 0l0 41.5748l-41.574802 0z" fill-rule="evenodd"/><path fill="#000000" d="m66.24092 289.7088l4.484375 0q1.015625 0 1.828125 -0.21875q0.8125 -0.234375 1.390625 -0.6875q0.5625 -0.46875 0.859375 -1.140625q0.3125 -0.671875 0.3125 -1.5625q0 -0.46875 -0.125 -0.90625q-0.125 -0.4375 -0.375 -0.8125q-0.25 -0.34375 -0.609375 -0.59375q-0.359375 -0.265625 -0.96875 -0.4375l0 -0.015625q0.3125 -0.109375 0.5625 -0.28125q0.265625 -0.171875 0.46875 -0.375q0.375 -0.375 0.5625 -0.859375q0.1875 -0.5 0.203125 -1.0625q0 -0.859375 -0.328125 -1.484375q-0.3125 -0.640625 -0.890625 -1.0625q-0.578125 -0.40625 -1.40625 -0.609375q-0.828125 -0.203125 -1.828125 -0.203125l-4.140625 0l0 12.3125zm2.390625 -5.4375l2.203125 0q0.5 0.015625 0.859375 0.140625q0.375 0.125 0.609375 0.359375q0.21875 0.234375 0.328125 0.5625q0.109375 0.328125 0.109375 0.75q0 0.390625 -0.140625 0.71875q-0.140625 0.3125 -0.40625 0.546875q-0.25 0.203125 -0.625 0.328125q-0.359375 0.109375 -0.828125 0.109375l-2.109375 0l0 -3.515625zm0 -1.71875l0 -3.21875l1.75 0q0.578125 0 1.0 0.125q0.4375 0.109375 0.6875 0.375q0.1875 0.1875 0.28125 0.46875q0.109375 0.28125 0.109375 0.65625q0 0.34375 -0.125 0.625q-0.109375 0.28125 -0.3125 0.46875q-0.265625 0.25 -0.6875 0.375q-0.40625 0.125 -0.9375 0.125l-1.765625 0z" fill-rule="nonzero"/><path fill="#000000" fill-opacity="0.0" d="m91.13386 262.7814l41.574806 0l0 41.5748l-41.574806 0z" fill-rule="evenodd"/><path stroke="#000000" stroke-width="2.0" stroke-linejoin="round" stroke-linecap="butt" d="m91.13386 262.7814l41.574806 0l0 41.5748l-41.574806 0z" fill-rule="evenodd"/><path fill="#000000" d="m113.54235 289.4288l0 -11.375l-0.109375 0l-4.953125 1.78125l0 1.890625l2.875 -1.03125l0 8.734375l2.1875 0z" fill-rule="nonzero"/><path fill="#000000" fill-opacity="0.0" d="m132.70866 262.7814l41.5748 0l0 41.5748l-41.5748 0z" fill-rule="evenodd"/><path stroke="#000000" stroke-width="2.0" stroke-linejoin="round" stroke-linecap="butt" d="m132.70866 262.7814l41.5748 0l0 41.5748l-41.5748 0z" fill-rule="evenodd"/><path fill="#000000" d="m157.24216 289.4288l0 -1.75l-5.0 0l2.140625 -2.265625q0.5625 -0.5625 1.015625 -1.078125q0.453125 -0.53125 0.78125 -1.03125q0.3125 -0.5 0.484375 -1.0q0.1875 -0.515625 0.1875 -1.078125q0 -0.75 -0.234375 -1.359375q-0.234375 -0.609375 -0.6875 -1.046875q-0.453125 -0.4375 -1.125 -0.671875q-0.65625 -0.25 -1.53125 -0.25q-0.90625 0 -1.65625 0.296875q-0.734375 0.28125 -1.265625 0.796875q-0.53125 0.5 -0.828125 1.1875q-0.28125 0.671875 -0.28125 1.421875l2.1875 0q0 -0.453125 0.109375 -0.8125q0.125 -0.359375 0.34375 -0.609375q0.21875 -0.234375 0.546875 -0.34375q0.34375 -0.125 0.78125 -0.125q0.328125 0 0.609375 0.109375q0.28125 0.109375 0.484375 0.3125q0.1875 0.203125 0.296875 0.5q0.109375 0.296875 0.109375 0.6875q0 0.25 -0.078125 0.53125q-0.078125 0.265625 -0.265625 0.578125q-0.1875 0.328125 -0.484375 0.71875q-0.296875 0.375 -0.71875 0.84375l-3.6875 3.953125l0 1.484375l7.765625 0z" fill-rule="nonzero"/><path fill="#000000" fill-opacity="0.0" d="m174.28346 262.7814l41.5748 0l0 41.5748l-41.5748 0z" fill-rule="evenodd"/><path stroke="#000000" stroke-width="2.0" stroke-linejoin="round" stroke-linecap="butt" d="m174.28346 262.7814l41.5748 0l0 41.5748l-41.5748 0z" fill-rule="evenodd"/><path fill="#000000" d="m193.56696 282.78818l0 1.6875l1.171875 0q0.453125 0 0.796875 0.109375q0.359375 0.09375 0.625 0.296875q0.25 0.21875 0.375 0.546875q0.140625 0.328125 0.140625 0.78125q0 0.375 -0.125 0.671875q-0.109375 0.296875 -0.328125 0.5q-0.21875 0.21875 -0.5625 0.34375q-0.328125 0.109375 -0.75 0.109375q-0.375 0 -0.6875 -0.109375q-0.3125 -0.109375 -0.546875 -0.3125q-0.234375 -0.203125 -0.359375 -0.46875q-0.125 -0.28125 -0.125 -0.609375l-2.171875 0q0 0.828125 0.328125 1.4375q0.328125 0.609375 0.859375 1.0q0.546875 0.40625 1.234375 0.609375q0.6875 0.203125 1.421875 0.203125q0.84375 0 1.5625 -0.21875q0.734375 -0.234375 1.265625 -0.65625q0.53125 -0.421875 0.828125 -1.046875q0.3125 -0.625 0.3125 -1.421875q0 -0.453125 -0.109375 -0.859375q-0.109375 -0.40625 -0.328125 -0.75q-0.234375 -0.34375 -0.578125 -0.609375q-0.34375 -0.265625 -0.828125 -0.4375q0.40625 -0.1875 0.71875 -0.453125q0.3125 -0.28125 0.53125 -0.59375q0.203125 -0.328125 0.3125 -0.671875q0.109375 -0.359375 0.109375 -0.734375q0 -0.796875 -0.28125 -1.390625q-0.265625 -0.609375 -0.765625 -1.03125q-0.5 -0.40625 -1.203125 -0.609375q-0.703125 -0.203125 -1.546875 -0.203125q-0.78125 0 -1.46875 0.234375q-0.671875 0.21875 -1.171875 0.625q-0.5 0.40625 -0.78125 0.984375q-0.28125 0.5625 -0.28125 1.265625l2.171875 0q0 -0.3125 0.125 -0.5625q0.125 -0.25 0.34375 -0.4375q0.203125 -0.171875 0.484375 -0.265625q0.296875 -0.09375 0.625 -0.09375q0.390625 0 0.6875 0.109375q0.3125 0.109375 0.5 0.3125q0.203125 0.203125 0.296875 0.484375q0.09375 0.265625 0.09375 0.609375q0 0.34375 -0.09375 0.640625q-0.09375 0.28125 -0.296875 0.484375q-0.203125 0.234375 -0.546875 0.375q-0.34375 0.125 -0.8125 0.125l-1.171875 0z" fill-rule="nonzero"/><path fill="#000000" fill-opacity="0.0" d="m215.85826 262.7814l41.574814 0l0 41.5748l-41.574814 0z" fill-rule="evenodd"/><path stroke="#000000" stroke-width="2.0" stroke-linejoin="round" stroke-linecap="butt" d="m215.85826 262.7814l41.574814 0l0 41.5748l-41.574814 0z" fill-rule="evenodd"/><path fill="#000000" d="m240.76677 285.8663l-2.1875 0q-0.03125 0.515625 -0.171875 0.890625q-0.140625 0.359375 -0.390625 0.59375q-0.234375 0.234375 -0.578125 0.34375q-0.34375 0.109375 -0.78125 0.109375q-0.3125 0 -0.578125 -0.078125q-0.265625 -0.078125 -0.46875 -0.234375q-0.203125 -0.140625 -0.359375 -0.34375q-0.140625 -0.21875 -0.25 -0.484375q-0.15625 -0.40625 -0.234375 -0.9375q-0.078125 -0.53125 -0.078125 -1.21875l0 -1.546875q0 -0.5 0.046875 -0.921875q0.046875 -0.4375 0.15625 -0.796875q0.125 -0.46875 0.34375 -0.8125q0.234375 -0.34375 0.546875 -0.53125q0.1875 -0.109375 0.40625 -0.15625q0.234375 -0.0625 0.484375 -0.0625q0.484375 0 0.828125 0.125q0.359375 0.125 0.59375 0.375q0.21875 0.265625 0.34375 0.65625q0.125 0.375 0.15625 0.875l2.1875 0q-0.078125 -0.890625 -0.375 -1.59375q-0.296875 -0.71875 -0.8125 -1.203125q-0.515625 -0.5 -1.25 -0.765625q-0.734375 -0.265625 -1.671875 -0.265625q-0.625 0 -1.1875 0.171875q-0.546875 0.15625 -1.0 0.453125q-0.515625 0.34375 -0.921875 0.859375q-0.40625 0.5 -0.65625 1.15625q-0.21875 0.53125 -0.328125 1.15625q-0.109375 0.609375 -0.109375 1.296875l0 1.53125q0 0.734375 0.109375 1.390625q0.125 0.65625 0.359375 1.203125q0.234375 0.546875 0.5625 1.0q0.34375 0.453125 0.78125 0.78125q0.484375 0.34375 1.078125 0.53125q0.59375 0.1875 1.296875 0.1875q0.890625 0 1.625 -0.265625q0.734375 -0.265625 1.265625 -0.75q0.53125 -0.484375 0.84375 -1.171875q0.328125 -0.6875 0.375 -1.546875z" fill-rule="nonzero"/><path fill="#000000" fill-opacity="0.0" d="m257.43307 262.7814l41.5748 0l0 41.5748l-41.5748 0z" fill-rule="evenodd"/><path stroke="#000000" stroke-width="2.0" stroke-linejoin="round" stroke-linecap="butt" d="m257.43307 262.7814l41.5748 0l0 41.5748l-41.5748 0z" fill-rule="evenodd"/><path fill="#000000" d="m274.40405 289.4288l3.046875 0q0.765625 0 1.421875 -0.1875q0.671875 -0.1875 1.234375 -0.546875q0.46875 -0.296875 0.859375 -0.734375q0.40625 -0.4375 0.703125 -0.96875q0.3125 -0.578125 0.484375 -1.28125q0.171875 -0.703125 0.171875 -1.5l0 -0.9375q0 -0.8125 -0.1875 -1.53125q-0.171875 -0.734375 -0.515625 -1.34375q-0.28125 -0.484375 -0.671875 -0.90625q-0.390625 -0.421875 -0.875 -0.703125q-0.5625 -0.359375 -1.25 -0.546875q-0.6875 -0.1875 -1.484375 -0.1875l-2.9375 0l0 11.375zm2.203125 -9.59375l0.734375 0q0.40625 0 0.734375 0.09375q0.34375 0.078125 0.625 0.25q0.375 0.21875 0.640625 0.5625q0.28125 0.34375 0.453125 0.78125q0.140625 0.359375 0.21875 0.8125q0.078125 0.4375 0.078125 0.921875l0 0.953125q0 0.53125 -0.078125 0.984375q-0.078125 0.4375 -0.21875 0.8125q-0.171875 0.421875 -0.40625 0.734375q-0.234375 0.3125 -0.53125 0.515625q-0.296875 0.203125 -0.65625 0.3125q-0.34375 0.09375 -0.75 0.09375l-0.84375 0l0 -7.828125z" fill-rule="nonzero"/><path fill="#000000" fill-opacity="0.0" d="m299.00787 262.7814l41.5748 0l0 41.5748l-41.5748 0z" fill-rule="evenodd"/><path stroke="#000000" stroke-width="2.0" stroke-linejoin="round" stroke-linecap="butt" d="m299.00787 262.7814l41.5748 0l0 41.5748l-41.5748 0z" fill-rule="evenodd"/><path fill="#000000" d="m323.28348 284.31818l0 -1.890625l-5.0625 0l0 -3.09375l5.890625 0l0 -1.9375l-8.265625 0l0 12.3125l8.296875 0l0 -1.921875l-5.921875 0l0 -3.46875l5.0625 0z" fill-rule="nonzero"/><path fill="#000000" fill-opacity="0.0" d="m124.43307 227.46063c0 8.830124 -3.1259842 13.246857 -6.2519684 17.660248c-3.1259842 4.413391 -6.2519684 8.823425 -6.2519684 17.64685" fill-rule="evenodd"/><path stroke="#000000" stroke-width="2.0" stroke-linejoin="round" stroke-linecap="butt" d="m124.43307 227.46063c0 8.830139 -3.1259842 13.246857 -6.2519684 17.660248c-0.78149414 1.1033478 -1.5629883 2.206482 -2.295639 3.378418c-0.36632538 0.5859833 -0.7204437 1.189148 -1.0562515 1.8181458c-0.08394623 0.15725708 -0.16674805 0.31610107 -0.2483139 0.47673035l-0.120414734 0.24357605" fill-rule="evenodd"/><path fill="#000000" stroke="#000000" stroke-width="2.0" stroke-linecap="butt" d="m111.231346 250.3409l1.3145523 9.568802l5.1437073 -8.17511z" fill-rule="evenodd"/><path fill="#000000" fill-opacity="0.0" d="m111.92126 119.097115c0 17.34925 41.574806 16.737862 83.149605 34.698494c41.574814 17.960632 83.1496 54.49327 83.1496 108.98656" fill-rule="evenodd"/><path stroke="#000000" stroke-width="2.0" stroke-linejoin="round" stroke-linecap="butt" d="m111.92126 119.097115c0 17.34925 41.574806 16.737877 83.149605 34.698494c20.7874 8.980316 41.574814 22.603622 57.16536 40.793533c7.795273 9.094955 14.291336 19.331543 18.838577 30.700226c2.2736206 5.6843414 4.0600586 11.651718 5.2780457 17.900894c0.3045044 1.5623016 0.5734863 3.1422272 0.8056946 4.739731c0.11605835 0.7987671 0.22296143 1.6019135 0.3204956 2.4094543l0.05303955 0.46247864" fill-rule="evenodd"/><path fill="#000000" stroke="#000000" stroke-width="2.0" stroke-linecap="butt" d="m274.23404 250.99142l3.818695 8.871735l2.7773438 -9.250748z" fill-rule="evenodd"/><path fill="#000000" fill-opacity="0.0" d="m215.85826 77.52231l41.574814 0l0 41.574806l-41.574814 0z" fill-rule="evenodd"/><path stroke="#000000" stroke-width="2.0" stroke-linejoin="round" stroke-linecap="butt" d="m215.85826 77.52231l41.574814 0l0 41.574806l-41.574814 0z" fill-rule="evenodd"/><path fill="#000000" d="m228.91911 92.79471l4.265625 12.359375l2.03125 0l-4.265625 -12.359375l-2.03125 0zm16.242188 7.046875l0 -2.71875q0 -1.109375 -0.265625 -1.9375q-0.25 -0.84375 -0.734375 -1.421875q-0.484375 -0.5625 -1.171875 -0.84375q-0.6875 -0.296875 -1.546875 -0.296875q-0.84375 0 -1.53125 0.296875q-0.6875 0.28125 -1.15625 0.84375q-0.484375 0.578125 -0.75 1.421875q-0.25 0.828125 -0.25 1.9375l0 2.71875q0 1.09375 0.25 1.9375q0.265625 0.84375 0.75 1.40625q0.484375 0.5625 1.171875 0.859375q0.6875 0.296875 1.53125 0.296875q0.859375 0 1.546875 -0.296875q0.6875 -0.296875 1.171875 -0.859375q0.46875 -0.5625 0.71875 -1.40625q0.265625 -0.84375 0.265625 -1.9375zm-5.21875 -0.9375q0 -0.25 0 -0.375q0 -0.125 0 -0.5l0 -1.25q0 -0.640625 0.09375 -1.09375q0.09375 -0.46875 0.296875 -0.75q0.1875 -0.28125 0.46875 -0.40625q0.28125 -0.140625 0.640625 -0.140625q0.328125 0 0.59375 0.109375q0.265625 0.09375 0.4375 0.3125q0.234375 0.28125 0.359375 0.734375q0.125 0.453125 0.140625 1.09375l-3.03125 2.265625zm3.03125 1.265625q0 0.625 -0.109375 1.09375q-0.09375 0.46875 -0.28125 0.765625q-0.1875 0.28125 -0.46875 0.421875q-0.28125 0.125 -0.65625 0.125q-0.390625 0 -0.6875 -0.15625q-0.28125 -0.15625 -0.46875 -0.46875q-0.171875 -0.265625 -0.265625 -0.65625q-0.078125 -0.40625 -0.09375 -0.921875l3.03125 -2.25q0 0.21875 0 0.34375q0 0.125 0 0.375l0 1.328125z" fill-rule="nonzero"/><path fill="#000000" fill-opacity="0.0" d="m186.79527 186.15186l41.5748 0l0 41.5748l-41.5748 0z" fill-rule="evenodd"/><path stroke="#000000" stroke-width="2.0" stroke-linejoin="round" stroke-linecap="butt" d="m186.79527 186.15186l41.5748 0l0 41.5748l-41.5748 0z" fill-rule="evenodd"/><path fill="#000000" d="m199.85611 201.42426l4.265625 12.359375l2.03125 0l-4.265625 -12.359375l-2.03125 0zm16.242188 7.046875l0 -2.71875q0 -1.109375 -0.265625 -1.9375q-0.25 -0.84375 -0.734375 -1.421875q-0.484375 -0.5625 -1.171875 -0.84375q-0.6875 -0.296875 -1.546875 -0.296875q-0.84375 0 -1.53125 0.296875q-0.6875 0.28125 -1.15625 0.84375q-0.484375 0.578125 -0.75 1.421875q-0.25 0.828125 -0.25 1.9375l0 2.71875q0 1.09375 0.25 1.9375q0.265625 0.84375 0.75 1.40625q0.484375 0.5625 1.171875 0.859375q0.6875 0.296875 1.53125 0.296875q0.859375 0 1.546875 -0.296875q0.6875 -0.296875 1.171875 -0.859375q0.46875 -0.5625 0.71875 -1.40625q0.265625 -0.84375 0.265625 -1.9375zm-5.21875 -0.9375q0 -0.25 0 -0.375q0 -0.125 0 -0.5l0 -1.25q0 -0.640625 0.09375 -1.09375q0.09375 -0.46875 0.296875 -0.75q0.1875 -0.28125 0.46875 -0.40625q0.28125 -0.140625 0.640625 -0.140625q0.328125 0 0.59375 0.109375q0.265625 0.09375 0.4375 0.3125q0.234375 0.28125 0.359375 0.734375q0.125 0.453125 0.140625 1.09375l-3.03125 2.265625zm3.03125 1.265625q0 0.625 -0.109375 1.09375q-0.09375 0.46875 -0.28125 0.765625q-0.1875 0.28125 -0.46875 0.421875q-0.28125 0.125 -0.65625 0.125q-0.390625 0 -0.6875 -0.15625q-0.28125 -0.15625 -0.46875 -0.46875q-0.171875 -0.265625 -0.265625 -0.65625q-0.078125 -0.40625 -0.09375 -0.921875l3.03125 -2.25q0 0.21875 0 0.34375q0 0.125 0 0.375l0 1.328125z" fill-rule="nonzero"/><path fill="#000000" fill-opacity="0.0" d="m7.984252 6.9160104l457.5433 0l0 64.62992l-457.5433 0z" fill-rule="evenodd"/><path fill="#000000" d="m22.765501 32.64851q-0.796875 0 -1.328125 -0.3125q-0.53125 -0.3125 -0.84375 -0.8281269q-0.328125 -0.5 -0.46875 -1.125q-0.140625 -0.640625 -0.140625 -1.28125l0 -0.390625q0 -0.625 0.140625 -1.25q0.140625 -0.640625 0.46875 -1.15625q0.328125 -0.5 0.859375 -0.8125q0.53125 -0.3125 1.3125 -0.3125q0.515625 0 0.953125 0.171875q0.4375 0.171875 0.765625 0.484375q0.3125 0.296875 0.5 0.6875q0.1875 0.390625 0.203125 0.84375l1.59375 0q0 -0.75 -0.3125 -1.40625q-0.296875 -0.65625 -0.828125 -1.140625q-0.53125 -0.46875 -1.265625 -0.734375q-0.734375 -0.28125 -1.609375 -0.28125q-1.109375 0 -1.953125 0.40625q-0.84375 0.390625 -1.390625 1.0625q-0.5625 0.6875 -0.859375 1.578125q-0.28125 0.890625 -0.28125 1.859375l0 0.390625q0 0.984375 0.28125 1.875q0.296875 0.875 0.859375 1.5625019q0.546875 0.671875 1.390625 1.078125q0.84375 0.40625 1.953125 0.40625q0.78125 0 1.5 -0.265625q0.71875 -0.28125 1.28125 -0.734375q0.5625 -0.4375 0.890625 -1.0312519q0.328125 -0.609375 0.34375 -1.265625l-1.59375 0q-0.015625 0.40625 -0.21875 0.765625q-0.203125 0.34375 -0.546875 0.6093769q-0.328125 0.265625 -0.765625 0.40625q-0.4375 0.140625 -0.890625 0.140625zm8.679947 -7.203127l0 -5.609375l-1.6875 0l0 14.000002l1.6875 0l0 -7.156252q0.1875 -0.296875 0.421875 -0.53125q0.2343769 -0.25 0.5000019 -0.421875q0.34375 -0.25 0.75 -0.375q0.421875 -0.125 0.875 -0.125q0.5625 -0.015625 0.984375 0.15625q0.421875 0.15625 0.703125 0.46875q0.265625 0.296875 0.40625 0.734375q0.140625 0.4375 0.140625 1.03125l0 6.218752l1.6875 0l0 -6.203127q0 -1.0 -0.25 -1.71875q-0.234375 -0.71875 -0.6875 -1.203125q-0.4375 -0.46875 -1.078125 -0.6875q-0.625 -0.21875 -1.40625 -0.21875q-0.59375 0 -1.125 0.171875q-0.515625 0.15625 -0.953125 0.484375q-0.265625 0.1875 -0.5156269 0.4375q-0.25 0.25 -0.453125 0.546875zm15.992449 8.390627l1.75 0l0 -0.140625q-0.15625 -0.421875 -0.25 -0.96875q-0.09375 -0.546875 -0.09375 -1.0468769l0 -4.578125q0 -0.828125 -0.296875 -1.4375q-0.296875 -0.625 -0.8125 -1.046875q-0.53125 -0.40625 -1.25 -0.609375q-0.71875 -0.203125 -1.5625 -0.203125q-0.921875 0 -1.65625 0.25q-0.71875 0.25 -1.21875 0.65625q-0.5 0.421875 -0.78125 0.953125q-0.265625 0.515625 -0.265625 1.046875l1.6875 0q0 -0.3125 0.140625 -0.59375q0.15625 -0.28125 0.4375 -0.5q0.265625 -0.203125 0.65625 -0.328125q0.40625 -0.140625 0.90625 -0.140625q0.546875 0 0.96875 0.140625q0.4375 0.140625 0.734375 0.390625q0.296875 0.25 0.453125 0.609375q0.171875 0.34375 0.171875 0.796875l0 0.78125l-1.828125 0q-1.03125 0 -1.875 0.203125q-0.828125 0.1875 -1.421875 0.59375q-0.59375 0.40625 -0.921875 1.015625q-0.3125 0.609375 -0.3125 1.421875q0 0.625 0.234375 1.1562519q0.25 0.53125 0.6875 0.90625q0.4375 0.40625 1.0625 0.640625q0.640625 0.21875 1.4375 0.21875q0.46875 0 0.890625 -0.109375q0.4375 -0.09375 0.828125 -0.265625q0.375 -0.171875 0.6875 -0.390625q0.3125 -0.234375 0.5625 -0.5q0.03125 0.3125 0.09375 0.609375q0.0625 0.28125 0.15625 0.46875zm-2.984375 -1.28125q-0.484375 0 -0.859375 -0.125q-0.375 -0.140625 -0.625 -0.359375q-0.234375 -0.2187519 -0.359375 -0.5312519q-0.125 -0.3125 -0.125 -0.671875q0 -0.390625 0.140625 -0.6875q0.140625 -0.296875 0.40625 -0.515625q0.390625 -0.3125 1.03125 -0.453125q0.65625 -0.15625 1.53125 -0.15625l1.5625 0l0 2.0q-0.140625 0.28125 -0.40625 0.5625q-0.25 0.265625 -0.59375 0.4687519q-0.34375 0.203125 -0.78125 0.34375q-0.421875 0.125 -0.921875 0.125zm14.164322 -8.750002q-1.078125 0 -1.921875 0.46875q-0.84375 0.46875 -1.4375 1.265625l-0.015625 -0.234375l-0.078125 -1.328125l-1.59375 0l0 9.859377l1.6875 0l0 -6.328127q0.171875 -0.453125 0.421875 -0.8125q0.25 -0.375 0.578125 -0.625q0.375 -0.296875 0.875 -0.4375q0.5 -0.15625 1.125 -0.15625q0.484375 0 0.921875 0.046875q0.453125 0.046875 0.9375 0.15625l0.234375 -1.640625q-0.265625 -0.109375 -0.765625 -0.171875q-0.5 -0.0625 -0.96875 -0.0625zm24.281769 5.21875l0 -0.203125q0 -0.765625 -0.125 -1.453125q-0.125 -0.703125 -0.375 -1.28125q-0.234375 -0.515625 -0.546875 -0.921875q-0.3125 -0.421875 -0.703125 -0.703125q-0.4375 -0.3125 -0.984375 -0.484375q-0.53125 -0.171875 -1.15625 -0.171875q-0.515625 0 -0.953125 0.09375q-0.4375 0.09375 -0.796875 0.296875q-0.296875 0.15625 -0.5625 0.375q-0.25 0.203125 -0.453125 0.46875l0 -5.203125l-1.6875 0l0 14.000002l1.546875 0l0.078125 -1.125q0.171875 0.21875 0.34375 0.390625q0.1875 0.171875 0.390625 0.3125q0.421875 0.296875 0.9375 0.453125q0.53125 0.15625 1.171875 0.15625q0.546875 0 1.015625 -0.140625q0.484375 -0.140625 0.890625 -0.390625q0.5625 -0.34375 0.953125 -0.890625q0.390625 -0.546875 0.640625 -1.2187519q0.1875 -0.53125 0.28125 -1.125q0.09375 -0.59375 0.09375 -1.234375zm-1.6875 -0.203125l0 0.203125q0 0.4375 -0.0625 0.859375q-0.046875 0.40625 -0.15625 0.78125q-0.15625 0.46875 -0.40625 0.875q-0.234375 0.390625 -0.609375 0.6406269q-0.265625 0.203125 -0.609375 0.3125q-0.34375 0.09375 -0.765625 0.09375q-0.4375 0 -0.8125 -0.109375q-0.359375 -0.109375 -0.640625 -0.328125q-0.296875 -0.2031269 -0.53125 -0.4843769q-0.21875 -0.28125 -0.375 -0.609375l0 -4.3125q0.15625 -0.328125 0.375 -0.59375q0.21875 -0.28125 0.515625 -0.5q0.28125 -0.1875 0.640625 -0.296875q0.375 -0.125 0.8125 -0.125q0.390625 0 0.71875 0.09375q0.328125 0.09375 0.59375 0.25q0.390625 0.234375 0.65625 0.640625q0.265625 0.390625 0.421875 0.875q0.125 0.390625 0.171875 0.84375q0.0625 0.4375 0.0625 0.890625zm11.023697 5.015627l1.53125 0l0 -9.859377l-1.6875 0l0 7.078125q-0.140625 0.3125 -0.34375 0.578125q-0.203125 0.265625 -0.484375 0.4687519q-0.328125 0.234375 -0.78125 0.375q-0.4375 0.125 -1.0 0.125q-0.484375 0 -0.859375 -0.125q-0.359375 -0.140625 -0.625 -0.453125q-0.25 -0.3125019 -0.375 -0.8281269q-0.125 -0.53125 -0.125 -1.34375l0 -5.875l-1.6875 0l0 5.859375q0 1.109375 0.234375 1.890625q0.25 0.7812519 0.6875 1.2968769q0.453125 0.515625 1.078125 0.765625q0.625 0.234375 1.40625 0.234375q0.96875 0 1.703125 -0.40625q0.734375 -0.40625 1.234375 -1.140625l0.09375 1.359375zm7.211197 0l1.703125 0l0 -8.546877l3.796875 0l0 -1.3125l-3.796875 0l0 -0.6875q0 -0.625 0.15625 -1.078125q0.15625 -0.46875 0.46875 -0.765625q0.296875 -0.28125 0.734375 -0.421875q0.4375 -0.140625 1.015625 -0.140625q0.5625 0 1.0625 0.09375q0.5 0.09375 0.875 0.21875l0.1875 -1.390625q-0.234375 -0.0625 -0.46875 -0.109375q-0.21875 -0.046875 -0.453125 -0.09375q-0.34375 -0.0625 -0.703125 -0.109375q-0.34375 -0.046875 -0.703125 -0.046875q-0.875 0 -1.59375 0.25q-0.703125 0.25 -1.203125 0.734375q-0.515625 0.484375 -0.796875 1.203125q-0.28125 0.703125 -0.28125 1.65625l0 0.6875l-2.703125 0l0 1.3125l2.703125 0l0 8.546877zm11.195572 0l1.703125 0l0 -8.546877l3.796875 0l0 -1.3125l-3.796875 0l0 -0.6875q0 -0.625 0.15625 -1.078125q0.15625 -0.46875 0.46875 -0.765625q0.296875 -0.28125 0.734375 -0.421875q0.4375 -0.140625 1.015625 -0.140625q0.5625 0 1.0625 0.09375q0.5 0.09375 0.875 0.21875l0.1875 -1.390625q-0.234375 -0.0625 -0.46875 -0.109375q-0.21875 -0.046875 -0.453125 -0.09375q-0.34375 -0.0625 -0.703125 -0.109375q-0.34375 -0.046875 -0.703125 -0.046875q-0.875 0 -1.59375 0.25q-0.703125 0.25 -1.203125 0.734375q-0.515625 0.484375 -0.796875 1.203125q-0.28125 0.703125 -0.28125 1.65625l0 0.6875l-2.703125 0l0 1.3125l2.703125 0l0 8.546877zm13.039322 0.1875q1.4375 0 2.421875 -0.578125q0.984375 -0.578125 1.46875 -1.328125l-1.03125 -0.7968769q-0.46875 0.59375 -1.171875 0.9687519q-0.6875 0.359375 -1.59375 0.359375q-0.6875 0 -1.25 -0.25q-0.5625 -0.265625 -0.96875 -0.7187519q-0.390625 -0.40625 -0.609375 -0.953125q-0.21875 -0.546875 -0.28125 -1.265625l0 -0.078125l7.03125 0l0 -0.75q0 -1.03125 -0.265625 -1.90625q-0.25 -0.890625 -0.78125 -1.546875q-0.53125 -0.640625 -1.328125 -1.0q-0.796875 -0.375 -1.859375 -0.375q-0.84375 0 -1.65625 0.34375q-0.796875 0.34375 -1.4375 0.984375q-0.625 0.65625 -1.015625 1.609375q-0.375 0.9375 -0.375 2.125l0 0.390625q0 1.03125 0.34375 1.90625q0.34375 0.8750019 0.96875 1.5000019q0.609375 0.640625 1.484375 1.0q0.875 0.359375 1.90625 0.359375zm-0.21875 -8.843752q0.65625 0 1.125 0.234375q0.46875 0.234375 0.765625 0.625q0.3125 0.375 0.484375 0.90625q0.171875 0.515625 0.171875 0.984375l0 0.078125l-5.296875 0q0.09375 -0.6875 0.34375 -1.203125q0.265625 -0.53125 0.625 -0.890625q0.359375 -0.359375 0.8125 -0.546875q0.453125 -0.1875 0.96875 -0.1875zm13.523697 -1.375q-1.078125 0 -1.921875 0.46875q-0.84375 0.46875 -1.4375 1.265625l-0.015625 -0.234375l-0.078125 -1.328125l-1.59375 0l0 9.859377l1.6875 0l0 -6.328127q0.171875 -0.453125 0.421875 -0.8125q0.25 -0.375 0.578125 -0.625q0.375 -0.296875 0.875 -0.4375q0.5 -0.15625 1.125 -0.15625q0.484375 0 0.921875 0.046875q0.453125 0.046875 0.9375 0.15625l0.234375 -1.640625q-0.265625 -0.109375 -0.765625 -0.171875q-0.5 -0.0625 -0.96875 -0.0625zm10.633072 -3.75l0 -1.375l-3.609375 0l0 18.000002l3.609375 0l0 -1.390625l-2.015625 0l0 -15.234377l2.015625 0zm10.758072 13.781252l0 -13.265627l-0.125 0l-5.03125 1.9375l0 1.53125l3.46875 -1.3125l0 11.109377l1.6875 0zm13.867447 0l0 -1.375l-6.65625 0l3.5625 -3.859377q0.5 -0.546875 0.953125 -1.09375q0.453125 -0.5625 0.796875 -1.125q0.328125 -0.5625 0.53125 -1.140625q0.203125 -0.578125 0.203125 -1.171875q0 -0.796875 -0.28125 -1.46875q-0.28125 -0.671875 -0.796875 -1.15625q-0.515625 -0.5 -1.265625 -0.78125q-0.75 -0.28125 -1.6875 -0.28125q-1.03125 0 -1.828125 0.328125q-0.796875 0.328125 -1.34375 0.890625q-0.546875 0.5625 -0.84375 1.3125q-0.28125 0.734375 -0.28125 1.5625l1.6875 0q0 -0.609375 0.15625 -1.109375q0.15625 -0.515625 0.484375 -0.859375q0.328125 -0.34375 0.8125 -0.53125q0.484375 -0.203125 1.15625 -0.203125q0.546875 0 0.96875 0.1875q0.4375 0.1875 0.75 0.5q0.296875 0.328125 0.453125 0.765625q0.171875 0.421875 0.171875 0.921875q0 0.390625 -0.109375 0.78125q-0.09375 0.375 -0.328125 0.796875q-0.25 0.421875 -0.640625 0.921875q-0.390625 0.5 -0.96875 1.140625l-4.34375 4.828127l0 1.21875l8.6875 0zm5.164322 -15.156252l0 1.375l2.03125 0l0 15.234377l-2.03125 0l0 1.390625l3.625 0l0 -18.000002l-3.625 0zm12.398697 6.078125q0 0.53125 0.328125 0.90625q0.34375 0.359375 1.0 0.359375q0.640625 0 0.984375 -0.359375q0.34375 -0.375 0.34375 -0.90625q0 -0.546875 -0.34375 -0.921875q-0.328125 -0.375 -0.984375 -0.375q-0.671875 0 -1.0 0.390625q-0.328125 0.375 -0.328125 0.90625zm2.171875 8.687502l0 -1.6093769l-1.828125 0l0 1.6406269q0 0.765625 -0.1875 1.484375q-0.1875 0.71875 -0.625 1.359375l1.046875 0.578125q0.734375 -0.65625 1.15625 -1.609375q0.4375 -0.9375 0.4375 -1.84375z" fill-rule="nonzero"/><path fill="#000000" d="m18.828001 46.376633l0 1.46875l3.359375 0l0 6.9375l-3.359375 0l0 1.453125l8.265625 0l0 -1.453125l-3.21875 0l0 -8.40625l-5.046875 0zm3.140625 -2.578125q0 0.40625 0.25 0.6875q0.25 0.265625 0.765625 0.265625q0.5 0 0.75 -0.265625q0.25 -0.28125 0.25 -0.6875q0 -0.234375 -0.078125 -0.421875q-0.0625 -0.1875 -0.203125 -0.328125q-0.125 -0.109375 -0.3125 -0.171875q-0.171875 -0.078125 -0.40625 -0.078125q-0.25 0 -0.4375 0.078125q-0.171875 0.0625 -0.296875 0.171875q-0.140625 0.140625 -0.21875 0.34375q-0.0625 0.1875 -0.0625 0.40625zm7.789322 12.4375l1.6875 0l0 -7.0625q0.171875 -0.328125 0.40625 -0.59375q0.2343769 -0.265625 0.5156269 -0.453125q0.328125 -0.234375 0.71875 -0.359375q0.40625 -0.140625 0.875 -0.140625q0.546875 0 0.953125 0.125q0.421875 0.125 0.703125 0.40625q0.28125 0.296875 0.421875 0.75q0.15625 0.453125 0.15625 1.109375l0 6.21875l1.6875 0l0 -6.265625q0 -0.96875 -0.25 -1.6875q-0.234375 -0.71875 -0.6875 -1.1875q-0.4375 -0.453125 -1.078125 -0.671875q-0.625 -0.21875 -1.40625 -0.21875q-0.5625 0 -1.078125 0.171875q-0.515625 0.15625 -0.953125 0.4375q-0.296875 0.1875 -0.5625019 0.453125q-0.25 0.265625 -0.46875 0.5625l-0.125 -1.453125l-1.515625 0l0 9.859375zm17.758074 -2.609375q0 0.234375 -0.09375 0.453125q-0.09375 0.203125 -0.265625 0.375q-0.28125 0.28125 -0.78125 0.4375q-0.5 0.15625 -1.171875 0.15625q-0.4375 0 -0.875 -0.078125q-0.4375 -0.09375 -0.796875 -0.3125q-0.359375 -0.21875 -0.609375 -0.578125q-0.234375 -0.359375 -0.265625 -0.875l-1.6875 0q0 0.625 0.28125 1.21875q0.296875 0.578125 0.84375 1.015625q0.53125 0.4375 1.3125 0.71875q0.78125 0.265625 1.796875 0.265625q0.875 0 1.609375 -0.203125q0.734375 -0.21875 1.265625 -0.609375q0.53125 -0.375 0.8125 -0.90625q0.296875 -0.546875 0.296875 -1.203125q0 -0.609375 -0.265625 -1.0625q-0.25 -0.46875 -0.734375 -0.828125q-0.5 -0.34375 -1.21875 -0.59375q-0.71875 -0.25 -1.625 -0.453125q-0.6875 -0.125 -1.140625 -0.265625q-0.453125 -0.15625 -0.71875 -0.34375q-0.28125 -0.171875 -0.390625 -0.40625q-0.109375 -0.234375 -0.109375 -0.515625q0 -0.28125 0.140625 -0.546875q0.140625 -0.265625 0.40625 -0.46875q0.265625 -0.203125 0.671875 -0.3125q0.40625 -0.125 0.953125 -0.125q0.515625 0 0.921875 0.15625q0.421875 0.140625 0.71875 0.375q0.28125 0.234375 0.4375 0.546875q0.171875 0.296875 0.171875 0.625l1.6875 0q0 -0.65625 -0.28125 -1.21875q-0.265625 -0.5625 -0.78125 -0.96875q-0.515625 -0.421875 -1.25 -0.65625q-0.71875 -0.234375 -1.625 -0.234375q-0.859375 0 -1.5625 0.234375q-0.703125 0.21875 -1.21875 0.609375q-0.5 0.390625 -0.78125 0.921875q-0.28125 0.515625 -0.28125 1.109375q0 0.609375 0.265625 1.078125q0.28125 0.453125 0.78125 0.796875q0.484375 0.34375 1.171875 0.59375q0.703125 0.234375 1.5625 0.421875q0.6875 0.125 1.140625 0.296875q0.46875 0.171875 0.75 0.375q0.28125 0.203125 0.40625 0.4375q0.125 0.234375 0.125 0.546875zm8.992447 2.796875q1.4375 0 2.421875 -0.578125q0.984375 -0.578125 1.46875 -1.328125l-1.03125 -0.796875q-0.46875 0.59375 -1.171875 0.96875q-0.6875 0.359375 -1.59375 0.359375q-0.6875 0 -1.25 -0.25q-0.5625 -0.265625 -0.96875 -0.71875q-0.390625 -0.40625 -0.609375 -0.953125q-0.21875 -0.546875 -0.28125 -1.265625l0 -0.078125l7.03125 0l0 -0.75q0 -1.03125 -0.265625 -1.90625q-0.25 -0.890625 -0.78125 -1.546875q-0.53125 -0.640625 -1.328125 -1.0q-0.796875 -0.375 -1.859375 -0.375q-0.84375 0 -1.65625 0.34375q-0.796875 0.34375 -1.4375 0.984375q-0.625 0.65625 -1.015625 1.609375q-0.375 0.9375 -0.375 2.125l0 0.390625q0 1.03125 0.34375 1.90625q0.34375 0.875 0.96875 1.5q0.609375 0.640625 1.484375 1.0q0.875 0.359375 1.90625 0.359375zm-0.21875 -8.84375q0.65625 0 1.125 0.234375q0.46875 0.234375 0.765625 0.625q0.3125 0.375 0.484375 0.90625q0.171875 0.515625 0.171875 0.984375l0 0.078125l-5.296875 0q0.09375 -0.6875 0.34375 -1.203125q0.265625 -0.53125 0.625 -0.890625q0.359375 -0.359375 0.8125 -0.546875q0.453125 -0.1875 0.96875 -0.1875zm13.523697 -1.375q-1.078125 0 -1.921875 0.46875q-0.84375 0.46875 -1.4375 1.265625l-0.015625 -0.234375l-0.078125 -1.328125l-1.59375 0l0 9.859375l1.6875 0l0 -6.328125q0.171875 -0.453125 0.421875 -0.8125q0.25 -0.375 0.578125 -0.625q0.375 -0.296875 0.875 -0.4375q0.5 -0.15625 1.125 -0.15625q0.484375 0 0.921875 0.046875q0.453125 0.046875 0.9375 0.15625l0.234375 -1.640625q-0.265625 -0.109375 -0.765625 -0.171875q-0.5 -0.0625 -0.96875 -0.0625zm8.726822 -2.21875l-1.703125 0l0 2.390625l-2.578125 0l0 1.3125l2.578125 0l0 5.34375q0 0.921875 0.234375 1.5625q0.25 0.640625 0.671875 1.046875q0.421875 0.40625 0.984375 0.59375q0.578125 0.1875 1.234375 0.1875q0.390625 0 0.78125 -0.046875q0.40625 -0.03125 0.75 -0.109375q0.359375 -0.0625 0.65625 -0.15625q0.296875 -0.09375 0.515625 -0.21875l-0.234375 -1.203125q-0.15625 0.046875 -0.40625 0.09375q-0.234375 0.046875 -0.515625 0.09375q-0.28125 0.046875 -0.578125 0.078125q-0.28125 0.03125 -0.546875 0.03125q-0.375 0 -0.71875 -0.09375q-0.328125 -0.09375 -0.578125 -0.3125q-0.265625 -0.21875 -0.40625 -0.59375q-0.140625 -0.375 -0.140625 -0.953125l0 -5.34375l3.75 0l0 -1.3125l-3.75 0l0 -2.390625zm20.063019 6.859375l0 0.09375q0 1.3125 0.203125 2.46875q0.203125 1.140625 0.5625 2.109375q0.328125 0.984375 0.78125 1.78125q0.453125 0.8125 0.953125 1.4375q0.484375 0.640625 0.984375 1.078125q0.515625 0.453125 0.96875 0.703125l0.359375 -1.03125q-0.375 -0.296875 -0.75 -0.71875q-0.359375 -0.421875 -0.703125 -0.96875q-0.34375 -0.578125 -0.65625 -1.3125q-0.3125 -0.71875 -0.546875 -1.5625q-0.21875 -0.84375 -0.34375 -1.828125q-0.125 -1.0 -0.125 -2.140625l0 -0.125q0 -1.1875 0.125 -2.203125q0.140625 -1.03125 0.390625 -1.890625q0.265625 -0.953125 0.640625 -1.75q0.390625 -0.796875 0.796875 -1.390625q0.28125 -0.375 0.578125 -0.6875q0.296875 -0.3125 0.59375 -0.53125l-0.359375 -1.109375q-0.453125 0.25 -0.953125 0.703125q-0.5 0.453125 -1.0 1.078125q-0.5 0.625 -0.953125 1.4375q-0.4375 0.8125 -0.78125 1.78125q-0.359375 0.984375 -0.5625 2.140625q-0.203125 1.140625 -0.203125 2.4375zm17.883072 0.578125l0 -0.203125q0 -0.765625 -0.125 -1.453125q-0.125 -0.703125 -0.375 -1.28125q-0.234375 -0.515625 -0.546875 -0.921875q-0.3125 -0.421875 -0.703125 -0.703125q-0.4375 -0.3125 -0.984375 -0.484375q-0.53125 -0.171875 -1.15625 -0.171875q-0.515625 0 -0.953125 0.09375q-0.4375 0.09375 -0.796875 0.296875q-0.296875 0.15625 -0.5625 0.375q-0.25 0.203125 -0.453125 0.46875l0 -5.203125l-1.6875 0l0 14.0l1.546875 0l0.078125 -1.125q0.171875 0.21875 0.34375 0.390625q0.1875 0.171875 0.390625 0.3125q0.421875 0.296875 0.9375 0.453125q0.53125 0.15625 1.171875 0.15625q0.546875 0 1.015625 -0.140625q0.484375 -0.140625 0.890625 -0.390625q0.5625 -0.34375 0.953125 -0.890625q0.390625 -0.546875 0.640625 -1.21875q0.1875 -0.53125 0.28125 -1.125q0.09375 -0.59375 0.09375 -1.234375zm-1.6875 -0.203125l0 0.203125q0 0.4375 -0.0625 0.859375q-0.046875 0.40625 -0.15625 0.78125q-0.15625 0.46875 -0.40625 0.875q-0.234375 0.390625 -0.609375 0.640625q-0.265625 0.203125 -0.609375 0.3125q-0.34375 0.09375 -0.765625 0.09375q-0.4375 0 -0.8125 -0.109375q-0.359375 -0.109375 -0.640625 -0.328125q-0.296875 -0.203125 -0.53125 -0.484375q-0.21875 -0.28125 -0.375 -0.609375l0 -4.3125q0.15625 -0.328125 0.375 -0.59375q0.21875 -0.28125 0.515625 -0.5q0.28125 -0.1875 0.640625 -0.296875q0.375 -0.125 0.8125 -0.125q0.390625 0 0.71875 0.09375q0.328125 0.09375 0.59375 0.25q0.390625 0.234375 0.65625 0.640625q0.265625 0.390625 0.421875 0.875q0.125 0.390625 0.171875 0.84375q0.0625 0.4375 0.0625 0.890625zm11.023697 5.015625l1.53125 0l0 -9.859375l-1.6875 0l0 7.078125q-0.140625 0.3125 -0.34375 0.578125q-0.203125 0.265625 -0.484375 0.46875q-0.328125 0.234375 -0.78125 0.375q-0.4375 0.125 -1.0 0.125q-0.484375 0 -0.859375 -0.125q-0.359375 -0.140625 -0.625 -0.453125q-0.25 -0.3125 -0.375 -0.828125q-0.125 -0.53125 -0.125 -1.34375l0 -5.875l-1.6875 0l0 5.859375q0 1.109375 0.234375 1.890625q0.25 0.78125 0.6875 1.296875q0.453125 0.515625 1.078125 0.765625q0.625 0.234375 1.40625 0.234375q0.96875 0 1.703125 -0.40625q0.734375 -0.40625 1.234375 -1.140625l0.09375 1.359375zm7.211197 0l1.703125 0l0 -8.546875l3.796875 0l0 -1.3125l-3.796875 0l0 -0.6875q0 -0.625 0.15625 -1.078125q0.15625 -0.46875 0.46875 -0.765625q0.296875 -0.28125 0.734375 -0.421875q0.4375 -0.140625 1.015625 -0.140625q0.5625 0 1.0625 0.09375q0.5 0.09375 0.875 0.21875l0.1875 -1.390625q-0.234375 -0.0625 -0.46875 -0.109375q-0.21875 -0.046875 -0.453125 -0.09375q-0.34375 -0.0625 -0.703125 -0.109375q-0.34375 -0.046875 -0.703125 -0.046875q-0.875 0 -1.59375 0.25q-0.703125 0.25 -1.203125 0.734375q-0.515625 0.484375 -0.796875 1.203125q-0.28125 0.703125 -0.28125 1.65625l0 0.6875l-2.703125 0l0 1.3125l2.703125 0l0 8.546875zm11.195572 0l1.703125 0l0 -8.546875l3.796875 0l0 -1.3125l-3.796875 0l0 -0.6875q0 -0.625 0.15625 -1.078125q0.15625 -0.46875 0.46875 -0.765625q0.296875 -0.28125 0.734375 -0.421875q0.4375 -0.140625 1.015625 -0.140625q0.5625 0 1.0625 0.09375q0.5 0.09375 0.875 0.21875l0.1875 -1.390625q-0.234375 -0.0625 -0.46875 -0.109375q-0.21875 -0.046875 -0.453125 -0.09375q-0.34375 -0.0625 -0.703125 -0.109375q-0.34375 -0.046875 -0.703125 -0.046875q-0.875 0 -1.59375 0.25q-0.703125 0.25 -1.203125 0.734375q-0.515625 0.484375 -0.796875 1.203125q-0.28125 0.703125 -0.28125 1.65625l0 0.6875l-2.703125 0l0 1.3125l2.703125 0l0 8.546875zm13.039322 0.1875q1.4375 0 2.421875 -0.578125q0.984375 -0.578125 1.46875 -1.328125l-1.03125 -0.796875q-0.46875 0.59375 -1.171875 0.96875q-0.6875 0.359375 -1.59375 0.359375q-0.6875 0 -1.25 -0.25q-0.5625 -0.265625 -0.96875 -0.71875q-0.390625 -0.40625 -0.609375 -0.953125q-0.21875 -0.546875 -0.28125 -1.265625l0 -0.078125l7.03125 0l0 -0.75q0 -1.03125 -0.265625 -1.90625q-0.25 -0.890625 -0.78125 -1.546875q-0.53125 -0.640625 -1.328125 -1.0q-0.796875 -0.375 -1.859375 -0.375q-0.84375 0 -1.65625 0.34375q-0.796875 0.34375 -1.4375 0.984375q-0.625 0.65625 -1.015625 1.609375q-0.375 0.9375 -0.375 2.125l0 0.390625q0 1.03125 0.34375 1.90625q0.34375 0.875 0.96875 1.5q0.609375 0.640625 1.484375 1.0q0.875 0.359375 1.90625 0.359375zm-0.21875 -8.84375q0.65625 0 1.125 0.234375q0.46875 0.234375 0.765625 0.625q0.3125 0.375 0.484375 0.90625q0.171875 0.515625 0.171875 0.984375l0 0.078125l-5.296875 0q0.09375 -0.6875 0.34375 -1.203125q0.265625 -0.53125 0.625 -0.890625q0.359375 -0.359375 0.8125 -0.546875q0.453125 -0.1875 0.96875 -0.1875zm13.523697 -1.375q-1.078125 0 -1.921875 0.46875q-0.84375 0.46875 -1.4375 1.265625l-0.015625 -0.234375l-0.078125 -1.328125l-1.59375 0l0 9.859375l1.6875 0l0 -6.328125q0.171875 -0.453125 0.421875 -0.8125q0.25 -0.375 0.578125 -0.625q0.375 -0.296875 0.875 -0.4375q0.5 -0.15625 1.125 -0.15625q0.484375 0 0.921875 0.046875q0.453125 0.046875 0.9375 0.15625l0.234375 -1.640625q-0.265625 -0.109375 -0.765625 -0.171875q-0.5 -0.0625 -0.96875 -0.0625zm9.008072 9.640625l0 -1.609375l-1.828125 0l0 1.640625q0 0.765625 -0.1875 1.484375q-0.1875 0.71875 -0.625 1.359375l1.046875 0.578125q0.734375 -0.65625 1.15625 -1.609375q0.4375 -0.9375 0.4375 -1.84375zm12.383072 0.390625l0 -13.265625l-0.125 0l-5.03125 1.9375l0 1.53125l3.46875 -1.3125l0 11.109375l1.6875 0zm13.867447 0l0 -1.375l-6.65625 0l3.5625 -3.859375q0.5 -0.546875 0.953125 -1.09375q0.453125 -0.5625 0.796875 -1.125q0.328125 -0.5625 0.53125 -1.140625q0.203125 -0.578125 0.203125 -1.171875q0 -0.796875 -0.28125 -1.46875q-0.28125 -0.671875 -0.796875 -1.15625q-0.515625 -0.5 -1.265625 -0.78125q-0.75 -0.28125 -1.6875 -0.28125q-1.03125 0 -1.828125 0.328125q-0.796875 0.328125 -1.34375 0.890625q-0.546875 0.5625 -0.84375 1.3125q-0.28125 0.734375 -0.28125 1.5625l1.6875 0q0 -0.609375 0.15625 -1.109375q0.15625 -0.515625 0.484375 -0.859375q0.328125 -0.34375 0.8125 -0.53125q0.484375 -0.203125 1.15625 -0.203125q0.546875 0 0.96875 0.1875q0.4375 0.1875 0.75 0.5q0.296875 0.328125 0.453125 0.765625q0.171875 0.421875 0.171875 0.921875q0 0.390625 -0.109375 0.78125q-0.09375 0.375 -0.328125 0.796875q-0.25 0.421875 -0.640625 0.921875q-0.390625 0.5 -0.96875 1.140625l-4.34375 4.828125l0 1.21875l8.6875 0zm7.336197 -0.390625l0 -1.609375l-1.828125 0l0 1.640625q0 0.765625 -0.1875 1.484375q-0.1875 0.71875 -0.625 1.359375l1.046875 0.578125q0.734375 -0.65625 1.15625 -1.609375q0.4375 -0.9375 0.4375 -1.84375zm10.586197 -12.46875l0 -1.328125l-1.640625 0l0 1.359375q0 0.78125 -0.21875 1.46875q-0.21875 0.671875 -0.640625 1.3125l0.921875 0.65625q0.375 -0.328125 0.65625 -0.75q0.296875 -0.421875 0.515625 -0.875q0.203125 -0.46875 0.296875 -0.9375q0.109375 -0.46875 0.109375 -0.90625zm3.015625 0l0 -1.328125l-1.640625 0l0 1.359375q0 0.78125 -0.21875 1.46875q-0.21875 0.671875 -0.640625 1.3125l0.921875 0.65625q0.375 -0.328125 0.65625 -0.75q0.296875 -0.421875 0.515625 -0.875q0.203125 -0.46875 0.296875 -0.9375q0.109375 -0.46875 0.109375 -0.90625zm10.851822 9.421875l1.046875 3.4375l1.671875 0l-4.203125 -13.265625l-1.421875 0l-4.28125 13.265625l1.6875 0l1.0625 -3.4375l4.4375 0zm-3.984375 -1.46875l1.78125 -5.75l1.75 5.75l-3.53125 0zm8.820572 4.90625l4.25 0q0.84375 -0.015625 1.640625 -0.265625q0.796875 -0.25 1.40625 -0.734375q0.609375 -0.46875 0.96875 -1.171875q0.375 -0.71875 0.359375 -1.65625q0 -0.59375 -0.171875 -1.09375q-0.171875 -0.515625 -0.5 -0.921875q-0.296875 -0.375 -0.765625 -0.6875q-0.453125 -0.3125 -0.96875 -0.421875l0 -0.03125q0.484375 -0.21875 0.828125 -0.453125q0.34375 -0.234375 0.625 -0.578125q0.28125 -0.34375 0.4375 -0.765625q0.15625 -0.421875 0.171875 -0.953125q0 -0.921875 -0.359375 -1.578125q-0.359375 -0.671875 -0.96875 -1.109375q-0.625 -0.421875 -1.40625 -0.625q-0.78125 -0.203125 -1.59375 -0.21875l-3.953125 0l0 13.265625zm1.703125 -6.203125l2.6875 0q0.53125 0.015625 1.0 0.1875q0.46875 0.15625 0.8125 0.453125q0.34375 0.3125 0.53125 0.75q0.203125 0.4375 0.1875 1.0q0 0.5625 -0.21875 1.0q-0.203125 0.4375 -0.5625 0.734375q-0.375 0.296875 -0.84375 0.46875q-0.46875 0.171875 -1.0 0.171875l-2.59375 0l0 -4.765625zm0 -1.40625l0 -4.21875l2.296875 0q0.5 0.015625 0.96875 0.140625q0.46875 0.109375 0.828125 0.359375q0.359375 0.25 0.5625 0.640625q0.21875 0.390625 0.21875 0.953125q0 0.515625 -0.21875 0.90625q-0.21875 0.390625 -0.578125 0.65625q-0.34375 0.28125 -0.8125 0.421875q-0.453125 0.140625 -0.921875 0.140625l-2.34375 0zm18.101807 3.625l-1.6875 0q-0.078125 0.59375 -0.28125 1.109375q-0.203125 0.515625 -0.53125 0.890625q-0.34375 0.375 -0.828125 0.59375q-0.484375 0.203125 -1.15625 0.203125q-0.609375 0 -1.0625 -0.1875q-0.453125 -0.203125 -0.79685974 -0.546875q-0.328125 -0.34375 -0.546875 -0.78125q-0.21875 -0.453125 -0.359375 -0.953125q-0.140625 -0.5 -0.203125 -1.015625q-0.046875 -0.53125 -0.046875 -1.03125l0 -1.859375q0 -0.5 0.046875 -1.015625q0.0625 -0.53125 0.203125 -1.03125q0.140625 -0.5 0.359375 -0.9375q0.21875 -0.453125 0.5625 -0.796875q0.32810974 -0.328125 0.78123474 -0.515625q0.46875 -0.203125 1.0625 -0.203125q0.671875 0 1.15625 0.21875q0.484375 0.21875 0.828125 0.609375q0.328125 0.390625 0.53125 0.921875q0.203125 0.515625 0.28125 1.109375l1.6875 0q-0.109375 -0.9375 -0.453125 -1.71875q-0.34375 -0.796875 -0.90625 -1.359375q-0.5625 -0.546875 -1.34375 -0.859375q-0.78125 -0.3125 -1.78125 -0.3125q-0.828125 0 -1.5 0.234375q-0.65623474 0.234375 -1.1718597 0.640625q-0.53125 0.421875 -0.90625 0.984375q-0.375 0.546875 -0.625 1.203125q-0.25 0.65625 -0.375 1.375q-0.125 0.71875 -0.140625 1.46875l0 1.84375q0.015625 0.734375 0.140625 1.453125q0.125 0.71875 0.375 1.375q0.25 0.65625 0.625 1.21875q0.375 0.546875 0.90625 0.96875q0.515625 0.40625 1.1874847 0.640625q0.671875 0.234375 1.484375 0.234375q0.96875 0 1.734375 -0.296875q0.78125 -0.3125 1.359375 -0.875q0.5625 -0.546875 0.921875 -1.3125q0.359375 -0.765625 0.46875 -1.6875zm2.4299622 3.984375l3.078125 0q0.953125 -0.015625 1.78125 -0.234375q0.828125 -0.21875 1.484375 -0.625q0.609375 -0.390625 1.109375 -0.9375q0.5 -0.5625 0.828125 -1.25q0.328125 -0.65625 0.484375 -1.4375q0.171875 -0.78125 0.171875 -1.65625l0 -0.96875q0 -0.921875 -0.1875 -1.71875q-0.171875 -0.796875 -0.515625 -1.46875q-0.359375 -0.796875 -0.984375 -1.40625q-0.625 -0.609375 -1.4375 -0.984375q-0.59375 -0.265625 -1.28125 -0.40625q-0.6875 -0.15625 -1.453125 -0.171875l-3.078125 0l0 13.265625zm1.71875 -11.875l1.359375 0q0.625 0 1.15625 0.140625q0.53125 0.125 0.953125 0.359375q0.609375 0.328125 1.015625 0.84375q0.421875 0.515625 0.65625 1.15625q0.203125 0.484375 0.296875 1.0625q0.09375 0.5625 0.09375 1.1875l0 0.984375q0 0.609375 -0.09375 1.171875q-0.09375 0.5625 -0.265625 1.046875q-0.21875 0.59375 -0.578125 1.078125q-0.359375 0.46875 -0.84375 0.796875q-0.46875 0.3125 -1.078125 0.484375q-0.59375 0.171875 -1.3125 0.1875l-1.359375 0l0 -10.5zm16.945587 5.75l0 -1.4375l-5.53125 0l0 -4.265625l6.375 0l0 -1.4375l-8.0625 0l0 13.265625l8.140625 0l0 -1.4375l-6.453125 0l0 -4.6875l5.53125 0zm7.5705566 -6.734375l0 -1.328125l-1.640625 0l0 1.359375q0 0.78125 -0.21875 1.46875q-0.21875 0.671875 -0.640625 1.3125l0.921875 0.65625q0.375 -0.328125 0.65625 -0.75q0.296875 -0.421875 0.515625 -0.875q0.203125 -0.46875 0.296875 -0.9375q0.109375 -0.46875 0.109375 -0.90625zm3.015625 0l0 -1.328125l-1.640625 0l0 1.359375q0 0.78125 -0.21875 1.46875q-0.21875 0.671875 -0.640625 1.3125l0.921875 0.65625q0.375 -0.328125 0.65625 -0.75q0.296875 -0.421875 0.515625 -0.875q0.203125 -0.46875 0.296875 -0.9375q0.109375 -0.46875 0.109375 -0.90625zm8.789307 12.46875l0 -1.609375l-1.828125 0l0 1.640625q0 0.765625 -0.1875 1.484375q-0.1875 0.71875 -0.625 1.359375l1.046875 0.578125q0.734375 -0.65625 1.15625 -1.609375q0.4375 -0.9375 0.4375 -1.84375zm26.250488 0.390625l0 -1.375l-6.65625 0l3.5625 -3.859375q0.5 -0.546875 0.953125 -1.09375q0.453125 -0.5625 0.796875 -1.125q0.328125 -0.5625 0.53125 -1.140625q0.203125 -0.578125 0.203125 -1.171875q0 -0.796875 -0.28125 -1.46875q-0.28125 -0.671875 -0.796875 -1.15625q-0.515625 -0.5 -1.265625 -0.78125q-0.75 -0.28125 -1.6875 -0.28125q-1.03125 0 -1.828125 0.328125q-0.796875 0.328125 -1.34375 0.890625q-0.546875 0.5625 -0.84375 1.3125q-0.28125 0.734375 -0.28125 1.5625l1.6875 0q0 -0.609375 0.15625 -1.109375q0.15625 -0.515625 0.484375 -0.859375q0.328125 -0.34375 0.8125 -0.53125q0.484375 -0.203125 1.15625 -0.203125q0.546875 0 0.96875 0.1875q0.4375 0.1875 0.75 0.5q0.296875 0.328125 0.453125 0.765625q0.171875 0.421875 0.171875 0.921875q0 0.390625 -0.109375 0.78125q-0.09375 0.375 -0.328125 0.796875q-0.25 0.421875 -0.640625 0.921875q-0.390625 0.5 -0.96875 1.140625l-4.34375 4.828125l0 1.21875l8.6875 0zm7.3361816 -0.390625l0 -1.609375l-1.828125 0l0 1.640625q0 0.765625 -0.1875 1.484375q-0.1875 0.71875 -0.625 1.359375l1.046875 0.578125q0.734375 -0.65625 1.15625 -1.609375q0.4375 -0.9375 0.4375 -1.84375zm19.531738 -10.40625l0 1.328125l1.640625 0l0 -1.359375q0 -0.78125 0.21875 -1.453125q0.21875 -0.671875 0.640625 -1.3125l-0.921875 -0.65625q-0.375 0.328125 -0.671875 0.75q-0.296875 0.40625 -0.484375 0.859375q-0.21875 0.46875 -0.328125 0.953125q-0.09375 0.46875 -0.09375 0.890625zm2.953125 0l0 1.328125l1.640625 0l0 -1.359375q0 -0.78125 0.21875 -1.453125q0.21875 -0.671875 0.640625 -1.3125l-0.921875 -0.65625q-0.375 0.328125 -0.671875 0.75q-0.296875 0.40625 -0.484375 0.859375q-0.21875 0.46875 -0.328125 0.953125q-0.09375 0.46875 -0.09375 0.890625zm12.289307 10.796875l0 -13.265625l-0.125 0l-5.03125 1.9375l0 1.53125l3.46875 -1.3125l0 11.109375l1.6875 0zm13.867432 0l0 -1.375l-6.65625 0l3.5625 -3.859375q0.5 -0.546875 0.953125 -1.09375q0.453125 -0.5625 0.796875 -1.125q0.328125 -0.5625 0.53125 -1.140625q0.203125 -0.578125 0.203125 -1.171875q0 -0.796875 -0.28125 -1.46875q-0.28125 -0.671875 -0.796875 -1.15625q-0.515625 -0.5 -1.265625 -0.78125q-0.75 -0.28125 -1.6875 -0.28125q-1.03125 0 -1.828125 0.328125q-0.796875 0.328125 -1.34375 0.890625q-0.546875 0.5625 -0.84375 1.3125q-0.28125 0.734375 -0.28125 1.5625l1.6875 0q0 -0.609375 0.15625 -1.109375q0.15625 -0.515625 0.484375 -0.859375q0.328125 -0.34375 0.8125 -0.53125q0.484375 -0.203125 1.15625 -0.203125q0.546875 0 0.96875 0.1875q0.4375 0.1875 0.75 0.5q0.296875 0.328125 0.453125 0.765625q0.171875 0.421875 0.171875 0.921875q0 0.390625 -0.109375 0.78125q-0.09375 0.375 -0.328125 0.796875q-0.25 0.421875 -0.640625 0.921875q-0.390625 0.5 -0.96875 1.140625l-4.34375 4.828125l0 1.21875l8.6875 0zm5.0236816 -7.4375l0 1.359375l1.203125 0q0.640625 0 1.15625 0.15625q0.53125 0.140625 0.90625 0.4375q0.359375 0.296875 0.5625 0.75q0.203125 0.453125 0.203125 1.078125q0 0.625 -0.1875 1.09375q-0.171875 0.453125 -0.5 0.765625q-0.328125 0.296875 -0.796875 0.453125q-0.453125 0.15625 -1.03125 0.15625q-0.578125 0 -1.046875 -0.15625q-0.46875 -0.171875 -0.796875 -0.484375q-0.328125 -0.296875 -0.5 -0.71875q-0.171875 -0.4375 -0.171875 -0.953125l-1.6875 0q0 0.875 0.328125 1.5625q0.328125 0.6875 0.90625 1.15625q0.5625 0.46875 1.328125 0.71875q0.765625 0.25 1.640625 0.25q0.890625 0 1.65625 -0.265625q0.78125 -0.265625 1.34375 -0.765625q0.5625 -0.484375 0.875 -1.203125q0.328125 -0.71875 0.328125 -1.65625q0 -0.453125 -0.109375 -0.90625q-0.09375 -0.46875 -0.359375 -0.890625q-0.265625 -0.421875 -0.703125 -0.75q-0.421875 -0.34375 -1.078125 -0.5625q0.546875 -0.21875 0.921875 -0.5625q0.390625 -0.34375 0.640625 -0.734375q0.25 -0.375 0.359375 -0.78125q0.125 -0.421875 0.125 -0.796875q0 -0.921875 -0.296875 -1.625q-0.28125 -0.703125 -0.8125 -1.171875q-0.53125 -0.484375 -1.265625 -0.71875q-0.734375 -0.25 -1.625 -0.25q-0.921875 0 -1.6875 0.296875q-0.75 0.28125 -1.28125 0.78125q-0.53125 0.5 -0.828125 1.171875q-0.296875 0.65625 -0.296875 1.421875l1.6875 0q0 -0.515625 0.171875 -0.9375q0.171875 -0.421875 0.5 -0.71875q0.3125 -0.296875 0.75 -0.453125q0.4375 -0.171875 0.984375 -0.171875q0.546875 0 0.984375 0.140625q0.4375 0.140625 0.71875 0.421875q0.296875 0.296875 0.453125 0.734375q0.15625 0.4375 0.15625 1.03125q0 0.5 -0.171875 0.921875q-0.171875 0.421875 -0.5 0.71875q-0.328125 0.3125 -0.828125 0.484375q-0.484375 0.171875 -1.125 0.171875l-1.203125 0zm12.898682 -5.421875l0 -1.328125l-1.640625 0l0 1.359375q0 0.78125 -0.21875 1.46875q-0.21875 0.671875 -0.640625 1.3125l0.921875 0.65625q0.375 -0.328125 0.65625 -0.75q0.296875 -0.421875 0.515625 -0.875q0.203125 -0.46875 0.296875 -0.9375q0.109375 -0.46875 0.109375 -0.90625zm3.015625 0l0 -1.328125l-1.640625 0l0 1.359375q0 0.78125 -0.21875 1.46875q-0.21875 0.671875 -0.640625 1.3125l0.921875 0.65625q0.375 -0.328125 0.65625 -0.75q0.296875 -0.421875 0.515625 -0.875q0.203125 -0.46875 0.296875 -0.9375q0.109375 -0.46875 0.109375 -0.90625zm10.664307 7.5625l0 -0.09375q0 -1.390625 -0.21875 -2.5q-0.203125 -1.125 -0.53125 -2.078125q-0.34375 -0.984375 -0.796875 -1.78125q-0.4375 -0.796875 -0.953125 -1.4375q-0.484375 -0.625 -1.0 -1.078125q-0.515625 -0.453125 -0.96875 -0.703125l-0.34375 1.03125q0.296875 0.25 0.609375 0.609375q0.328125 0.34375 0.625 0.796875q0.390625 0.59375 0.765625 1.390625q0.375 0.796875 0.640625 1.796875q0.171875 0.703125 0.328125 1.71875q0.15625 1.0 0.15625 2.21875l0 0.125q0 1.09375 -0.125 2.046875q-0.109375 0.953125 -0.3125 1.765625q-0.203125 0.890625 -0.53125 1.625q-0.3125 0.75 -0.640625 1.34375q-0.359375 0.578125 -0.75 1.015625q-0.390625 0.453125 -0.765625 0.734375l0.34375 1.03125q0.453125 -0.25 0.953125 -0.703125q0.515625 -0.4375 1.015625 -1.078125q0.5 -0.625 0.9375 -1.4375q0.453125 -0.796875 0.8125 -1.78125q0.34375 -0.96875 0.546875 -2.109375q0.203125 -1.15625 0.203125 -2.46875zm8.351807 -3.78125q0 0.53125 0.328125 0.90625q0.34375 0.359375 1.0 0.359375q0.640625 0 0.984375 -0.359375q0.34375 -0.375 0.34375 -0.90625q0 -0.546875 -0.34375 -0.921875q-0.328125 -0.375 -0.984375 -0.375q-0.671875 0 -1.0 0.390625q-0.328125 0.375 -0.328125 0.90625zm2.171875 8.6875l0 -1.609375l-1.828125 0l0 1.640625q0 0.765625 -0.1875 1.484375q-0.1875 0.71875 -0.625 1.359375l1.046875 0.578125q0.734375 -0.65625 1.15625 -1.609375q0.4375 -0.9375 0.4375 -1.84375z" fill-rule="nonzero"/><path fill="#000000" fill-opacity="0.0" d="m423.73227 262.7814l41.57483 0l0 41.5748l-41.57483 0z" fill-rule="evenodd"/><path stroke="#000000" stroke-width="2.0" stroke-linejoin="round" stroke-linecap="butt" d="m423.73227 262.7814l41.57483 0l0 41.5748l-41.57483 0z" fill-rule="evenodd"/><path fill="#000000" fill-opacity="0.0" d="m465.3071 262.7814l41.5748 0l0 41.5748l-41.5748 0z" fill-rule="evenodd"/><path stroke="#000000" stroke-width="2.0" stroke-linejoin="round" stroke-linecap="butt" d="m465.3071 262.7814l41.5748 0l0 41.5748l-41.5748 0z" fill-rule="evenodd"/></g></svg>