<svg version="1.1" viewBox="0.0 0.0 528.0472440944882 285.74015748031496" fill="none" stroke="none" stroke-linecap="square" stroke-miterlimit="10" xmlns:xlink="http://www.w3.org/1999/xlink" xmlns="http://www.w3.org/2000/svg"><clipPath id="p.0"><path d="m0 0l528.04724 0l0 285.74014l-528.04724 0l0 -285.74014z" clip-rule="nonzero"/></clipPath><g clip-path="url(#p.0)"><path fill="#000000" fill-opacity="0.0" d="m0 0l528.04724 0l0 285.74014l-528.04724 0z" fill-rule="evenodd"/><path fill="#000000" fill-opacity="0.0" d="m22.889183 73.65354l41.574806 0l0 41.574806l-41.574806 0z" fill-rule="evenodd"/><path stroke="#000000" stroke-width="2.0" stroke-linejoin="round" stroke-linecap="butt" d="m22.889183 73.65354l41.574806 0l0 41.574806l-41.574806 0z" fill-rule="evenodd"/><path fill="#000000" d="m45.500805 97.92594l0.65625 2.375l2.3125 0l-3.65625 -11.375l-1.984375 0l-3.734375 11.375l2.3125 0l0.671875 -2.375l3.421875 0zm-2.875 -1.875l1.1875 -4.1875l1.171875 4.1875l-2.359375 0z" fill-rule="nonzero"/><path fill="#000000" fill-opacity="0.0" d="m64.461555 73.65354l41.574806 0l0 41.574806l-41.574806 0z" fill-rule="evenodd"/><path stroke="#000000" stroke-width="2.0" stroke-linejoin="round" stroke-linecap="butt" d="m64.461555 73.65354l41.574806 0l0 41.574806l-41.574806 0z" fill-rule="evenodd"/><path fill="#000000" d="m81.4638 100.30094l4.140625 0q0.9375 0 1.6875 -0.203125q0.75 -0.21875 1.28125 -0.640625q0.515625 -0.421875 0.796875 -1.046875q0.28125 -0.625 0.28125 -1.453125q0 -0.421875 -0.109375 -0.828125q-0.109375 -0.40625 -0.34375 -0.75q-0.234375 -0.3125 -0.5625 -0.546875q-0.328125 -0.25 -0.890625 -0.40625l0 -0.015625q0.28125 -0.109375 0.515625 -0.265625q0.25 -0.15625 0.4375 -0.34375q0.34375 -0.34375 0.515625 -0.796875q0.171875 -0.453125 0.1875 -0.96875q0 -0.796875 -0.296875 -1.375q-0.296875 -0.59375 -0.828125 -0.984375q-0.546875 -0.375 -1.3125 -0.5625q-0.75 -0.1875 -1.6875 -0.1875l-3.8125 0l0 11.375zm2.203125 -5.015625l2.046875 0q0.453125 0 0.78125 0.125q0.34375 0.109375 0.5625 0.328125q0.203125 0.21875 0.296875 0.53125q0.109375 0.296875 0.109375 0.671875q0 0.375 -0.140625 0.671875q-0.125 0.296875 -0.375 0.5q-0.21875 0.1875 -0.5625 0.296875q-0.34375 0.109375 -0.765625 0.109375l-1.953125 0l0 -3.234375zm0 -1.59375l0 -2.984375l1.625 0q0.53125 0.015625 0.921875 0.125q0.390625 0.109375 0.625 0.34375q0.1875 0.171875 0.265625 0.4375q0.09375 0.25 0.09375 0.59375q0 0.328125 -0.109375 0.59375q-0.09375 0.25 -0.296875 0.4375q-0.234375 0.21875 -0.625 0.34375q-0.375 0.109375 -0.875 0.109375l-1.625 0z" fill-rule="nonzero"/><path fill="#000000" fill-opacity="0.0" d="m106.03393 73.65354l41.574806 0l0 41.574806l-41.574806 0z" fill-rule="evenodd"/><path stroke="#000000" stroke-width="2.0" stroke-linejoin="round" stroke-linecap="butt" d="m106.03393 73.65354l41.574806 0l0 41.574806l-41.574806 0z" fill-rule="evenodd"/><path fill="#000000" d="m130.94243 96.73844l-2.1875 0q-0.03125 0.515625 -0.171875 0.890625q-0.140625 0.359375 -0.390625 0.59375q-0.23438263 0.234375 -0.5781326 0.34375q-0.34375 0.109375 -0.78125 0.109375q-0.3125 0 -0.578125 -0.078125q-0.265625 -0.078125 -0.46875 -0.234375q-0.203125 -0.140625 -0.359375 -0.34375q-0.140625 -0.21875 -0.25 -0.484375q-0.15625 -0.40625 -0.234375 -0.9375q-0.078125 -0.53125 -0.078125 -1.21875l0 -1.546875q0 -0.5 0.046875 -0.921875q0.046875 -0.4375 0.15625 -0.796875q0.125 -0.46875 0.34375 -0.8125q0.234375 -0.34375 0.546875 -0.53125q0.1875 -0.109375 0.40625 -0.15625q0.234375 -0.0625 0.484375 -0.0625q0.484375 0 0.828125 0.125q0.35938263 0.125 0.5937576 0.375q0.21875 0.265625 0.34375 0.65625q0.125 0.375 0.15625 0.875l2.1875 0q-0.078125 -0.890625 -0.375 -1.59375q-0.296875 -0.71875 -0.8125 -1.203125q-0.515625 -0.5 -1.25 -0.765625q-0.7343826 -0.265625 -1.6718826 -0.265625q-0.625 0 -1.1875 0.171875q-0.546875 0.15625 -1.0 0.453125q-0.515625 0.34375 -0.921875 0.859375q-0.40625 0.5 -0.65625 1.15625q-0.21875 0.53125 -0.328125 1.15625q-0.109375 0.609375 -0.109375 1.296875l0 1.53125q0 0.734375 0.109375 1.390625q0.125 0.65625 0.359375 1.203125q0.234375 0.546875 0.5625 1.0q0.34375 0.453125 0.78125 0.78125q0.484375 0.34375 1.078125 0.53125q0.59375 0.1875 1.296875 0.1875q0.890625 0 1.6250076 -0.265625q0.734375 -0.265625 1.265625 -0.75q0.53125 -0.484375 0.84375 -1.171875q0.328125 -0.6875 0.375 -1.546875z" fill-rule="nonzero"/><path fill="#000000" fill-opacity="0.0" d="m147.6063 73.65354l38.5197 0l0 41.574806l-38.5197 0z" fill-rule="evenodd"/><path stroke="#000000" stroke-width="2.0" stroke-linejoin="round" stroke-linecap="butt" d="m147.6063 73.65354l38.5197 0l0 41.574806l-38.5197 0z" fill-rule="evenodd"/><path fill="#000000" d="m163.04973 100.30094l3.046875 0q0.765625 0 1.421875 -0.1875q0.671875 -0.1875 1.234375 -0.546875q0.46875 -0.296875 0.859375 -0.734375q0.40625 -0.4375 0.703125 -0.96875q0.3125 -0.578125 0.484375 -1.28125q0.171875 -0.703125 0.171875 -1.5l0 -0.9375q0 -0.8125 -0.1875 -1.53125q-0.171875 -0.734375 -0.515625 -1.34375q-0.28125 -0.484375 -0.671875 -0.90625q-0.390625 -0.421875 -0.875 -0.703125q-0.5625 -0.359375 -1.25 -0.546875q-0.6875 -0.1875 -1.484375 -0.1875l-2.9375 0l0 11.375zm2.203125 -9.59375l0.734375 0q0.40625 0 0.734375 0.09375q0.34375 0.078125 0.625 0.25q0.375 0.21875 0.640625 0.5625q0.28125 0.34375 0.453125 0.78125q0.140625 0.359375 0.21875 0.8125q0.078125 0.4375 0.078125 0.921875l0 0.953125q0 0.53125 -0.078125 0.984375q-0.078125 0.4375 -0.21875 0.8125q-0.171875 0.421875 -0.40625 0.734375q-0.234375 0.3125 -0.53125 0.515625q-0.296875 0.203125 -0.65625 0.3125q-0.34375 0.09375 -0.75 0.09375l-0.84375 0l0 -7.828125z" fill-rule="nonzero"/><path fill="#000000" fill-opacity="0.0" d="m186.12599 73.65354l41.5748 0l0 41.574806l-41.5748 0z" fill-rule="evenodd"/><path stroke="#000000" stroke-width="2.0" stroke-linejoin="round" stroke-linecap="butt" d="m186.12599 73.65354l41.5748 0l0 41.574806l-41.5748 0z" fill-rule="evenodd"/><path fill="#000000" d="m210.14386 95.31657l0 -1.734375l-4.671875 0l0 -2.875l5.4375 0l0 -1.78125l-7.640625 0l0 11.375l7.65625 0l0 -1.78125l-5.453125 0l0 -3.203125l4.671875 0z" fill-rule="nonzero"/><path fill="#000000" fill-opacity="0.0" d="m106.03393 154.91357l41.574806 0l0 41.5748l-41.574806 0z" fill-rule="evenodd"/><path stroke="#000000" stroke-width="2.0" stroke-linejoin="round" stroke-linecap="butt" d="m106.03393 154.91357l41.574806 0l0 41.5748l-41.574806 0z" fill-rule="evenodd"/><path fill="#000000" d="m128.44243 181.56097l0 -11.375l-0.109375 0l-4.9531326 1.78125l0 1.890625l2.875 -1.03125l0 8.734375l2.1875076 0z" fill-rule="nonzero"/><path fill="#000000" fill-opacity="0.0" d="m147.6063 154.91357l41.574814 0l0 41.5748l-41.574814 0z" fill-rule="evenodd"/><path stroke="#000000" stroke-width="2.0" stroke-linejoin="round" stroke-linecap="butt" d="m147.6063 154.91357l41.574814 0l0 41.5748l-41.574814 0z" fill-rule="evenodd"/><path fill="#000000" d="m172.1398 181.56097l0 -1.75l-5.0 0l2.140625 -2.265625q0.5625 -0.5625 1.015625 -1.078125q0.453125 -0.53125 0.78125 -1.03125q0.3125 -0.5 0.484375 -1.0q0.1875 -0.515625 0.1875 -1.078125q0 -0.75 -0.234375 -1.359375q-0.234375 -0.609375 -0.6875 -1.046875q-0.453125 -0.4375 -1.125 -0.671875q-0.65625 -0.25 -1.53125 -0.25q-0.90625 0 -1.65625 0.296875q-0.734375 0.28125 -1.265625 0.796875q-0.53125 0.5 -0.828125 1.1875q-0.28125 0.671875 -0.28125 1.421875l2.1875 0q0 -0.453125 0.109375 -0.8125q0.125 -0.359375 0.34375 -0.609375q0.21875 -0.234375 0.546875 -0.34375q0.34375 -0.125 0.78125 -0.125q0.328125 0 0.609375 0.109375q0.28125 0.109375 0.484375 0.3125q0.1875 0.203125 0.296875 0.5q0.109375 0.296875 0.109375 0.6875q0 0.25 -0.078125 0.53125q-0.078125 0.265625 -0.265625 0.578125q-0.1875 0.328125 -0.484375 0.71875q-0.296875 0.375 -0.71875 0.84375l-3.6875 3.953125l0 1.484375l7.765625 0z" fill-rule="nonzero"/><path fill="#000000" fill-opacity="0.0" d="m189.17867 154.91357l41.574814 0l0 41.5748l-41.574814 0z" fill-rule="evenodd"/><path stroke="#000000" stroke-width="2.0" stroke-linejoin="round" stroke-linecap="butt" d="m189.17867 154.91357l41.574814 0l0 41.5748l-41.574814 0z" fill-rule="evenodd"/><path fill="#000000" d="m213.71217 181.56097l0 -1.75l-5.0 0l2.140625 -2.265625q0.5625 -0.5625 1.015625 -1.078125q0.453125 -0.53125 0.78125 -1.03125q0.3125 -0.5 0.484375 -1.0q0.1875 -0.515625 0.1875 -1.078125q0 -0.75 -0.234375 -1.359375q-0.234375 -0.609375 -0.6875 -1.046875q-0.453125 -0.4375 -1.125 -0.671875q-0.65625 -0.25 -1.53125 -0.25q-0.90625 0 -1.65625 0.296875q-0.734375 0.28125 -1.265625 0.796875q-0.53125 0.5 -0.828125 1.1875q-0.28125 0.671875 -0.28125 1.421875l2.1875 0q0 -0.453125 0.109375 -0.8125q0.125 -0.359375 0.34375 -0.609375q0.21875 -0.234375 0.546875 -0.34375q0.34375 -0.125 0.78125 -0.125q0.328125 0 0.609375 0.109375q0.28125 0.109375 0.484375 0.3125q0.1875 0.203125 0.296875 0.5q0.109375 0.296875 0.109375 0.6875q0 0.25 -0.078125 0.53125q-0.078125 0.265625 -0.265625 0.578125q-0.1875 0.328125 -0.484375 0.71875q-0.296875 0.375 -0.71875 0.84375l-3.6875 3.953125l0 1.484375l7.765625 0z" fill-rule="nonzero"/><path fill="#000000" fill-opacity="0.0" d="m355.46817 236.16385l41.5748 0l0 41.5748l-41.5748 0z" fill-rule="evenodd"/><path stroke="#000000" stroke-width="2.0" stroke-linejoin="round" stroke-linecap="butt" d="m355.46817 236.16385l41.5748 0l0 41.5748l-41.5748 0z" fill-rule="evenodd"/><path fill="#000000" d="m367.88824 250.77875l4.609375 13.375l2.203125 0l-4.609375 -13.375l-2.203125 0zm17.58606 7.625l0 -2.9375q0 -1.203125 -0.28125 -2.109375q-0.28125 -0.90625 -0.796875 -1.53125q-0.53125 -0.609375 -1.28125 -0.921875q-0.734375 -0.3125 -1.671875 -0.3125q-0.921875 0 -1.65625 0.3125q-0.734375 0.3125 -1.25 0.921875q-0.53125 0.625 -0.8125 1.53125q-0.28125 0.90625 -0.28125 2.109375l0 2.9375q0 1.1875 0.28125 2.109375q0.296875 0.90625 0.8125 1.515625q0.515625 0.609375 1.265625 0.921875q0.75 0.3125 1.671875 0.3125q0.921875 0 1.65625 -0.3125q0.75 -0.3125 1.265625 -0.921875q0.53125 -0.609375 0.796875 -1.515625q0.28125 -0.921875 0.28125 -2.109375zm-5.65625 -1.015625q0 -0.265625 0 -0.390625q0 -0.140625 0 -0.546875l0 -1.359375q0 -0.6875 0.109375 -1.1875q0.109375 -0.5 0.328125 -0.8125q0.203125 -0.296875 0.5 -0.4375q0.296875 -0.15625 0.6875 -0.15625q0.359375 0 0.640625 0.125q0.296875 0.109375 0.484375 0.34375q0.25 0.296875 0.375 0.796875q0.140625 0.484375 0.15625 1.1875l-3.28125 2.4375zm3.28125 1.375q0 0.6875 -0.109375 1.1875q-0.09375 0.5 -0.3125 0.828125q-0.203125 0.296875 -0.515625 0.453125q-0.296875 0.140625 -0.6875 0.140625q-0.4375 0 -0.75 -0.171875q-0.3125 -0.171875 -0.515625 -0.515625q-0.171875 -0.28125 -0.28125 -0.703125q-0.09375 -0.4375 -0.109375 -1.0l3.28125 -2.4375q0 0.25 0 0.375q0 0.125 0 0.40625l0 1.4375z" fill-rule="nonzero"/><path fill="#000000" fill-opacity="0.0" d="m397.04053 236.16385l41.5748 0l0 41.5748l-41.5748 0z" fill-rule="evenodd"/><path stroke="#000000" stroke-width="2.0" stroke-linejoin="round" stroke-linecap="butt" d="m397.04053 236.16385l41.5748 0l0 41.5748l-41.5748 0z" fill-rule="evenodd"/><path fill="#000000" fill-opacity="0.0" d="m85.248955 115.22835c0 30.233795 -10.3937 45.349487 -20.7874 60.467606c-10.3937 15.118103 -20.787403 30.238632 -20.787403 60.47728" fill-rule="evenodd"/><path stroke="#000000" stroke-width="2.0" stroke-linejoin="round" stroke-linecap="butt" d="m85.24896 115.22835c0 30.233795 -10.393707 45.349487 -20.787407 60.467606c-5.19685 7.5590515 -10.3937 15.118713 -14.291336 24.568436c-1.9488182 4.724869 -3.572834 9.922256 -4.7096443 15.828308c-0.28420258 1.476532 -0.53795624 2.997345 -0.7587204 4.5661316c-0.11038208 0.78440857 -0.21251678 1.5808105 -0.3060875 2.3896637l-0.12479401 1.1395874" fill-rule="evenodd"/><path fill="#000000" stroke="#000000" stroke-width="2.0" stroke-linecap="butt" d="m40.971592 224.02379l2.8479767 9.229248l3.7507782 -8.900665z" fill-rule="evenodd"/><path fill="#000000" fill-opacity="0.0" d="m22.889183 236.16385l41.574806 0l0 41.5748l-41.574806 0z" fill-rule="evenodd"/><path stroke="#000000" stroke-width="2.0" stroke-linejoin="round" stroke-linecap="butt" d="m22.889183 236.16385l41.574806 0l0 41.5748l-41.574806 0z" fill-rule="evenodd"/><path fill="#000000" d="m45.649174 260.51312l0.71875 2.578125l2.5 0l-3.953125 -12.3125l-2.171875 0l-4.03125 12.3125l2.5 0l0.734375 -2.578125l3.703125 0zm-3.125 -2.015625l1.296875 -4.53125l1.265625 4.53125l-2.5625 0z" fill-rule="nonzero"/><path fill="#000000" fill-opacity="0.0" d="m64.461555 236.16385l41.574806 0l0 41.5748l-41.574806 0z" fill-rule="evenodd"/><path stroke="#000000" stroke-width="2.0" stroke-linejoin="round" stroke-linecap="butt" d="m64.461555 236.16385l41.574806 0l0 41.5748l-41.574806 0z" fill-rule="evenodd"/><path fill="#000000" d="m81.14342 263.09125l4.484375 0q1.015625 0 1.828125 -0.21875q0.8125 -0.234375 1.390625 -0.6875q0.5625 -0.46875 0.859375 -1.140625q0.3125 -0.671875 0.3125 -1.5625q0 -0.46875 -0.125 -0.90625q-0.125 -0.4375 -0.375 -0.8125q-0.25 -0.34375 -0.609375 -0.59375q-0.359375 -0.265625 -0.96875 -0.4375l0 -0.015625q0.3125 -0.109375 0.5625 -0.28125q0.265625 -0.171875 0.46875 -0.375q0.375 -0.375 0.5625 -0.859375q0.1875 -0.5 0.203125 -1.0625q0 -0.859375 -0.328125 -1.484375q-0.3125 -0.640625 -0.890625 -1.0625q-0.578125 -0.40625 -1.40625 -0.609375q-0.828125 -0.203125 -1.828125 -0.203125l-4.140625 0l0 12.3125zm2.390625 -5.4375l2.203125 0q0.5 0.015625 0.859375 0.140625q0.375 0.125 0.609375 0.359375q0.21875 0.234375 0.328125 0.5625q0.109375 0.328125 0.109375 0.75q0 0.390625 -0.140625 0.71875q-0.140625 0.3125 -0.40625 0.546875q-0.25 0.203125 -0.625 0.328125q-0.359375 0.109375 -0.828125 0.109375l-2.109375 0l0 -3.515625zm0 -1.71875l0 -3.21875l1.75 0q0.578125 0 1.0 0.125q0.4375 0.109375 0.6875 0.375q0.1875 0.1875 0.28125 0.46875q0.109375 0.28125 0.109375 0.65625q0 0.34375 -0.125 0.625q-0.109375 0.28125 -0.3125 0.46875q-0.265625 0.25 -0.6875 0.375q-0.40625 0.125 -0.9375 0.125l-1.765625 0z" fill-rule="nonzero"/><path fill="#000000" fill-opacity="0.0" d="m106.03393 236.16385l41.574806 0l0 41.5748l-41.574806 0z" fill-rule="evenodd"/><path stroke="#000000" stroke-width="2.0" stroke-linejoin="round" stroke-linecap="butt" d="m106.03393 236.16385l41.574806 0l0 41.5748l-41.574806 0z" fill-rule="evenodd"/><path fill="#000000" d="m131.27829 259.23187l-2.375 0q-0.03125 0.5625 -0.1875 0.96875q-0.140625 0.390625 -0.40625 0.640625q-0.265625 0.25 -0.640625 0.375q-0.375 0.109375 -0.828125 0.109375q-0.359375 0 -0.640625 -0.078125q-0.28125 -0.078125 -0.515625 -0.25q-0.203125 -0.140625 -0.375 -0.375q-0.15625 -0.234375 -0.28125 -0.53125q-0.171875 -0.421875 -0.25 -1.0q-0.078125 -0.578125 -0.078125 -1.328125l0 -1.671875q0 -0.53125 0.046875 -1.0q0.0625 -0.484375 0.171875 -0.859375q0.140625 -0.5 0.375 -0.875q0.25 -0.390625 0.59375 -0.59375q0.203125 -0.109375 0.4375 -0.171875q0.25 -0.0625 0.53125 -0.0625q0.515625 0 0.890625 0.140625q0.375 0.140625 0.640625 0.40625q0.234375 0.28125 0.359375 0.703125q0.140625 0.40625 0.171875 0.96875l2.375 0q-0.078125 -0.96875 -0.40625 -1.734375q-0.328125 -0.78125 -0.875 -1.3125q-0.5625 -0.53125 -1.359375 -0.8125q-0.78125 -0.296875 -1.796875 -0.296875q-0.6875 0 -1.296875 0.171875q-0.59375 0.171875 -1.09375 0.5q-0.546875 0.375 -1.0 0.9375q-0.4375 0.546875 -0.703125 1.25q-0.234375 0.578125 -0.359375 1.25q-0.109375 0.671875 -0.109375 1.40625l0 1.65625q0 0.796875 0.125 1.515625q0.140625 0.703125 0.375 1.296875q0.265625 0.59375 0.625 1.09375q0.375 0.484375 0.84375 0.828125q0.515625 0.375 1.15625 0.578125q0.65625 0.1875 1.421875 0.1875q0.953125 0 1.75 -0.28125q0.796875 -0.28125 1.375 -0.796875q0.578125 -0.53125 0.921875 -1.265625q0.34375 -0.75 0.390625 -1.6875z" fill-rule="nonzero"/><path fill="#000000" fill-opacity="0.0" d="m147.6063 236.16385l41.574814 0l0 41.5748l-41.574814 0z" fill-rule="evenodd"/><path stroke="#000000" stroke-width="2.0" stroke-linejoin="round" stroke-linecap="butt" d="m147.6063 236.16385l41.574814 0l0 41.5748l-41.574814 0z" fill-rule="evenodd"/><path fill="#000000" d="m164.25691 263.09125l3.296875 0q0.828125 0 1.546875 -0.203125q0.734375 -0.203125 1.328125 -0.578125q0.515625 -0.328125 0.9375 -0.796875q0.4375 -0.484375 0.765625 -1.046875q0.328125 -0.640625 0.515625 -1.390625q0.1875 -0.765625 0.1875 -1.625l0 -1.015625q0 -0.890625 -0.203125 -1.671875q-0.1875 -0.796875 -0.546875 -1.4375q-0.3125 -0.546875 -0.734375 -0.984375q-0.421875 -0.453125 -0.953125 -0.78125q-0.609375 -0.375 -1.359375 -0.578125q-0.734375 -0.203125 -1.59375 -0.203125l-3.1875 0l0 12.3125zm2.390625 -10.390625l0.796875 0q0.421875 0 0.796875 0.09375q0.375 0.09375 0.671875 0.28125q0.40625 0.234375 0.703125 0.609375q0.296875 0.375 0.484375 0.84375q0.15625 0.390625 0.234375 0.875q0.078125 0.484375 0.078125 1.015625l0 1.03125q0 0.5625 -0.078125 1.046875q-0.078125 0.484375 -0.234375 0.890625q-0.1875 0.453125 -0.453125 0.796875q-0.25 0.34375 -0.578125 0.5625q-0.3125 0.21875 -0.6875 0.328125q-0.375 0.109375 -0.828125 0.109375l-0.90625 0l0 -8.484375z" fill-rule="nonzero"/><path fill="#000000" fill-opacity="0.0" d="m189.17867 236.16385l41.574814 0l0 41.5748l-41.574814 0z" fill-rule="evenodd"/><path stroke="#000000" stroke-width="2.0" stroke-linejoin="round" stroke-linecap="butt" d="m189.17867 236.16385l41.574814 0l0 41.5748l-41.574814 0z" fill-rule="evenodd"/><path fill="#000000" d="m213.45428 257.70062l0 -1.890625l-5.0625 0l0 -3.09375l5.890625 0l0 -1.9375l-8.265625 0l0 12.3125l8.296875 0l0 -1.921875l-5.921875 0l0 -3.46875l5.0625 0z" fill-rule="nonzero"/><path fill="#000000" fill-opacity="0.0" d="m230.75104 236.16385l41.5748 0l0 41.5748l-41.5748 0z" fill-rule="evenodd"/><path stroke="#000000" stroke-width="2.0" stroke-linejoin="round" stroke-linecap="butt" d="m230.75104 236.16385l41.5748 0l0 41.5748l-41.5748 0z" fill-rule="evenodd"/><path fill="#000000" d="m253.29228 263.09125l0 -12.3125l-0.125 0l-5.359375 1.9375l0 2.046875l3.109375 -1.125l0 9.453125l2.375 0z" fill-rule="nonzero"/><path fill="#000000" fill-opacity="0.0" d="m272.32343 236.16385l41.5748 0l0 41.5748l-41.5748 0z" fill-rule="evenodd"/><path stroke="#000000" stroke-width="2.0" stroke-linejoin="round" stroke-linecap="butt" d="m272.32343 236.16385l41.5748 0l0 41.5748l-41.5748 0z" fill-rule="evenodd"/><path fill="#000000" d="m297.16153 263.09125l0 -1.890625l-5.40625 0l2.3125 -2.453125q0.609375 -0.609375 1.09375 -1.171875q0.484375 -0.5625 0.84375 -1.109375q0.34375 -0.546875 0.53125 -1.09375q0.203125 -0.5625 0.203125 -1.171875q0 -0.796875 -0.265625 -1.453125q-0.25 -0.671875 -0.734375 -1.140625q-0.484375 -0.484375 -1.21875 -0.734375q-0.71875 -0.265625 -1.65625 -0.265625q-0.96875 0 -1.78125 0.3125q-0.8125 0.3125 -1.375 0.875q-0.578125 0.546875 -0.890625 1.28125q-0.3125 0.71875 -0.3125 1.546875l2.359375 0q0 -0.5 0.125 -0.890625q0.125 -0.390625 0.375 -0.65625q0.234375 -0.25 0.59375 -0.375q0.359375 -0.140625 0.828125 -0.140625q0.375 0 0.671875 0.125q0.296875 0.125 0.515625 0.34375q0.21875 0.21875 0.328125 0.546875q0.125 0.3125 0.125 0.734375q0 0.28125 -0.09375 0.578125q-0.078125 0.296875 -0.28125 0.625q-0.203125 0.359375 -0.53125 0.78125q-0.3125 0.40625 -0.78125 0.90625l-3.984375 4.28125l0 1.609375l8.40625 0z" fill-rule="nonzero"/><path fill="#000000" fill-opacity="0.0" d="m313.89578 236.16385l41.5748 0l0 41.5748l-41.5748 0z" fill-rule="evenodd"/><path stroke="#000000" stroke-width="2.0" stroke-linejoin="round" stroke-linecap="butt" d="m313.89578 236.16385l41.5748 0l0 41.5748l-41.5748 0z" fill-rule="evenodd"/><path fill="#000000" d="m333.0464 255.90375l0 1.828125l1.28125 0q0.484375 0 0.859375 0.109375q0.390625 0.109375 0.671875 0.328125q0.265625 0.234375 0.40625 0.59375q0.140625 0.34375 0.140625 0.84375q0 0.40625 -0.125 0.734375q-0.109375 0.3125 -0.34375 0.53125q-0.25 0.25 -0.625 0.375q-0.359375 0.125 -0.8125 0.125q-0.40625 0 -0.75 -0.125q-0.328125 -0.125 -0.578125 -0.34375q-0.25 -0.203125 -0.390625 -0.5q-0.125 -0.3125 -0.125 -0.65625l-2.359375 0q0 0.890625 0.34375 1.546875q0.359375 0.65625 0.9375 1.09375q0.59375 0.4375 1.34375 0.65625q0.75 0.21875 1.53125 0.21875q0.90625 0 1.703125 -0.234375q0.796875 -0.25 1.359375 -0.71875q0.578125 -0.453125 0.90625 -1.125q0.328125 -0.6875 0.328125 -1.546875q0 -0.484375 -0.125 -0.921875q-0.109375 -0.453125 -0.34375 -0.8125q-0.25 -0.375 -0.625 -0.65625q-0.375 -0.296875 -0.890625 -0.484375q0.4375 -0.203125 0.765625 -0.484375q0.34375 -0.296875 0.578125 -0.65625q0.21875 -0.34375 0.34375 -0.71875q0.125 -0.390625 0.125 -0.796875q0 -0.859375 -0.3125 -1.515625q-0.296875 -0.65625 -0.84375 -1.09375q-0.53125 -0.453125 -1.296875 -0.671875q-0.765625 -0.21875 -1.671875 -0.21875q-0.84375 0 -1.578125 0.25q-0.734375 0.234375 -1.28125 0.671875q-0.53125 0.453125 -0.84375 1.078125q-0.3125 0.609375 -0.3125 1.359375l2.359375 0q0 -0.328125 0.125 -0.59375q0.140625 -0.28125 0.375 -0.484375q0.234375 -0.171875 0.53125 -0.265625q0.3125 -0.109375 0.671875 -0.109375q0.4375 0 0.75 0.125q0.328125 0.109375 0.546875 0.3125q0.203125 0.21875 0.3125 0.53125q0.109375 0.296875 0.109375 0.65625q0 0.375 -0.109375 0.703125q-0.109375 0.3125 -0.3125 0.53125q-0.234375 0.25 -0.609375 0.390625q-0.359375 0.140625 -0.859375 0.140625l-1.28125 0z" fill-rule="nonzero"/><path fill="#000000" fill-opacity="0.0" d="m168.3937 196.48837c0 9.918884 20.7874 14.877136 41.5748 19.837769c20.7874 4.960617 41.5748 9.92363 41.5748 19.847275" fill-rule="evenodd"/><path stroke="#000000" stroke-width="2.0" stroke-linejoin="round" stroke-linecap="butt" d="m168.3937 196.48837c0 9.918884 20.7874 14.877136 41.5748 19.837769c10.393692 2.4803162 20.7874 4.961212 28.582672 8.062515c1.948822 0.7752991 3.7352448 1.5894012 5.3186493 2.45195l0.077316284 0.04310608" fill-rule="evenodd"/><path fill="#000000" stroke="#000000" stroke-width="2.0" stroke-linecap="butt" d="m241.3898 228.97487l8.302704 4.9351044l-3.1880188 -9.117386z" fill-rule="evenodd"/><path fill="#000000" fill-opacity="0.0" d="m227.69554 73.65354l41.574814 0l0 41.574806l-41.574814 0z" fill-rule="evenodd"/><path stroke="#000000" stroke-width="2.0" stroke-linejoin="round" stroke-linecap="butt" d="m227.69554 73.65354l41.574814 0l0 41.574806l-41.574814 0z" fill-rule="evenodd"/><path fill="#000000" d="m240.75638 88.92594l4.265625 12.359375l2.03125 0l-4.265625 -12.359375l-2.03125 0zm16.242188 7.046875l0 -2.71875q0 -1.109375 -0.265625 -1.9375q-0.25 -0.84375 -0.734375 -1.421875q-0.484375 -0.5625 -1.171875 -0.84375q-0.6875 -0.296875 -1.546875 -0.296875q-0.84375 0 -1.53125 0.296875q-0.6875 0.28125 -1.15625 0.84375q-0.484375 0.578125 -0.75 1.421875q-0.25 0.828125 -0.25 1.9375l0 2.71875q0 1.09375 0.25 1.9375q0.265625 0.84375 0.75 1.40625q0.484375 0.5625 1.171875 0.859375q0.6875 0.296875 1.53125 0.296875q0.859375 0 1.546875 -0.296875q0.6875 -0.296875 1.171875 -0.859375q0.46875 -0.5625 0.71875 -1.40625q0.265625 -0.84375 0.265625 -1.9375zm-5.21875 -0.9375q0 -0.25 0 -0.375q0 -0.125 0 -0.5l0 -1.25q0 -0.640625 0.09375 -1.09375q0.09375 -0.46875 0.296875 -0.75q0.1875 -0.28125 0.46875 -0.40625q0.28125 -0.140625 0.640625 -0.140625q0.328125 0 0.59375 0.109375q0.265625 0.09375 0.4375 0.3125q0.234375 0.28125 0.359375 0.734375q0.125 0.453125 0.140625 1.09375l-3.03125 2.265625zm3.03125 1.265625q0 0.625 -0.109375 1.09375q-0.09375 0.46875 -0.28125 0.765625q-0.1875 0.28125 -0.46875 0.421875q-0.28125 0.125 -0.65625 0.125q-0.390625 0 -0.6875 -0.15625q-0.28125 -0.15625 -0.46875 -0.46875q-0.171875 -0.265625 -0.265625 -0.65625q-0.078125 -0.40625 -0.09375 -0.921875l3.03125 -2.25q0 0.21875 0 0.34375q0 0.125 0 0.375l0 1.328125z" fill-rule="nonzero"/><path fill="#000000" fill-opacity="0.0" d="m230.75104 154.91357l41.5748 0l0 41.5748l-41.5748 0z" fill-rule="evenodd"/><path stroke="#000000" stroke-width="2.0" stroke-linejoin="round" stroke-linecap="butt" d="m230.75104 154.91357l41.5748 0l0 41.5748l-41.5748 0z" fill-rule="evenodd"/><path fill="#000000" d="m243.81187 170.18597l4.265625 12.359375l2.03125 0l-4.265625 -12.359375l-2.03125 0zm16.242203 7.046875l0 -2.71875q0 -1.109375 -0.265625 -1.9375q-0.25 -0.84375 -0.734375 -1.421875q-0.484375 -0.5625 -1.171875 -0.84375q-0.6875 -0.296875 -1.546875 -0.296875q-0.84376526 0 -1.5312653 0.296875q-0.6875 0.28125 -1.15625 0.84375q-0.484375 0.578125 -0.75 1.421875q-0.25 0.828125 -0.25 1.9375l0 2.71875q0 1.09375 0.25 1.9375q0.265625 0.84375 0.75 1.40625q0.484375 0.5625 1.171875 0.859375q0.6875 0.296875 1.5312653 0.296875q0.859375 0 1.546875 -0.296875q0.6875 -0.296875 1.171875 -0.859375q0.46875 -0.5625 0.71875 -1.40625q0.265625 -0.84375 0.265625 -1.9375zm-5.2187653 -0.9375q0 -0.25 0 -0.375q0 -0.125 0 -0.5l0 -1.25q0 -0.640625 0.09375 -1.09375q0.09375 -0.46875 0.296875 -0.75q0.1875 -0.28125 0.46875 -0.40625q0.28125 -0.140625 0.64064026 -0.140625q0.328125 0 0.59375 0.109375q0.265625 0.09375 0.4375 0.3125q0.234375 0.28125 0.359375 0.734375q0.125 0.453125 0.140625 1.09375l-3.0312653 2.265625zm3.0312653 1.265625q0 0.625 -0.109375 1.09375q-0.09375 0.46875 -0.28125 0.765625q-0.1875 0.28125 -0.46875 0.421875q-0.28125 0.125 -0.65625 0.125q-0.39064026 0 -0.68751526 -0.15625q-0.28125 -0.15625 -0.46875 -0.46875q-0.171875 -0.265625 -0.265625 -0.65625q-0.078125 -0.40625 -0.09375 -0.921875l3.0312653 -2.25q0 0.21875 0 0.34375q0 0.125 0 0.375l0 1.328125z" fill-rule="nonzero"/><path fill="#000000" fill-opacity="0.0" d="m4.469816 2.0026248l440.0 0l0 64.62992l-440.0 0z" fill-rule="evenodd"/><path fill="#000000" d="m19.251066 27.735123q-0.796875 0 -1.328125 -0.3125q-0.53125 -0.3125 -0.84375 -0.828125q-0.328125 -0.5 -0.46875 -1.125q-0.140625 -0.640625 -0.140625 -1.28125l0 -0.390625q0 -0.625 0.140625 -1.25q0.140625 -0.640625 0.46875 -1.15625q0.328125 -0.5 0.859375 -0.8125q0.53125 -0.3125 1.3125 -0.3125q0.515625 0 0.953125 0.171875q0.4375 0.171875 0.765625 0.484375q0.3125 0.296875 0.5 0.6875q0.1875 0.390625 0.203125 0.84375l1.59375 0q0 -0.75 -0.3125 -1.40625q-0.296875 -0.65625 -0.828125 -1.140625q-0.53125 -0.46875 -1.265625 -0.734375q-0.734375 -0.28125 -1.609375 -0.28125q-1.109375 0 -1.953125 0.40625q-0.84375 0.390625 -1.390625 1.0625q-0.5625 0.6875 -0.859375 1.578125q-0.28125 0.890625 -0.28125 1.859375l0 0.390625q0 0.984375 0.28125 1.875q0.296875 0.875 0.859375 1.5625q0.546875 0.671875 1.390625 1.078125q0.84375 0.40625 1.953125 0.40625q0.78125 0 1.5 -0.265625q0.71875 -0.28125 1.28125 -0.734375q0.5625 -0.4375 0.890625 -1.03125q0.328125 -0.609375 0.34375 -1.265625l-1.59375 0q-0.015625 0.40625 -0.21875 0.765625q-0.203125 0.34375 -0.546875 0.609375q-0.328125 0.265625 -0.765625 0.40625q-0.4375 0.140625 -0.890625 0.140625zm8.679947 -7.203125l0 -5.609375l-1.6875 0l0 14.0l1.6875 0l0 -7.15625q0.1875 -0.296875 0.421875 -0.53125q0.234375 -0.25 0.5 -0.421875q0.34375 -0.25 0.75 -0.375q0.421875 -0.125 0.875 -0.125q0.5625 -0.015625 0.984375 0.15625q0.421875 0.15625 0.7031269 0.46875q0.265625 0.296875 0.40625 0.734375q0.140625 0.4375 0.140625 1.03125l0 6.21875l1.6875 0l0 -6.203125q0 -1.0 -0.25 -1.71875q-0.234375 -0.71875 -0.6875 -1.203125q-0.4375 -0.46875 -1.078125 -0.6875q-0.6250019 -0.21875 -1.4062519 -0.21875q-0.59375 0 -1.125 0.171875q-0.515625 0.15625 -0.953125 0.484375q-0.265625 0.1875 -0.515625 0.4375q-0.25 0.25 -0.453125 0.546875zm15.992449 8.390625l1.75 0l0 -0.140625q-0.15625 -0.421875 -0.25 -0.96875q-0.09375 -0.546875 -0.09375 -1.046875l0 -4.578125q0 -0.828125 -0.296875 -1.4375q-0.296875 -0.625 -0.8125 -1.046875q-0.53125 -0.40625 -1.25 -0.609375q-0.71875 -0.203125 -1.5625 -0.203125q-0.921875 0 -1.65625 0.25q-0.71875 0.25 -1.21875 0.65625q-0.5 0.421875 -0.78125 0.953125q-0.265625 0.515625 -0.265625 1.046875l1.6875 0q0 -0.3125 0.140625 -0.59375q0.15625 -0.28125 0.4375 -0.5q0.265625 -0.203125 0.65625 -0.328125q0.40625 -0.140625 0.90625 -0.140625q0.546875 0 0.96875 0.140625q0.4375 0.140625 0.734375 0.390625q0.296875 0.25 0.453125 0.609375q0.171875 0.34375 0.171875 0.796875l0 0.78125l-1.828125 0q-1.03125 0 -1.875 0.203125q-0.828125 0.1875 -1.421875 0.59375q-0.59375 0.40625 -0.921875 1.015625q-0.3125 0.609375 -0.3125 1.421875q0 0.625 0.234375 1.15625q0.25 0.53125 0.6875 0.90625q0.4375 0.40625 1.0625 0.640625q0.640625 0.21875 1.4375 0.21875q0.46875 0 0.890625 -0.109375q0.4375 -0.09375 0.828125 -0.265625q0.375 -0.171875 0.6875 -0.390625q0.3125 -0.234375 0.5625 -0.5q0.03125 0.3125 0.09375 0.609375q0.0625 0.28125 0.15625 0.46875zm-2.984375 -1.28125q-0.484375 0 -0.859375 -0.125q-0.375 -0.140625 -0.625 -0.359375q-0.234375 -0.21875 -0.359375 -0.53125q-0.125 -0.3125 -0.125 -0.671875q0 -0.390625 0.140625 -0.6875q0.140625 -0.296875 0.40625 -0.515625q0.390625 -0.3125 1.03125 -0.453125q0.65625 -0.15625 1.53125 -0.15625l1.5625 0l0 2.0q-0.140625 0.28125 -0.40625 0.5625q-0.25 0.265625 -0.59375 0.46875q-0.34375 0.203125 -0.78125 0.34375q-0.421875 0.125 -0.921875 0.125zm14.164322 -8.75q-1.078125 0 -1.921875 0.46875q-0.84375 0.46875 -1.4375 1.265625l-0.015625 -0.234375l-0.078125 -1.328125l-1.59375 0l0 9.859375l1.6875 0l0 -6.328125q0.171875 -0.453125 0.421875 -0.8125q0.25 -0.375 0.578125 -0.625q0.375 -0.296875 0.875 -0.4375q0.5 -0.15625 1.125 -0.15625q0.484375 0 0.921875 0.046875q0.453125 0.046875 0.9375 0.15625l0.234375 -1.640625q-0.265625 -0.109375 -0.765625 -0.171875q-0.5 -0.0625 -0.96875 -0.0625zm24.281769 5.21875l0 -0.203125q0 -0.765625 -0.125 -1.453125q-0.125 -0.703125 -0.375 -1.28125q-0.234375 -0.515625 -0.546875 -0.921875q-0.3125 -0.421875 -0.703125 -0.703125q-0.4375 -0.3125 -0.984375 -0.484375q-0.53125 -0.171875 -1.15625 -0.171875q-0.515625 0 -0.953125 0.09375q-0.4375 0.09375 -0.796875 0.296875q-0.296875 0.15625 -0.5625 0.375q-0.25 0.203125 -0.453125 0.46875l0 -5.203125l-1.6875 0l0 14.0l1.546875 0l0.078125 -1.125q0.171875 0.21875 0.34375 0.390625q0.1875 0.171875 0.390625 0.3125q0.421875 0.296875 0.9375 0.453125q0.53125 0.15625 1.171875 0.15625q0.546875 0 1.015625 -0.140625q0.484375 -0.140625 0.890625 -0.390625q0.5625 -0.34375 0.953125 -0.890625q0.390625 -0.546875 0.640625 -1.21875q0.1875 -0.53125 0.28125 -1.125q0.09375 -0.59375 0.09375 -1.234375zm-1.6875 -0.203125l0 0.203125q0 0.4375 -0.0625 0.859375q-0.046875 0.40625 -0.15625 0.78125q-0.15625 0.46875 -0.40625 0.875q-0.234375 0.390625 -0.609375 0.640625q-0.265625 0.203125 -0.609375 0.3125q-0.34375 0.09375 -0.765625 0.09375q-0.4375 0 -0.8125 -0.109375q-0.359375 -0.109375 -0.640625 -0.328125q-0.296875 -0.203125 -0.53125 -0.484375q-0.21875 -0.28125 -0.375 -0.609375l0 -4.3125q0.15625 -0.328125 0.375 -0.59375q0.21875 -0.28125 0.515625 -0.5q0.28125 -0.1875 0.640625 -0.296875q0.375 -0.125 0.8125 -0.125q0.390625 0 0.71875 0.09375q0.328125 0.09375 0.59375 0.25q0.390625 0.234375 0.65625 0.640625q0.265625 0.390625 0.421875 0.875q0.125 0.390625 0.171875 0.84375q0.0625 0.4375 0.0625 0.890625zm11.023697 5.015625l1.53125 0l0 -9.859375l-1.6875 0l0 7.078125q-0.140625 0.3125 -0.34375 0.578125q-0.203125 0.265625 -0.484375 0.46875q-0.328125 0.234375 -0.78125 0.375q-0.4375 0.125 -1.0 0.125q-0.484375 0 -0.859375 -0.125q-0.359375 -0.140625 -0.625 -0.453125q-0.25 -0.3125 -0.375 -0.828125q-0.125 -0.53125 -0.125 -1.34375l0 -5.875l-1.6875 0l0 5.859375q0 1.109375 0.234375 1.890625q0.25 0.78125 0.6875 1.296875q0.453125 0.515625 1.078125 0.765625q0.625 0.234375 1.40625 0.234375q0.96875 0 1.703125 -0.40625q0.734375 -0.40625 1.234375 -1.140625l0.09375 1.359375zm7.211197 0l1.703125 0l0 -8.546875l3.796875 0l0 -1.3125l-3.796875 0l0 -0.6875q0 -0.625 0.15625 -1.078125q0.15625 -0.46875 0.46875 -0.765625q0.296875 -0.28125 0.734375 -0.421875q0.4375 -0.140625 1.015625 -0.140625q0.5625 0 1.0625 0.09375q0.5 0.09375 0.875 0.21875l0.1875 -1.390625q-0.234375 -0.0625 -0.46875 -0.109375q-0.21875 -0.046875 -0.453125 -0.09375q-0.34375 -0.0625 -0.703125 -0.109375q-0.34375 -0.046875 -0.703125 -0.046875q-0.875 0 -1.59375 0.25q-0.703125 0.25 -1.203125 0.734375q-0.515625 0.484375 -0.796875 1.203125q-0.28125 0.703125 -0.28125 1.65625l0 0.6875l-2.703125 0l0 1.3125l2.703125 0l0 8.546875zm11.195572 0l1.703125 0l0 -8.546875l3.796875 0l0 -1.3125l-3.796875 0l0 -0.6875q0 -0.625 0.15625 -1.078125q0.15625 -0.46875 0.46875 -0.765625q0.296875 -0.28125 0.734375 -0.421875q0.4375 -0.140625 1.015625 -0.140625q0.5625 0 1.0625 0.09375q0.5 0.09375 0.875 0.21875l0.1875 -1.390625q-0.234375 -0.0625 -0.46875 -0.109375q-0.21875 -0.046875 -0.453125 -0.09375q-0.34375 -0.0625 -0.703125 -0.109375q-0.34375 -0.046875 -0.703125 -0.046875q-0.875 0 -1.59375 0.25q-0.703125 0.25 -1.203125 0.734375q-0.515625 0.484375 -0.796875 1.203125q-0.28125 0.703125 -0.28125 1.65625l0 0.6875l-2.703125 0l0 1.3125l2.703125 0l0 8.546875zm13.039322 0.1875q1.4375 0 2.421875 -0.578125q0.984375 -0.578125 1.46875 -1.328125l-1.03125 -0.796875q-0.46875 0.59375 -1.171875 0.96875q-0.6875 0.359375 -1.59375 0.359375q-0.6875 0 -1.25 -0.25q-0.5625 -0.265625 -0.96875 -0.71875q-0.390625 -0.40625 -0.609375 -0.953125q-0.21875 -0.546875 -0.28125 -1.265625l0 -0.078125l7.03125 0l0 -0.75q0 -1.03125 -0.265625 -1.90625q-0.25 -0.890625 -0.78125 -1.546875q-0.53125 -0.640625 -1.328125 -1.0q-0.796875 -0.375 -1.859375 -0.375q-0.84375 0 -1.65625 0.34375q-0.796875 0.34375 -1.4375 0.984375q-0.625 0.65625 -1.015625 1.609375q-0.375 0.9375 -0.375 2.125l0 0.390625q0 1.03125 0.34375 1.90625q0.34375 0.875 0.96875 1.5q0.609375 0.640625 1.484375 1.0q0.875 0.359375 1.90625 0.359375zm-0.21875 -8.84375q0.65625 0 1.125 0.234375q0.46875 0.234375 0.765625 0.625q0.3125 0.375 0.484375 0.90625q0.171875 0.515625 0.171875 0.984375l0 0.078125l-5.296875 0q0.09375 -0.6875 0.34375 -1.203125q0.265625 -0.53125 0.625 -0.890625q0.359375 -0.359375 0.8125 -0.546875q0.453125 -0.1875 0.96875 -0.1875zm13.523697 -1.375q-1.078125 0 -1.921875 0.46875q-0.84375 0.46875 -1.4375 1.265625l-0.015625 -0.234375l-0.078125 -1.328125l-1.59375 0l0 9.859375l1.6875 0l0 -6.328125q0.171875 -0.453125 0.421875 -0.8125q0.25 -0.375 0.578125 -0.625q0.375 -0.296875 0.875 -0.4375q0.5 -0.15625 1.125 -0.15625q0.484375 0 0.921875 0.046875q0.453125 0.046875 0.9375 0.15625l0.234375 -1.640625q-0.265625 -0.109375 -0.765625 -0.171875q-0.5 -0.0625 -0.96875 -0.0625zm10.633072 -3.75l0 -1.375l-3.609375 0l0 18.0l3.609375 0l0 -1.390625l-2.015625 0l0 -15.234375l2.015625 0zm10.758072 13.78125l0 -13.265625l-0.125 0l-5.03125 1.9375l0 1.53125l3.46875 -1.3125l0 11.109375l1.6875 0zm13.867447 0l0 -1.375l-6.65625 0l3.5625 -3.859375q0.5 -0.546875 0.953125 -1.09375q0.453125 -0.5625 0.796875 -1.125q0.328125 -0.5625 0.53125 -1.140625q0.203125 -0.578125 0.203125 -1.171875q0 -0.796875 -0.28125 -1.46875q-0.28125 -0.671875 -0.796875 -1.15625q-0.515625 -0.5 -1.265625 -0.78125q-0.75 -0.28125 -1.6875 -0.28125q-1.03125 0 -1.828125 0.328125q-0.796875 0.328125 -1.34375 0.890625q-0.546875 0.5625 -0.84375 1.3125q-0.28125 0.734375 -0.28125 1.5625l1.6875 0q0 -0.609375 0.15625 -1.109375q0.15625 -0.515625 0.484375 -0.859375q0.328125 -0.34375 0.8125 -0.53125q0.484375 -0.203125 1.15625 -0.203125q0.546875 0 0.96875 0.1875q0.4375 0.1875 0.75 0.5q0.296875 0.328125 0.453125 0.765625q0.171875 0.421875 0.171875 0.921875q0 0.390625 -0.109375 0.78125q-0.09375 0.375 -0.328125 0.796875q-0.25 0.421875 -0.640625 0.921875q-0.390625 0.5 -0.96875 1.140625l-4.34375 4.828125l0 1.21875l8.6875 0zm5.164322 -15.15625l0 1.375l2.03125 0l0 15.234375l-2.03125 0l0 1.390625l3.625 0l0 -18.0l-3.625 0zm12.398697 6.078125q0 0.53125 0.328125 0.90625q0.34375 0.359375 1.0 0.359375q0.640625 0 0.984375 -0.359375q0.34375 -0.375 0.34375 -0.90625q0 -0.546875 -0.34375 -0.921875q-0.328125 -0.375 -0.984375 -0.375q-0.671875 0 -1.0 0.390625q-0.328125 0.375 -0.328125 0.90625zm2.171875 8.6875l0 -1.609375l-1.828125 0l0 1.640625q0 0.765625 -0.1875 1.484375q-0.1875 0.71875 -0.625 1.359375l1.046875 0.578125q0.734375 -0.65625 1.15625 -1.609375q0.4375 -0.9375 0.4375 -1.84375z" fill-rule="nonzero"/><path fill="#000000" d="m21.532316 51.32262l1.75 0l0 -0.140625q-0.15625 -0.421875 -0.25 -0.96875q-0.09375 -0.546875 -0.09375 -1.046875l0 -4.578125q0 -0.828125 -0.296875 -1.4375q-0.296875 -0.625 -0.8125 -1.046875q-0.53125 -0.40625 -1.25 -0.609375q-0.71875 -0.203125 -1.5625 -0.203125q-0.921875 0 -1.65625 0.25q-0.71875 0.25 -1.21875 0.65625q-0.5 0.421875 -0.78125 0.953125q-0.265625 0.515625 -0.265625 1.046875l1.6875 0q0 -0.3125 0.140625 -0.59375q0.15625 -0.28125 0.4375 -0.5q0.265625 -0.203125 0.65625 -0.328125q0.40625 -0.140625 0.90625 -0.140625q0.546875 0 0.96875 0.140625q0.4375 0.140625 0.734375 0.390625q0.296875 0.25 0.453125 0.609375q0.171875 0.34375 0.171875 0.796875l0 0.78125l-1.828125 0q-1.03125 0 -1.875 0.203125q-0.828125 0.1875 -1.421875 0.59375q-0.59375 0.40625 -0.921875 1.015625q-0.3125 0.609375 -0.3125 1.421875q0 0.625 0.234375 1.15625q0.25 0.53125 0.6875 0.90625q0.4375 0.40625 1.0625 0.640625q0.640625 0.21875 1.4375 0.21875q0.46875 0 0.890625 -0.109375q0.4375 -0.09375 0.828125 -0.265625q0.375 -0.171875 0.6875 -0.390625q0.3125 -0.234375 0.5625 -0.5q0.03125 0.3125 0.09375 0.609375q0.0625 0.28125 0.15625 0.46875zm-2.984375 -1.28125q-0.484375 0 -0.859375 -0.125q-0.375 -0.140625 -0.625 -0.359375q-0.234375 -0.21875 -0.359375 -0.53125q-0.125 -0.3125 -0.125 -0.671875q0 -0.390625 0.140625 -0.6875q0.140625 -0.296875 0.40625 -0.515625q0.390625 -0.3125 1.03125 -0.453125q0.65625 -0.15625 1.53125 -0.15625l1.5625 0l0 2.0q-0.140625 0.28125 -0.40625 0.5625q-0.25 0.265625 -0.59375 0.46875q-0.34375 0.203125 -0.78125 0.34375q-0.421875 0.125 -0.921875 0.125zm7.695572 5.078125l1.6875 0l0 -4.75q0.171875 0.203125 0.375 0.375q0.21875 0.171875 0.453125 0.3125q0.390625 0.21875 0.875 0.328125q0.5 0.125 1.0625 0.125q0.921875 0 1.6406269 -0.375q0.734375 -0.390625 1.234375 -1.0625q0.484375 -0.6875 0.734375 -1.59375q0.265625 -0.921875 0.265625 -1.96875l0 -0.203125q0 -1.09375 -0.265625 -2.015625q-0.25 -0.9375 -0.734375 -1.59375q-0.5 -0.671875 -1.234375 -1.03125q-0.7187519 -0.375 -1.6718769 -0.375q-0.53125 0 -1.0 0.109375q-0.46875 0.109375 -0.859375 0.328125q-0.265625 0.140625 -0.515625 0.359375q-0.234375 0.203125 -0.421875 0.453125l-0.09375 -1.078125l-1.53125 0l0 13.65625zm6.640627 -8.8125l0 0.203125q0 0.71875 -0.171875 1.375q-0.15625 0.65625 -0.484375 1.15625q-0.3281269 0.5 -0.8437519 0.796875q-0.5 0.296875 -1.203125 0.296875q-0.4375 0 -0.796875 -0.109375q-0.359375 -0.109375 -0.640625 -0.3125q-0.265625 -0.15625 -0.46875 -0.390625q-0.1875 -0.234375 -0.34375 -0.515625l0 -4.75q0.171875 -0.296875 0.390625 -0.546875q0.234375 -0.265625 0.53125 -0.4375q0.265625 -0.171875 0.59375 -0.265625q0.328125 -0.09375 0.71875 -0.09375q0.71875 0 1.21875 0.296875q0.515625 0.28125 0.8437519 0.78125q0.328125 0.5 0.484375 1.15625q0.171875 0.640625 0.171875 1.359375zm4.554947 8.8125l1.6875 0l0 -4.75q0.171875 0.203125 0.375 0.375q0.21875 0.171875 0.453125 0.3125q0.390625 0.21875 0.875 0.328125q0.5 0.125 1.0625 0.125q0.921875 0 1.640625 -0.375q0.734375 -0.390625 1.234375 -1.0625q0.484375 -0.6875 0.734375 -1.59375q0.265625 -0.921875 0.265625 -1.96875l0 -0.203125q0 -1.09375 -0.265625 -2.015625q-0.25 -0.9375 -0.734375 -1.59375q-0.5 -0.671875 -1.234375 -1.03125q-0.71875 -0.375 -1.671875 -0.375q-0.53125 0 -1.0 0.109375q-0.46875 0.109375 -0.859375 0.328125q-0.265625 0.140625 -0.515625 0.359375q-0.234375 0.203125 -0.421875 0.453125l-0.09375 -1.078125l-1.53125 0l0 13.65625zm6.640625 -8.8125l0 0.203125q0 0.71875 -0.171875 1.375q-0.15625 0.65625 -0.484375 1.15625q-0.328125 0.5 -0.84375 0.796875q-0.5 0.296875 -1.203125 0.296875q-0.4375 0 -0.796875 -0.109375q-0.359375 -0.109375 -0.640625 -0.3125q-0.265625 -0.15625 -0.46875 -0.390625q-0.1875 -0.234375 -0.34375 -0.515625l0 -4.75q0.171875 -0.296875 0.390625 -0.546875q0.234375 -0.265625 0.53125 -0.4375q0.265625 -0.171875 0.59375 -0.265625q0.328125 -0.09375 0.71875 -0.09375q0.71875 0 1.21875 0.296875q0.515625 0.28125 0.84375 0.78125q0.328125 0.5 0.484375 1.15625q0.171875 0.640625 0.171875 1.359375zm8.914322 5.203125q1.4375 0 2.421875 -0.578125q0.984375 -0.578125 1.46875 -1.328125l-1.03125 -0.796875q-0.46875 0.59375 -1.171875 0.96875q-0.6875 0.359375 -1.59375 0.359375q-0.6875 0 -1.25 -0.25q-0.5625 -0.265625 -0.96875 -0.71875q-0.390625 -0.40625 -0.609375 -0.953125q-0.21875 -0.546875 -0.28125 -1.265625l0 -0.078125l7.03125 0l0 -0.75q0 -1.03125 -0.265625 -1.90625q-0.25 -0.890625 -0.78125 -1.546875q-0.53125 -0.640625 -1.328125 -1.0q-0.796875 -0.375 -1.859375 -0.375q-0.84375 0 -1.65625 0.34375q-0.796875 0.34375 -1.4375 0.984375q-0.625 0.65625 -1.015625 1.609375q-0.375 0.9375 -0.375 2.125l0 0.390625q0 1.03125 0.34375 1.90625q0.34375 0.875 0.96875 1.5q0.609375 0.640625 1.484375 1.0q0.875 0.359375 1.90625 0.359375zm-0.21875 -8.84375q0.65625 0 1.125 0.234375q0.46875 0.234375 0.765625 0.625q0.3125 0.375 0.484375 0.90625q0.171875 0.515625 0.171875 0.984375l0 0.078125l-5.296875 0q0.09375 -0.6875 0.34375 -1.203125q0.265625 -0.53125 0.625 -0.890625q0.359375 -0.359375 0.8125 -0.546875q0.453125 -0.1875 0.96875 -0.1875zm7.054947 8.65625l1.6875 0l0 -7.0625q0.171875 -0.328125 0.40625 -0.59375q0.234375 -0.265625 0.515625 -0.453125q0.328125 -0.234375 0.71875 -0.359375q0.40625 -0.140625 0.875 -0.140625q0.546875 0 0.953125 0.125q0.421875 0.125 0.703125 0.40625q0.28125 0.296875 0.421875 0.75q0.15625 0.453125 0.15625 1.109375l0 6.21875l1.6875 0l0 -6.265625q0 -0.96875 -0.25 -1.6875q-0.234375 -0.71875 -0.6875 -1.1875q-0.4375 -0.453125 -1.078125 -0.671875q-0.625 -0.21875 -1.40625 -0.21875q-0.5625 0 -1.078125 0.171875q-0.515625 0.15625 -0.953125 0.4375q-0.296875 0.1875 -0.5625 0.453125q-0.25 0.265625 -0.46875 0.5625l-0.125 -1.453125l-1.515625 0l0 9.859375zm10.883072 -5.015625l0 0.203125q0 1.046875 0.28125 1.96875q0.28125 0.90625 0.796875 1.59375q0.5 0.671875 1.21875 1.0625q0.734375 0.375 1.625 0.375q0.921875 0 1.59375 -0.3125q0.6875 -0.3125 1.1875 -0.90625l0.0625 1.03125l1.546875 0l0 -14.0l-1.6875 0l0 5.125q-0.46875 -0.578125 -1.140625 -0.859375q-0.65625 -0.296875 -1.546875 -0.296875q-0.890625 0 -1.625 0.375q-0.734375 0.359375 -1.234375 1.03125q-0.515625 0.65625 -0.796875 1.59375q-0.28125 0.921875 -0.28125 2.015625zm1.6875 0.203125l0 -0.203125q0 -0.71875 0.15625 -1.359375q0.15625 -0.65625 0.484375 -1.15625q0.3125 -0.5 0.8125 -0.78125q0.515625 -0.296875 1.21875 -0.296875q0.828125 0 1.375 0.390625q0.5625 0.390625 0.890625 0.984375l0 4.578125q-0.328125 0.640625 -0.890625 1.03125q-0.546875 0.375 -1.390625 0.375q-0.703125 0 -1.203125 -0.28125q-0.5 -0.296875 -0.8125 -0.78125q-0.328125 -0.5 -0.484375 -1.140625q-0.15625 -0.640625 -0.15625 -1.359375zm22.688019 -0.578125l0 0.09375q0 1.3125 0.203125 2.46875q0.203125 1.140625 0.5625 2.109375q0.328125 0.984375 0.78125 1.78125q0.453125 0.8125 0.953125 1.4375q0.484375 0.640625 0.984375 1.078125q0.515625 0.453125 0.96875 0.703125l0.359375 -1.03125q-0.375 -0.296875 -0.75 -0.71875q-0.359375 -0.421875 -0.703125 -0.96875q-0.34375 -0.578125 -0.65625 -1.3125q-0.3125 -0.71875 -0.546875 -1.5625q-0.21875 -0.84375 -0.34375 -1.828125q-0.125 -1.0 -0.125 -2.140625l0 -0.125q0 -1.1875 0.125 -2.203125q0.140625 -1.03125 0.390625 -1.890625q0.265625 -0.953125 0.640625 -1.75q0.390625 -0.796875 0.796875 -1.390625q0.28125 -0.375 0.578125 -0.6875q0.296875 -0.3125 0.59375 -0.53125l-0.359375 -1.109375q-0.453125 0.25 -0.953125 0.703125q-0.5 0.453125 -1.0 1.078125q-0.5 0.625 -0.953125 1.4375q-0.4375 0.8125 -0.78125 1.78125q-0.359375 0.984375 -0.5625 2.140625q-0.203125 1.140625 -0.203125 2.4375zm17.883072 0.578125l0 -0.203125q0 -0.765625 -0.125 -1.453125q-0.125 -0.703125 -0.375 -1.28125q-0.234375 -0.515625 -0.546875 -0.921875q-0.3125 -0.421875 -0.703125 -0.703125q-0.4375 -0.3125 -0.984375 -0.484375q-0.53125 -0.171875 -1.15625 -0.171875q-0.515625 0 -0.953125 0.09375q-0.4375 0.09375 -0.796875 0.296875q-0.296875 0.15625 -0.5625 0.375q-0.25 0.203125 -0.453125 0.46875l0 -5.203125l-1.6875 0l0 14.0l1.546875 0l0.078125 -1.125q0.171875 0.21875 0.34375 0.390625q0.1875 0.171875 0.390625 0.3125q0.421875 0.296875 0.9375 0.453125q0.53125 0.15625 1.171875 0.15625q0.546875 0 1.015625 -0.140625q0.484375 -0.140625 0.890625 -0.390625q0.5625 -0.34375 0.953125 -0.890625q0.390625 -0.546875 0.640625 -1.21875q0.1875 -0.53125 0.28125 -1.125q0.09375 -0.59375 0.09375 -1.234375zm-1.6875 -0.203125l0 0.203125q0 0.4375 -0.0625 0.859375q-0.046875 0.40625 -0.15625 0.78125q-0.15625 0.46875 -0.40625 0.875q-0.234375 0.390625 -0.609375 0.640625q-0.265625 0.203125 -0.609375 0.3125q-0.34375 0.09375 -0.765625 0.09375q-0.4375 0 -0.8125 -0.109375q-0.359375 -0.109375 -0.640625 -0.328125q-0.296875 -0.203125 -0.53125 -0.484375q-0.21875 -0.28125 -0.375 -0.609375l0 -4.3125q0.15625 -0.328125 0.375 -0.59375q0.21875 -0.28125 0.515625 -0.5q0.28125 -0.1875 0.640625 -0.296875q0.375 -0.125 0.8125 -0.125q0.390625 0 0.71875 0.09375q0.328125 0.09375 0.59375 0.25q0.390625 0.234375 0.65625 0.640625q0.265625 0.390625 0.421875 0.875q0.125 0.390625 0.171875 0.84375q0.0625 0.4375 0.0625 0.890625zm11.023697 5.015625l1.53125 0l0 -9.859375l-1.6875 0l0 7.078125q-0.140625 0.3125 -0.34375 0.578125q-0.203125 0.265625 -0.484375 0.46875q-0.328125 0.234375 -0.78125 0.375q-0.4375 0.125 -1.0 0.125q-0.484375 0 -0.859375 -0.125q-0.359375 -0.140625 -0.625 -0.453125q-0.25 -0.3125 -0.375 -0.828125q-0.125 -0.53125 -0.125 -1.34375l0 -5.875l-1.6875 0l0 5.859375q0 1.109375 0.234375 1.890625q0.25 0.78125 0.6875 1.296875q0.453125 0.515625 1.078125 0.765625q0.625 0.234375 1.40625 0.234375q0.96875 0 1.703125 -0.40625q0.734375 -0.40625 1.234375 -1.140625l0.09375 1.359375zm7.211197 0l1.703125 0l0 -8.546875l3.796875 0l0 -1.3125l-3.796875 0l0 -0.6875q0 -0.625 0.15625 -1.078125q0.15625 -0.46875 0.46875 -0.765625q0.296875 -0.28125 0.734375 -0.421875q0.4375 -0.140625 1.015625 -0.140625q0.5625 0 1.0625 0.09375q0.5 0.09375 0.875 0.21875l0.1875 -1.390625q-0.234375 -0.0625 -0.46875 -0.109375q-0.21875 -0.046875 -0.453125 -0.09375q-0.34375 -0.0625 -0.703125 -0.109375q-0.34375 -0.046875 -0.703125 -0.046875q-0.875 0 -1.59375 0.25q-0.703125 0.25 -1.203125 0.734375q-0.515625 0.484375 -0.796875 1.203125q-0.28125 0.703125 -0.28125 1.65625l0 0.6875l-2.703125 0l0 1.3125l2.703125 0l0 8.546875zm11.195572 0l1.703125 0l0 -8.546875l3.796875 0l0 -1.3125l-3.796875 0l0 -0.6875q0 -0.625 0.15625 -1.078125q0.15625 -0.46875 0.46875 -0.765625q0.296875 -0.28125 0.734375 -0.421875q0.4375 -0.140625 1.015625 -0.140625q0.5625 0 1.0625 0.09375q0.5 0.09375 0.875 0.21875l0.1875 -1.390625q-0.234375 -0.0625 -0.46875 -0.109375q-0.21875 -0.046875 -0.453125 -0.09375q-0.34375 -0.0625 -0.703125 -0.109375q-0.34375 -0.046875 -0.703125 -0.046875q-0.875 0 -1.59375 0.25q-0.703125 0.25 -1.203125 0.734375q-0.515625 0.484375 -0.796875 1.203125q-0.28125 0.703125 -0.28125 1.65625l0 0.6875l-2.703125 0l0 1.3125l2.703125 0l0 8.546875zm13.039322 0.1875q1.4375 0 2.421875 -0.578125q0.984375 -0.578125 1.46875 -1.328125l-1.03125 -0.796875q-0.46875 0.59375 -1.171875 0.96875q-0.6875 0.359375 -1.59375 0.359375q-0.6875 0 -1.25 -0.25q-0.5625 -0.265625 -0.96875 -0.71875q-0.390625 -0.40625 -0.609375 -0.953125q-0.21875 -0.546875 -0.28125 -1.265625l0 -0.078125l7.03125 0l0 -0.75q0 -1.03125 -0.265625 -1.90625q-0.25 -0.890625 -0.78125 -1.546875q-0.53125 -0.640625 -1.328125 -1.0q-0.796875 -0.375 -1.859375 -0.375q-0.84375 0 -1.65625 0.34375q-0.796875 0.34375 -1.4375 0.984375q-0.625 0.65625 -1.015625 1.609375q-0.375 0.9375 -0.375 2.125l0 0.390625q0 1.03125 0.34375 1.90625q0.34375 0.875 0.96875 1.5q0.609375 0.640625 1.484375 1.0q0.875 0.359375 1.90625 0.359375zm-0.21875 -8.84375q0.65625 0 1.125 0.234375q0.46875 0.234375 0.765625 0.625q0.3125 0.375 0.484375 0.90625q0.171875 0.515625 0.171875 0.984375l0 0.078125l-5.296875 0q0.09375 -0.6875 0.34375 -1.203125q0.265625 -0.53125 0.625 -0.890625q0.359375 -0.359375 0.8125 -0.546875q0.453125 -0.1875 0.96875 -0.1875zm13.523697 -1.375q-1.078125 0 -1.921875 0.46875q-0.84375 0.46875 -1.4375 1.265625l-0.015625 -0.234375l-0.078125 -1.328125l-1.59375 0l0 9.859375l1.6875 0l0 -6.328125q0.171875 -0.453125 0.421875 -0.8125q0.25 -0.375 0.578125 -0.625q0.375 -0.296875 0.875 -0.4375q0.5 -0.15625 1.125 -0.15625q0.484375 0 0.921875 0.046875q0.453125 0.046875 0.9375 0.15625l0.234375 -1.640625q-0.265625 -0.109375 -0.765625 -0.171875q-0.5 -0.0625 -0.96875 -0.0625zm9.008072 9.640625l0 -1.609375l-1.828125 0l0 1.640625q0 0.765625 -0.1875 1.484375q-0.1875 0.71875 -0.625 1.359375l1.046875 0.578125q0.734375 -0.65625 1.15625 -1.609375q0.4375 -0.9375 0.4375 -1.84375zm12.383072 0.390625l0 -13.265625l-0.125 0l-5.03125 1.9375l0 1.53125l3.46875 -1.3125l0 11.109375l1.6875 0zm13.867447 0l0 -1.375l-6.65625 0l3.5625 -3.859375q0.5 -0.546875 0.953125 -1.09375q0.453125 -0.5625 0.796875 -1.125q0.328125 -0.5625 0.53125 -1.140625q0.203125 -0.578125 0.203125 -1.171875q0 -0.796875 -0.28125 -1.46875q-0.28125 -0.671875 -0.796875 -1.15625q-0.515625 -0.5 -1.265625 -0.78125q-0.75 -0.28125 -1.6875 -0.28125q-1.03125 0 -1.828125 0.328125q-0.796875 0.328125 -1.34375 0.890625q-0.546875 0.5625 -0.84375 1.3125q-0.28125 0.734375 -0.28125 1.5625l1.6875 0q0 -0.609375 0.15625 -1.109375q0.15625 -0.515625 0.484375 -0.859375q0.328125 -0.34375 0.8125 -0.53125q0.484375 -0.203125 1.15625 -0.203125q0.546875 0 0.96875 0.1875q0.4375 0.1875 0.75 0.5q0.296875 0.328125 0.453125 0.765625q0.171875 0.421875 0.171875 0.921875q0 0.390625 -0.109375 0.78125q-0.09375 0.375 -0.328125 0.796875q-0.25 0.421875 -0.640625 0.921875q-0.390625 0.5 -0.96875 1.140625l-4.34375 4.828125l0 1.21875l8.6875 0zm7.336197 -0.390625l0 -1.609375l-1.828125 0l0 1.640625q0 0.765625 -0.1875 1.484375q-0.1875 0.71875 -0.625 1.359375l1.046875 0.578125q0.734375 -0.65625 1.15625 -1.609375q0.4375 -0.9375 0.4375 -1.84375zm10.586197 -12.46875l0 -1.328125l-1.640625 0l0 1.359375q0 0.78125 -0.21875 1.46875q-0.21875 0.671875 -0.640625 1.3125l0.921875 0.65625q0.375 -0.328125 0.65625 -0.75q0.296875 -0.421875 0.515625 -0.875q0.203125 -0.46875 0.296875 -0.9375q0.109375 -0.46875 0.109375 -0.90625zm3.015625 0l0 -1.328125l-1.640625 0l0 1.359375q0 0.78125 -0.21875 1.46875q-0.21875 0.671875 -0.640625 1.3125l0.921875 0.65625q0.375 -0.328125 0.65625 -0.75q0.296875 -0.421875 0.515625 -0.875q0.203125 -0.46875 0.296875 -0.9375q0.109375 -0.46875 0.109375 -0.90625zm10.851822 9.421875l1.046875 3.4375l1.671875 0l-4.203125 -13.265625l-1.421875 0l-4.28125 13.265625l1.6875 0l1.0625 -3.4375l4.4375 0zm-3.984375 -1.46875l1.78125 -5.75l1.75 5.75l-3.53125 0zm8.820572 4.90625l4.25 0q0.84375 -0.015625 1.640625 -0.265625q0.796875 -0.25 1.40625 -0.734375q0.609375 -0.46875 0.96875 -1.171875q0.375 -0.71875 0.359375 -1.65625q0 -0.59375 -0.171875 -1.09375q-0.171875 -0.515625 -0.5 -0.921875q-0.296875 -0.375 -0.765625 -0.6875q-0.453125 -0.3125 -0.96875 -0.421875l0 -0.03125q0.484375 -0.21875 0.828125 -0.453125q0.34375 -0.234375 0.625 -0.578125q0.28125 -0.34375 0.4375 -0.765625q0.15625 -0.421875 0.171875 -0.953125q0 -0.921875 -0.359375 -1.578125q-0.359375 -0.671875 -0.96875 -1.109375q-0.625 -0.421875 -1.40625 -0.625q-0.78125 -0.203125 -1.59375 -0.21875l-3.953125 0l0 13.265625zm1.703125 -6.203125l2.6875 0q0.53125 0.015625 1.0 0.1875q0.46875 0.15625 0.8125 0.453125q0.34375 0.3125 0.53125 0.75q0.203125 0.4375 0.1875 1.0q0 0.5625 -0.21875 1.0q-0.203125 0.4375 -0.5625 0.734375q-0.375 0.296875 -0.84375 0.46875q-0.46875 0.171875 -1.0 0.171875l-2.59375 0l0 -4.765625zm0 -1.40625l0 -4.21875l2.296875 0q0.5 0.015625 0.96875 0.140625q0.46875 0.109375 0.828125 0.359375q0.359375 0.25 0.5625 0.640625q0.21875 0.390625 0.21875 0.953125q0 0.515625 -0.21875 0.90625q-0.21875 0.390625 -0.578125 0.65625q-0.34375 0.28125 -0.8125 0.421875q-0.453125 0.140625 -0.921875 0.140625l-2.34375 0zm18.101807 3.625l-1.6875 0q-0.078125 0.59375 -0.28125 1.109375q-0.203125 0.515625 -0.53125 0.890625q-0.34373474 0.375 -0.82810974 0.59375q-0.484375 0.203125 -1.15625 0.203125q-0.609375 0 -1.0625 -0.1875q-0.453125 -0.203125 -0.796875 -0.546875q-0.328125 -0.34375 -0.546875 -0.78125q-0.21875 -0.453125 -0.359375 -0.953125q-0.140625 -0.5 -0.203125 -1.015625q-0.046875 -0.53125 -0.046875 -1.03125l0 -1.859375q0 -0.5 0.046875 -1.015625q0.0625 -0.53125 0.203125 -1.03125q0.140625 -0.5 0.359375 -0.9375q0.21875 -0.453125 0.5625 -0.796875q0.328125 -0.328125 0.78125 -0.515625q0.46875 -0.203125 1.0625 -0.203125q0.671875 0 1.15625 0.21875q0.484375 0.21875 0.82810974 0.609375q0.328125 0.390625 0.53125 0.921875q0.203125 0.515625 0.28125 1.109375l1.6875 0q-0.109375 -0.9375 -0.453125 -1.71875q-0.34375 -0.796875 -0.90625 -1.359375q-0.5625 -0.546875 -1.34375 -0.859375q-0.78123474 -0.3125 -1.7812347 -0.3125q-0.828125 0 -1.5 0.234375q-0.65625 0.234375 -1.171875 0.640625q-0.53125 0.421875 -0.90625 0.984375q-0.375 0.546875 -0.625 1.203125q-0.25 0.65625 -0.375 1.375q-0.125 0.71875 -0.140625 1.46875l0 1.84375q0.015625 0.734375 0.140625 1.453125q0.125 0.71875 0.375 1.375q0.25 0.65625 0.625 1.21875q0.375 0.546875 0.90625 0.96875q0.515625 0.40625 1.1875 0.640625q0.671875 0.234375 1.484375 0.234375q0.96875 0 1.734375 -0.296875q0.78123474 -0.3125 1.3593597 -0.875q0.5625 -0.546875 0.921875 -1.3125q0.359375 -0.765625 0.46875 -1.6875zm2.4299622 3.984375l3.078125 0q0.953125 -0.015625 1.78125 -0.234375q0.828125 -0.21875 1.484375 -0.625q0.609375 -0.390625 1.109375 -0.9375q0.5 -0.5625 0.828125 -1.25q0.328125 -0.65625 0.484375 -1.4375q0.171875 -0.78125 0.171875 -1.65625l0 -0.96875q0 -0.921875 -0.1875 -1.71875q-0.171875 -0.796875 -0.515625 -1.46875q-0.359375 -0.796875 -0.984375 -1.40625q-0.625 -0.609375 -1.4375 -0.984375q-0.59375 -0.265625 -1.28125 -0.40625q-0.6875 -0.15625 -1.453125 -0.171875l-3.078125 0l0 13.265625zm1.71875 -11.875l1.359375 0q0.625 0 1.15625 0.140625q0.53125 0.125 0.953125 0.359375q0.609375 0.328125 1.015625 0.84375q0.421875 0.515625 0.65625 1.15625q0.203125 0.484375 0.296875 1.0625q0.09375 0.5625 0.09375 1.1875l0 0.984375q0 0.609375 -0.09375 1.171875q-0.09375 0.5625 -0.265625 1.046875q-0.21875 0.59375 -0.578125 1.078125q-0.359375 0.46875 -0.84375 0.796875q-0.46875 0.3125 -1.078125 0.484375q-0.59375 0.171875 -1.3125 0.1875l-1.359375 0l0 -10.5zm16.945587 5.75l0 -1.4375l-5.53125 0l0 -4.265625l6.375 0l0 -1.4375l-8.0625 0l0 13.265625l8.140625 0l0 -1.4375l-6.453125 0l0 -4.6875l5.53125 0zm7.5705566 -6.734375l0 -1.328125l-1.640625 0l0 1.359375q0 0.78125 -0.21875 1.46875q-0.21875 0.671875 -0.640625 1.3125l0.921875 0.65625q0.375 -0.328125 0.65625 -0.75q0.296875 -0.421875 0.515625 -0.875q0.203125 -0.46875 0.296875 -0.9375q0.109375 -0.46875 0.109375 -0.90625zm3.015625 0l0 -1.328125l-1.640625 0l0 1.359375q0 0.78125 -0.21875 1.46875q-0.21875 0.671875 -0.640625 1.3125l0.921875 0.65625q0.375 -0.328125 0.65625 -0.75q0.296875 -0.421875 0.515625 -0.875q0.203125 -0.46875 0.296875 -0.9375q0.109375 -0.46875 0.109375 -0.90625zm8.789307 12.46875l0 -1.609375l-1.828125 0l0 1.640625q0 0.765625 -0.1875 1.484375q-0.1875 0.71875 -0.625 1.359375l1.046875 0.578125q0.734375 -0.65625 1.15625 -1.609375q0.4375 -0.9375 0.4375 -1.84375zm19.531738 -10.40625l0 1.328125l1.640625 0l0 -1.359375q0 -0.78125 0.21875 -1.453125q0.21875 -0.671875 0.640625 -1.3125l-0.921875 -0.65625q-0.375 0.328125 -0.671875 0.75q-0.296875 0.40625 -0.484375 0.859375q-0.21875 0.46875 -0.328125 0.953125q-0.09375 0.46875 -0.09375 0.890625zm2.953125 0l0 1.328125l1.640625 0l0 -1.359375q0 -0.78125 0.21875 -1.453125q0.21875 -0.671875 0.640625 -1.3125l-0.921875 -0.65625q-0.375 0.328125 -0.671875 0.75q-0.296875 0.40625 -0.484375 0.859375q-0.21875 0.46875 -0.328125 0.953125q-0.09375 0.46875 -0.09375 0.890625zm12.289307 10.796875l0 -13.265625l-0.125 0l-5.03125 1.9375l0 1.53125l3.46875 -1.3125l0 11.109375l1.6875 0zm13.867432 0l0 -1.375l-6.65625 0l3.5625 -3.859375q0.5 -0.546875 0.953125 -1.09375q0.453125 -0.5625 0.796875 -1.125q0.328125 -0.5625 0.53125 -1.140625q0.203125 -0.578125 0.203125 -1.171875q0 -0.796875 -0.28125 -1.46875q-0.28125 -0.671875 -0.796875 -1.15625q-0.515625 -0.5 -1.265625 -0.78125q-0.75 -0.28125 -1.6875 -0.28125q-1.03125 0 -1.828125 0.328125q-0.796875 0.328125 -1.34375 0.890625q-0.546875 0.5625 -0.84375 1.3125q-0.28125 0.734375 -0.28125 1.5625l1.6875 0q0 -0.609375 0.15625 -1.109375q0.15625 -0.515625 0.484375 -0.859375q0.328125 -0.34375 0.8125 -0.53125q0.484375 -0.203125 1.15625 -0.203125q0.546875 0 0.96875 0.1875q0.4375 0.1875 0.75 0.5q0.296875 0.328125 0.453125 0.765625q0.171875 0.421875 0.171875 0.921875q0 0.390625 -0.109375 0.78125q-0.09375 0.375 -0.328125 0.796875q-0.25 0.421875 -0.640625 0.921875q-0.390625 0.5 -0.96875 1.140625l-4.34375 4.828125l0 1.21875l8.6875 0zm5.0236816 -7.4375l0 1.359375l1.203125 0q0.640625 0 1.15625 0.15625q0.53125 0.140625 0.90625 0.4375q0.359375 0.296875 0.5625 0.75q0.203125 0.453125 0.203125 1.078125q0 0.625 -0.1875 1.09375q-0.171875 0.453125 -0.5 0.765625q-0.328125 0.296875 -0.796875 0.453125q-0.453125 0.15625 -1.03125 0.15625q-0.578125 0 -1.046875 -0.15625q-0.46875 -0.171875 -0.796875 -0.484375q-0.328125 -0.296875 -0.5 -0.71875q-0.171875 -0.4375 -0.171875 -0.953125l-1.6875 0q0 0.875 0.328125 1.5625q0.328125 0.6875 0.90625 1.15625q0.5625 0.46875 1.328125 0.71875q0.765625 0.25 1.640625 0.25q0.890625 0 1.65625 -0.265625q0.78125 -0.265625 1.34375 -0.765625q0.5625 -0.484375 0.875 -1.203125q0.328125 -0.71875 0.328125 -1.65625q0 -0.453125 -0.109375 -0.90625q-0.09375 -0.46875 -0.359375 -0.890625q-0.265625 -0.421875 -0.703125 -0.75q-0.421875 -0.34375 -1.078125 -0.5625q0.546875 -0.21875 0.921875 -0.5625q0.390625 -0.34375 0.640625 -0.734375q0.25 -0.375 0.359375 -0.78125q0.125 -0.421875 0.125 -0.796875q0 -0.921875 -0.296875 -1.625q-0.28125 -0.703125 -0.8125 -1.171875q-0.53125 -0.484375 -1.265625 -0.71875q-0.734375 -0.25 -1.625 -0.25q-0.921875 0 -1.6875 0.296875q-0.75 0.28125 -1.28125 0.78125q-0.53125 0.5 -0.828125 1.171875q-0.296875 0.65625 -0.296875 1.421875l1.6875 0q0 -0.515625 0.171875 -0.9375q0.171875 -0.421875 0.5 -0.71875q0.3125 -0.296875 0.75 -0.453125q0.4375 -0.171875 0.984375 -0.171875q0.546875 0 0.984375 0.140625q0.4375 0.140625 0.71875 0.421875q0.296875 0.296875 0.453125 0.734375q0.15625 0.4375 0.15625 1.03125q0 0.5 -0.171875 0.921875q-0.171875 0.421875 -0.5 0.71875q-0.328125 0.3125 -0.828125 0.484375q-0.484375 0.171875 -1.125 0.171875l-1.203125 0zm12.898682 -5.421875l0 -1.328125l-1.640625 0l0 1.359375q0 0.78125 -0.21875 1.46875q-0.21875 0.671875 -0.640625 1.3125l0.921875 0.65625q0.375 -0.328125 0.65625 -0.75q0.296875 -0.421875 0.515625 -0.875q0.203125 -0.46875 0.296875 -0.9375q0.109375 -0.46875 0.109375 -0.90625zm3.015625 0l0 -1.328125l-1.640625 0l0 1.359375q0 0.78125 -0.21875 1.46875q-0.21875 0.671875 -0.640625 1.3125l0.921875 0.65625q0.375 -0.328125 0.65625 -0.75q0.296875 -0.421875 0.515625 -0.875q0.203125 -0.46875 0.296875 -0.9375q0.109375 -0.46875 0.109375 -0.90625zm10.664307 7.5625l0 -0.09375q0 -1.390625 -0.21875 -2.5q-0.203125 -1.125 -0.53125 -2.078125q-0.34375 -0.984375 -0.796875 -1.78125q-0.4375 -0.796875 -0.953125 -1.4375q-0.484375 -0.625 -1.0 -1.078125q-0.515625 -0.453125 -0.96875 -0.703125l-0.34375 1.03125q0.296875 0.25 0.609375 0.609375q0.328125 0.34375 0.625 0.796875q0.390625 0.59375 0.765625 1.390625q0.375 0.796875 0.640625 1.796875q0.171875 0.703125 0.328125 1.71875q0.15625 1.0 0.15625 2.21875l0 0.125q0 1.09375 -0.125 2.046875q-0.109375 0.953125 -0.3125 1.765625q-0.203125 0.890625 -0.53125 1.625q-0.3125 0.75 -0.640625 1.34375q-0.359375 0.578125 -0.75 1.015625q-0.390625 0.453125 -0.765625 0.734375l0.34375 1.03125q0.453125 -0.25 0.953125 -0.703125q0.515625 -0.4375 1.015625 -1.078125q0.5 -0.625 0.9375 -1.4375q0.453125 -0.796875 0.8125 -1.78125q0.34375 -0.96875 0.546875 -2.109375q0.203125 -1.15625 0.203125 -2.46875zm8.351807 -3.78125q0 0.53125 0.328125 0.90625q0.34375 0.359375 1.0 0.359375q0.640625 0 0.984375 -0.359375q0.34375 -0.375 0.34375 -0.90625q0 -0.546875 -0.34375 -0.921875q-0.328125 -0.375 -0.984375 -0.375q-0.671875 0 -1.0 0.390625q-0.328125 0.375 -0.328125 0.90625zm2.171875 8.6875l0 -1.609375l-1.828125 0l0 1.640625q0 0.765625 -0.1875 1.484375q-0.1875 0.71875 -0.625 1.359375l1.046875 0.578125q0.734375 -0.65625 1.15625 -1.609375q0.4375 -0.9375 0.4375 -1.84375z" fill-rule="nonzero"/><path fill="#000000" fill-opacity="0.0" d="m438.6129 236.16385l41.5748 0l0 41.5748l-41.5748 0z" fill-rule="evenodd"/><path stroke="#000000" stroke-width="2.0" stroke-linejoin="round" stroke-linecap="butt" d="m438.6129 236.16385l41.5748 0l0 41.5748l-41.5748 0z" fill-rule="evenodd"/><path fill="#000000" fill-opacity="0.0" d="m480.18527 236.16385l41.5748 0l0 41.5748l-41.5748 0z" fill-rule="evenodd"/><path stroke="#000000" stroke-width="2.0" stroke-linejoin="round" stroke-linecap="butt" d="m480.18527 236.16385l41.5748 0l0 41.5748l-41.5748 0z" fill-rule="evenodd"/></g></svg>