<svg version="1.1" viewBox="0.0 0.0 417.4461942257218 148.4041994750656" fill="none" stroke="none" stroke-linecap="square" stroke-miterlimit="10" xmlns:xlink="http://www.w3.org/1999/xlink" xmlns="http://www.w3.org/2000/svg"><clipPath id="p.0"><path d="m0 0l417.4462 0l0 148.4042l-417.4462 0l0 -148.4042z" clip-rule="nonzero"/></clipPath><g clip-path="url(#p.0)"><path fill="#000000" fill-opacity="0.0" d="m0 0l417.4462 0l0 148.4042l-417.4462 0z" fill-rule="evenodd"/><path fill="#000000" fill-opacity="0.0" d="m10.853019 5.7454066l420.31494 0l0 42.015747l-420.31494 0z" fill-rule="evenodd"/><path fill="#000000" d="m21.696768 22.80603l0 1.46875l3.359375 0l0 6.9375l-3.359375 0l0 1.453125l8.265625 0l0 -1.453125l-3.21875 0l0 -8.40625l-5.046875 0zm3.140625 -2.578125q0 0.40625 0.25 0.6875q0.25 0.265625 0.765625 0.265625q0.5 0 0.75 -0.265625q0.25 -0.28125 0.25 -0.6875q0 -0.234375 -0.078125 -0.421875q-0.0625 -0.1875 -0.203125 -0.328125q-0.125 -0.109375 -0.3125 -0.171875q-0.171875 -0.078125 -0.40625 -0.078125q-0.25 0 -0.4375 0.078125q-0.171875 0.0625 -0.296875 0.171875q-0.140625 0.140625 -0.21875 0.34375q-0.0625 0.1875 -0.0625 0.40625zm7.789324 12.4375l1.6875 0l0 -7.0625q0.171875 -0.328125 0.40625 -0.59375q0.234375 -0.265625 0.515625 -0.453125q0.328125 -0.234375 0.71875 -0.359375q0.40625 -0.140625 0.875 -0.140625q0.546875 0 0.953125 0.125q0.421875 0.125 0.703125 0.40625q0.28125 0.296875 0.421875 0.75q0.15625 0.453125 0.15625 1.109375l0 6.21875l1.6875 0l0 -6.265625q0 -0.96875 -0.25 -1.6875q-0.234375 -0.71875 -0.6875 -1.1875q-0.4375 -0.453125 -1.078125 -0.671875q-0.625 -0.21875 -1.40625 -0.21875q-0.5625 0 -1.078125 0.171875q-0.515625 0.15625 -0.953125 0.4375q-0.296875 0.1875 -0.5625 0.453125q-0.25 0.265625 -0.46875 0.5625l-0.125 -1.453125l-1.515625 0l0 9.859375zm15.195572 -12.25l-1.703125 0l0 2.390625l-2.578125 0l0 1.3125l2.578125 0l0 5.34375q0 0.921875 0.234375 1.5625q0.25 0.640625 0.671875 1.046875q0.421875 0.40625 0.984375 0.59375q0.578125 0.1875 1.234375 0.1875q0.390625 0 0.78125 -0.046875q0.40625 -0.03125 0.75 -0.109375q0.359375 -0.0625 0.65625 -0.15625q0.296875 -0.09375 0.515625 -0.21875l-0.234375 -1.203125q-0.15625 0.046875 -0.40625 0.09375q-0.234375 0.046875 -0.515625 0.09375q-0.28125 0.046875 -0.578125 0.078125q-0.28125 0.03125 -0.546875 0.03125q-0.375 0 -0.71875 -0.09375q-0.328125 -0.09375 -0.578125 -0.3125q-0.265625 -0.21875 -0.40625 -0.59375q-0.140625 -0.375 -0.140625 -0.953125l0 -5.34375l3.75 0l0 -1.3125l-3.75 0l0 -2.390625zm18.391144 12.25l1.6875 0l0 -7.0625q0.171875 -0.328125 0.40625 -0.59375q0.234375 -0.265625 0.515625 -0.453125q0.328125 -0.234375 0.71875 -0.359375q0.40625 -0.140625 0.875 -0.140625q0.546875 0 0.953125 0.125q0.421875 0.125 0.703125 0.40625q0.28125 0.296875 0.421875 0.75q0.15625 0.453125 0.15625 1.109375l0 6.21875l1.6875 0l0 -6.265625q0 -0.96875 -0.25 -1.6875q-0.234375 -0.71875 -0.6875 -1.1875q-0.4375 -0.453125 -1.078125 -0.671875q-0.625 -0.21875 -1.40625 -0.21875q-0.5625 0 -1.078125 0.171875q-0.515625 0.15625 -0.953125 0.4375q-0.296875 0.1875 -0.5625 0.453125q-0.25 0.265625 -0.46875 0.5625l-0.125 -1.453125l-1.515625 0l0 9.859375zm17.695572 0l1.53125 0l0 -9.859375l-1.6875 0l0 7.078125q-0.140625 0.3125 -0.34375 0.578125q-0.203125 0.265625 -0.484375 0.46875q-0.328125 0.234375 -0.78125 0.375q-0.4375 0.125 -1.0 0.125q-0.484375 0 -0.859375 -0.125q-0.359375 -0.140625 -0.625 -0.453125q-0.25 -0.3125 -0.375 -0.828125q-0.125 -0.53125 -0.125 -1.34375l0 -5.875l-1.6875 0l0 5.859375q0 1.109375 0.234375 1.890625q0.25 0.78125 0.6875 1.296875q0.453125 0.515625 1.078125 0.765625q0.625 0.234375 1.40625 0.234375q0.96875 0 1.703125 -0.40625q0.734375 -0.40625 1.234375 -1.140625l0.09375 1.359375zm5.476822 -9.859375l-1.515625 0l0 9.859375l1.609375 0l0 -7.84375q0.046875 -0.140625 0.125 -0.265625q0.09375 -0.140625 0.21875 -0.234375q0.15625 -0.125 0.375 -0.1875q0.21875 -0.078125 0.53125 -0.078125q0.265625 0 0.46875 0.078125q0.203125 0.0625 0.34375 0.203125q0.15625 0.15625 0.21875 0.390625q0.0625 0.234375 0.0625 0.546875l0 7.390625l1.609375 0l0 -7.375q0 -0.0625 0 -0.09375q0 -0.046875 0 -0.09375q0.03125 -0.21875 0.109375 -0.40625q0.078125 -0.1875 0.21875 -0.34375q0.15625 -0.125 0.375 -0.203125q0.21875 -0.09375 0.515625 -0.09375q0.28125 0 0.484375 0.078125q0.21875 0.0625 0.375 0.21875q0.140625 0.15625 0.203125 0.390625q0.078125 0.234375 0.078125 0.546875l0 7.375l1.59375 0l0 -7.359375q0 -0.71875 -0.171875 -1.234375q-0.15625 -0.53125 -0.453125 -0.859375q-0.28125 -0.28125 -0.703125 -0.421875q-0.40625 -0.15625 -0.921875 -0.15625q-0.359375 0 -0.6875 0.09375q-0.3125 0.09375 -0.5625 0.25q-0.203125 0.125 -0.375 0.3125q-0.171875 0.1875 -0.296875 0.390625q-0.109375 -0.21875 -0.25 -0.40625q-0.140625 -0.1875 -0.3125 -0.3125q-0.234375 -0.15625 -0.546875 -0.234375q-0.3125 -0.09375 -0.703125 -0.09375q-0.6875 0 -1.1875 0.296875q-0.484375 0.28125 -0.78125 0.8125l-0.046875 -0.9375zm18.773697 5.046875l0 -0.203125q0 -0.765625 -0.125 -1.453125q-0.125 -0.703125 -0.375 -1.28125q-0.234375 -0.515625 -0.546875 -0.921875q-0.3125 -0.421875 -0.703125 -0.703125q-0.4375 -0.3125 -0.984375 -0.484375q-0.53125 -0.171875 -1.15625 -0.171875q-0.515625 0 -0.953125 0.09375q-0.4375 0.09375 -0.796875 0.296875q-0.296875 0.15625 -0.5625 0.375q-0.25 0.203125 -0.453125 0.46875l0 -5.203125l-1.6875 0l0 14.0l1.546875 0l0.078125 -1.125q0.171875 0.21875 0.34375 0.390625q0.1875 0.171875 0.390625 0.3125q0.421875 0.296875 0.9375 0.453125q0.53125 0.15625 1.171875 0.15625q0.546875 0 1.015625 -0.140625q0.484375 -0.140625 0.890625 -0.390625q0.5625 -0.34375 0.953125 -0.890625q0.390625 -0.546875 0.640625 -1.21875q0.1875 -0.53125 0.28125 -1.125q0.09375 -0.59375 0.09375 -1.234375zm-1.6875 -0.203125l0 0.203125q0 0.4375 -0.0625 0.859375q-0.046875 0.40625 -0.15625 0.78125q-0.15625 0.46875 -0.40625 0.875q-0.234375 0.390625 -0.609375 0.640625q-0.265625 0.203125 -0.609375 0.3125q-0.34375 0.09375 -0.765625 0.09375q-0.4375 0 -0.8125 -0.109375q-0.359375 -0.109375 -0.640625 -0.328125q-0.296875 -0.203125 -0.53125 -0.484375q-0.21875 -0.28125 -0.375 -0.609375l0 -4.3125q0.15625 -0.328125 0.375 -0.59375q0.21875 -0.28125 0.515625 -0.5q0.28125 -0.1875 0.640625 -0.296875q0.375 -0.125 0.8125 -0.125q0.390625 0 0.71875 0.09375q0.328125 0.09375 0.59375 0.25q0.390625 0.234375 0.65625 0.640625q0.265625 0.390625 0.421875 0.875q0.125 0.390625 0.171875 0.84375q0.0625 0.4375 0.0625 0.890625zm8.883072 5.203125q1.4375 0 2.421875 -0.578125q0.984375 -0.578125 1.46875 -1.328125l-1.03125 -0.796875q-0.46875 0.59375 -1.171875 0.96875q-0.6875 0.359375 -1.59375 0.359375q-0.6875 0 -1.25 -0.25q-0.5625 -0.265625 -0.96875 -0.71875q-0.390625 -0.40625 -0.609375 -0.953125q-0.21875 -0.546875 -0.28125 -1.265625l0 -0.078125l7.03125 0l0 -0.75q0 -1.03125 -0.265625 -1.90625q-0.25 -0.890625 -0.78125 -1.546875q-0.53125 -0.640625 -1.328125 -1.0q-0.796875 -0.375 -1.859375 -0.375q-0.84375 0 -1.65625 0.34375q-0.796875 0.34375 -1.4375 0.984375q-0.625 0.65625 -1.015625 1.609375q-0.375 0.9375 -0.375 2.125l0 0.390625q0 1.03125 0.34375 1.90625q0.34375 0.875 0.96875 1.5q0.609375 0.640625 1.484375 1.0q0.875 0.359375 1.90625 0.359375zm-0.21875 -8.84375q0.65625 0 1.125 0.234375q0.46875 0.234375 0.765625 0.625q0.3125 0.375 0.484375 0.90625q0.171875 0.515625 0.171875 0.984375l0 0.078125l-5.296875 0q0.09375 -0.6875 0.34375 -1.203125q0.265625 -0.53125 0.625 -0.890625q0.359375 -0.359375 0.8125 -0.546875q0.453125 -0.1875 0.96875 -0.1875zm13.523689 -1.375q-1.0781174 0 -1.9218674 0.46875q-0.84375 0.46875 -1.4375 1.265625l-0.015625 -0.234375l-0.078125 -1.328125l-1.59375 0l0 9.859375l1.6875 0l0 -6.328125q0.171875 -0.453125 0.421875 -0.8125q0.25 -0.375 0.578125 -0.625q0.375 -0.296875 0.875 -0.4375q0.5 -0.15625 1.1249924 -0.15625q0.484375 0 0.921875 0.046875q0.453125 0.046875 0.9375 0.15625l0.234375 -1.640625q-0.265625 -0.109375 -0.765625 -0.171875q-0.5 -0.0625 -0.96875 -0.0625zm11.289322 7.421875q0 0.234375 -0.09375 0.453125q-0.09375 0.203125 -0.265625 0.375q-0.28125 0.28125 -0.78125 0.4375q-0.5 0.15625 -1.171875 0.15625q-0.4375 0 -0.875 -0.078125q-0.4375 -0.09375 -0.796875 -0.3125q-0.359375 -0.21875 -0.609375 -0.578125q-0.234375 -0.359375 -0.265625 -0.875l-1.6875 0q0 0.625 0.28125 1.21875q0.296875 0.578125 0.84375 1.015625q0.53125 0.4375 1.3125 0.71875q0.78125 0.265625 1.796875 0.265625q0.875 0 1.609375 -0.203125q0.734375 -0.21875 1.265625 -0.609375q0.53125 -0.375 0.8125 -0.90625q0.296875 -0.546875 0.296875 -1.203125q0 -0.609375 -0.265625 -1.0625q-0.25 -0.46875 -0.734375 -0.828125q-0.5 -0.34375 -1.21875 -0.59375q-0.71875 -0.25 -1.625 -0.453125q-0.6875 -0.125 -1.140625 -0.265625q-0.453125 -0.15625 -0.71875 -0.34375q-0.28125 -0.171875 -0.390625 -0.40625q-0.109375 -0.234375 -0.109375 -0.515625q0 -0.28125 0.140625 -0.546875q0.140625 -0.265625 0.40625 -0.46875q0.265625 -0.203125 0.671875 -0.3125q0.40625 -0.125 0.953125 -0.125q0.515625 0 0.921875 0.15625q0.421875 0.140625 0.71875 0.375q0.28125 0.234375 0.4375 0.546875q0.171875 0.296875 0.171875 0.625l1.6875 0q0 -0.65625 -0.28125 -1.21875q-0.265625 -0.5625 -0.78125 -0.96875q-0.515625 -0.421875 -1.25 -0.65625q-0.71875 -0.234375 -1.625 -0.234375q-0.859375 0 -1.5625 0.234375q-0.703125 0.21875 -1.21875 0.609375q-0.5 0.390625 -0.78125 0.921875q-0.28125 0.515625 -0.28125 1.109375q0 0.609375 0.265625 1.078125q0.28125 0.453125 0.78125 0.796875q0.484375 0.34375 1.171875 0.59375q0.703125 0.234375 1.5625 0.421875q0.6875 0.125 1.140625 0.296875q0.46875 0.171875 0.75 0.375q0.28125 0.203125 0.40625 0.4375q0.125 0.234375 0.125 0.546875zm10.539322 -11.171875l0 -1.375l-3.609375 0l0 18.0l3.609375 0l0 -1.390625l-2.015625 0l0 -15.234375l2.015625 0zm7.398697 -1.375l0 1.375l2.03125 0l0 15.234375l-2.03125 0l0 1.390625l3.625 0l0 -18.0l-3.625 0zm28.406769 8.046875l0 -1.46875l-8.125 0l0 1.46875l8.125 0zm0 3.78125l0 -1.453125l-8.125 0l0 1.453125l8.125 0zm21.594269 6.65625l0.1875 -1.046875q-0.5625 -0.015625 -0.9375 -0.3125q-0.359375 -0.28125 -0.578125 -0.734375q-0.234375 -0.453125 -0.328125 -1.015625q-0.078125 -0.5625 -0.078125 -1.125l0 -1.53125q-0.015625 -1.09375 -0.515625 -1.90625q-0.5 -0.828125 -1.5625 -1.25q1.0625 -0.421875 1.5625 -1.25q0.515625 -0.828125 0.515625 -1.921875l0 -1.546875q0 -0.5625 0.046875 -1.125q0.0625 -0.5625 0.265625 -1.015625q0.1875 -0.453125 0.5625 -0.734375q0.390625 -0.296875 1.046875 -0.3125l-0.1875 -1.046875q-0.921875 0.03125 -1.5625 0.40625q-0.640625 0.359375 -1.046875 0.9375q-0.4375 0.609375 -0.640625 1.390625q-0.1875 0.765625 -0.1875 1.5l0 1.546875q0 1.328125 -0.625 1.921875q-0.609375 0.578125 -1.90625 0.578125l0 1.3125q1.296875 0.015625 1.90625 0.609375q0.625 0.59375 0.625 1.90625l0 1.53125q0 0.734375 0.203125 1.46875q0.21875 0.75 0.625 1.34375q0.4375 0.640625 1.078125 1.015625q0.65625 0.390625 1.53125 0.40625zm20.531769 -3.328125l0 -13.265625l-0.125 0l-5.03125 1.9375l0 1.53125l3.46875 -1.3125l0 11.109375l1.6875 0zm10.008072 -0.390625l0 -1.609375l-1.828125 0l0 1.640625q0 0.765625 -0.1875 1.484375q-0.1875 0.71875 -0.625 1.359375l1.046875 0.578125q0.734375 -0.65625 1.15625 -1.609375q0.4375 -0.9375 0.4375 -1.84375zm26.250519 0.390625l0 -1.375l-6.65625 0l3.5625 -3.859375q0.5 -0.546875 0.953125 -1.09375q0.453125 -0.5625 0.796875 -1.125q0.328125 -0.5625 0.53125 -1.140625q0.203125 -0.578125 0.203125 -1.171875q0 -0.796875 -0.28125 -1.46875q-0.28125 -0.671875 -0.796875 -1.15625q-0.515625 -0.5 -1.265625 -0.78125q-0.75 -0.28125 -1.6875 -0.28125q-1.03125 0 -1.828125 0.328125q-0.796875 0.328125 -1.34375 0.890625q-0.546875 0.5625 -0.84375 1.3125q-0.28125 0.734375 -0.28125 1.5625l1.6875 0q0 -0.609375 0.15625 -1.109375q0.15625 -0.515625 0.484375 -0.859375q0.328125 -0.34375 0.8125 -0.53125q0.484375 -0.203125 1.15625 -0.203125q0.546875 0 0.96875 0.1875q0.4375 0.1875 0.75 0.5q0.296875 0.328125 0.453125 0.765625q0.171875 0.421875 0.171875 0.921875q0 0.390625 -0.109375 0.78125q-0.09375 0.375 -0.328125 0.796875q-0.25 0.421875 -0.640625 0.921875q-0.390625 0.5 -0.96875 1.140625l-4.34375 4.828125l0 1.21875l8.6875 0zm7.336212 -0.390625l0 -1.609375l-1.828125 0l0 1.640625q0 0.765625 -0.1875 1.484375q-0.1875 0.71875 -0.625 1.359375l1.046875 0.578125q0.734375 -0.65625 1.15625 -1.609375q0.4375 -0.9375 0.4375 -1.84375zm20.078644 -7.046875l0 1.359375l1.203125 0q0.640625 0 1.15625 0.15625q0.53125 0.140625 0.90625 0.4375q0.359375 0.296875 0.5625 0.75q0.203125 0.453125 0.203125 1.078125q0 0.625 -0.1875 1.09375q-0.171875 0.453125 -0.5 0.765625q-0.328125 0.296875 -0.796875 0.453125q-0.453125 0.15625 -1.03125 0.15625q-0.578125 0 -1.046875 -0.15625q-0.46875 -0.171875 -0.796875 -0.484375q-0.328125 -0.296875 -0.5 -0.71875q-0.171875 -0.4375 -0.171875 -0.953125l-1.6875 0q0 0.875 0.328125 1.5625q0.328125 0.6875 0.90625 1.15625q0.5625 0.46875 1.328125 0.71875q0.765625 0.25 1.640625 0.25q0.890625 0 1.65625 -0.265625q0.78125 -0.265625 1.34375 -0.765625q0.5625 -0.484375 0.875 -1.203125q0.328125 -0.71875 0.328125 -1.65625q0 -0.453125 -0.109375 -0.90625q-0.09375 -0.46875 -0.359375 -0.890625q-0.265625 -0.421875 -0.703125 -0.75q-0.421875 -0.34375 -1.078125 -0.5625q0.546875 -0.21875 0.921875 -0.5625q0.390625 -0.34375 0.640625 -0.734375q0.25 -0.375 0.359375 -0.78125q0.125 -0.421875 0.125 -0.796875q0 -0.921875 -0.296875 -1.625q-0.28125 -0.703125 -0.8125 -1.171875q-0.53125 -0.484375 -1.265625 -0.71875q-0.734375 -0.25 -1.625 -0.25q-0.921875 0 -1.6875 0.296875q-0.75 0.28125 -1.28125 0.78125q-0.53125 0.5 -0.828125 1.171875q-0.296875 0.65625 -0.296875 1.421875l1.6875 0q0 -0.515625 0.171875 -0.9375q0.171875 -0.421875 0.5 -0.71875q0.3125 -0.296875 0.75 -0.453125q0.4375 -0.171875 0.984375 -0.171875q0.546875 0 0.984375 0.140625q0.4375 0.140625 0.71875 0.421875q0.296875 0.296875 0.453125 0.734375q0.15625 0.4375 0.15625 1.03125q0 0.5 -0.171875 0.921875q-0.171875 0.421875 -0.5 0.71875q-0.328125 0.3125 -0.828125 0.484375q-0.484375 0.171875 -1.125 0.171875l-1.203125 0zm13.508057 7.046875l0 -1.609375l-1.828125 0l0 1.640625q0 0.765625 -0.1875 1.484375q-0.1875 0.71875 -0.625 1.359375l1.046875 0.578125q0.734375 -0.65625 1.15625 -1.609375q0.4375 -0.9375 0.4375 -1.84375zm24.953613 -4.0625l0 -8.8125l-1.796875 0l-5.9375 9.1875l0 1.0l6.046875 0l0 3.078125l1.6875 0l0 -3.078125l1.84375 0l0 -1.375l-1.84375 0zm-5.875 0l3.90625 -6.0625l0.28125 -0.5l0 6.5625l-4.1875 0zm14.508057 4.0625l0 -1.609375l-1.828125 0l0 1.640625q0 0.765625 -0.1875 1.484375q-0.1875 0.71875 -0.625 1.359375l1.046875 0.578125q0.734375 -0.65625 1.15625 -1.609375q0.4375 -0.9375 0.4375 -1.84375zm18.719238 -6.265625l1.34375 0.359375q0.234375 -0.203125 0.4375 -0.359375q0.21875 -0.15625 0.46875 -0.265625q0.25 -0.109375 0.546875 -0.171875q0.3125 -0.0625 0.734375 -0.0625q0.625 0 1.109375 0.234375q0.5 0.21875 0.84375 0.625q0.328125 0.390625 0.5 0.9375q0.1875 0.53125 0.1875 1.15625q0 0.671875 -0.15625 1.234375q-0.15625 0.5625 -0.46875 0.953125q-0.3125 0.390625 -0.78125 0.609375q-0.46875 0.21875 -1.0625 0.21875q-1.078125 0 -1.75 -0.578125q-0.671875 -0.59375 -0.828125 -1.71875l-1.609375 0q0.09375 0.921875 0.453125 1.609375q0.359375 0.6875 0.921875 1.140625q0.5625 0.46875 1.28125 0.703125q0.71875 0.21875 1.53125 0.21875q1.046875 0 1.828125 -0.328125q0.796875 -0.34375 1.3125 -0.9375q0.5 -0.578125 0.75 -1.390625q0.265625 -0.8125 0.265625 -1.765625q0 -1.0 -0.28125 -1.8125q-0.265625 -0.828125 -0.78125 -1.40625q-0.5 -0.578125 -1.234375 -0.890625q-0.734375 -0.3125 -1.640625 -0.3125q-0.71875 0 -1.265625 0.171875q-0.546875 0.171875 -0.9375 0.390625l0.359375 -3.53125l5.390625 0l0 -1.640625l-6.8125 0l-0.65625 6.609375zm23.141113 8.9375l0.203125 1.046875q0.890625 -0.015625 1.53125 -0.40625q0.640625 -0.390625 1.078125 -1.0q0.421875 -0.609375 0.609375 -1.359375q0.203125 -0.734375 0.203125 -1.46875l0 -1.53125q0 -0.640625 0.140625 -1.109375q0.15625 -0.46875 0.453125 -0.765625q0.3125 -0.328125 0.796875 -0.46875q0.484375 -0.15625 1.140625 -0.171875l0 -1.3125q-0.734375 0 -1.28125 -0.1875q-0.53125 -0.203125 -0.828125 -0.640625q-0.203125 -0.296875 -0.3125 -0.703125q-0.109375 -0.421875 -0.109375 -0.96875l0 -1.546875q0 -0.765625 -0.203125 -1.546875q-0.203125 -0.78125 -0.671875 -1.40625q-0.40625 -0.5625 -1.046875 -0.90625q-0.625 -0.34375 -1.5 -0.375l-0.1875 1.046875q0.65625 0.015625 1.03125 0.3125q0.390625 0.28125 0.59375 0.734375q0.1875 0.453125 0.234375 1.015625q0.0625 0.5625 0.0625 1.125l0 1.546875q0 0.71875 0.203125 1.328125q0.21875 0.59375 0.65625 1.046875q0.234375 0.25 0.53125 0.453125q0.3125 0.203125 0.671875 0.34375q-0.34375 0.140625 -0.640625 0.34375q-0.296875 0.1875 -0.546875 0.421875q-0.4375 0.453125 -0.65625 1.0625q-0.21875 0.609375 -0.21875 1.328125l0 1.53125q0 0.5625 -0.09375 1.125q-0.09375 0.5625 -0.3125 1.015625q-0.21875 0.453125 -0.59375 0.734375q-0.375 0.296875 -0.9375 0.3125zm13.148682 -11.359375q0 0.53125 0.328125 0.90625q0.34375 0.359375 1.0 0.359375q0.640625 0 0.984375 -0.359375q0.34375 -0.375 0.34375 -0.90625q0 -0.546875 -0.34375 -0.921875q-0.328125 -0.375 -0.984375 -0.375q-0.671875 0 -1.0 0.390625q-0.328125 0.375 -0.328125 0.90625zm2.171875 8.6875l0 -1.609375l-1.828125 0l0 1.640625q0 0.765625 -0.1875 1.484375q-0.1875 0.71875 -0.625 1.359375l1.046875 0.578125q0.734375 -0.65625 1.15625 -1.609375q0.4375 -0.9375 0.4375 -1.84375z" fill-rule="nonzero"/><path fill="#000000" fill-opacity="0.0" d="m19.56168 71.0105l37.795277 0l0 37.795273l-37.795277 0z" fill-rule="evenodd"/><path stroke="#000000" stroke-width="2.0" stroke-linejoin="round" stroke-linecap="butt" d="m19.56168 71.0105l37.795277 0l0 37.795273l-37.795277 0z" fill-rule="evenodd"/><path fill="#000000" d="m39.978848 95.768135l-1.40625 0l0 -8.96875q-0.515625 0.484375 -1.34375 0.96875q-0.8125 0.484375 -1.46875 0.734375l0 -1.359375q1.171875 -0.5625 2.046875 -1.34375q0.890625 -0.796875 1.265625 -1.53125l0.90625 0l0 11.5z" fill-rule="nonzero"/><path fill="#000000" fill-opacity="0.0" d="m65.19948 71.0105l37.795273 0l0 37.795273l-37.795273 0z" fill-rule="evenodd"/><path stroke="#000000" stroke-width="2.0" stroke-linejoin="round" stroke-linecap="butt" d="m65.19948 71.0105l37.795273 0l0 37.795273l-37.795273 0z" fill-rule="evenodd"/><path fill="#000000" d="m87.710396 94.40876l0 1.359375l-7.578125 0q-0.015625 -0.515625 0.171875 -0.984375q0.28125 -0.765625 0.921875 -1.515625q0.640625 -0.75 1.84375 -1.734375q1.859375 -1.53125 2.515625 -2.421875q0.65625 -0.90625 0.65625 -1.703125q0 -0.828125 -0.59375 -1.40625q-0.59375 -0.578125 -1.5625 -0.578125q-1.015625 0 -1.625 0.609375q-0.609375 0.609375 -0.609375 1.6875l-1.453125 -0.140625q0.15625 -1.625 1.125 -2.46875q0.96875 -0.84375 2.59375 -0.84375q1.65625 0 2.609375 0.921875q0.96875 0.90625 0.96875 2.25q0 0.6875 -0.28125 1.359375q-0.28125 0.65625 -0.9375 1.390625q-0.65625 0.734375 -2.171875 2.015625q-1.265625 1.0625 -1.625 1.453125q-0.359375 0.375 -0.59375 0.75l5.625 0z" fill-rule="nonzero"/><path fill="#000000" fill-opacity="0.0" d="m110.83727 71.0105l37.79528 0l0 37.795273l-37.79528 0z" fill-rule="evenodd"/><path stroke="#000000" stroke-width="2.0" stroke-linejoin="round" stroke-linecap="butt" d="m110.83727 71.0105l37.79528 0l0 37.795273l-37.79528 0z" fill-rule="evenodd"/><path fill="#000000" d="m125.957565 92.736885l1.40625 -0.1875q0.25 1.203125 0.828125 1.734375q0.578125 0.515625 1.421875 0.515625q0.984375 0 1.671875 -0.6875q0.6875 -0.6875 0.6875 -1.703125q0 -0.96875 -0.640625 -1.59375q-0.625 -0.625 -1.609375 -0.625q-0.390625 0 -0.984375 0.15625l0.15625 -1.234375q0.140625 0.015625 0.21875 0.015625q0.90625 0 1.625 -0.46875q0.71875 -0.46875 0.71875 -1.453125q0 -0.765625 -0.53125 -1.265625q-0.515625 -0.515625 -1.34375 -0.515625q-0.828125 0 -1.375 0.515625q-0.546875 0.515625 -0.703125 1.546875l-1.40625 -0.25q0.265625 -1.421875 1.171875 -2.1875q0.921875 -0.78125 2.28125 -0.78125q0.9375 0 1.71875 0.40625q0.796875 0.390625 1.203125 1.09375q0.421875 0.6875 0.421875 1.46875q0 0.75 -0.40625 1.359375q-0.390625 0.609375 -1.171875 0.96875q1.015625 0.234375 1.578125 0.96875q0.5625 0.734375 0.5625 1.84375q0 1.5 -1.09375 2.546875q-1.09375 1.046875 -2.765625 1.046875q-1.5 0 -2.5 -0.890625q-1.0 -0.90625 -1.140625 -2.34375z" fill-rule="nonzero"/><path fill="#000000" fill-opacity="0.0" d="m156.47507 71.0105l37.795273 0l0 37.795273l-37.795273 0z" fill-rule="evenodd"/><path stroke="#000000" stroke-width="2.0" stroke-linejoin="round" stroke-linecap="butt" d="m156.47507 71.0105l37.795273 0l0 37.795273l-37.795273 0z" fill-rule="evenodd"/><path fill="#000000" d="m176.09535 95.768135l0 -2.75l-4.96875 0l0 -1.28125l5.234375 -7.421875l1.140625 0l0 7.421875l1.546875 0l0 1.28125l-1.546875 0l0 2.75l-1.40625 0zm0 -4.03125l0 -5.171875l-3.578125 5.171875l3.578125 0z" fill-rule="nonzero"/><path fill="#000000" fill-opacity="0.0" d="m202.11285 71.0105l37.795288 0l0 37.795273l-37.795288 0z" fill-rule="evenodd"/><path stroke="#000000" stroke-width="2.0" stroke-linejoin="round" stroke-linecap="butt" d="m202.11285 71.0105l37.795288 0l0 37.795273l-37.795288 0z" fill-rule="evenodd"/><path fill="#000000" d="m217.23315 92.768135l1.46875 -0.125q0.171875 1.078125 0.765625 1.625q0.59375 0.53125 1.4375 0.53125q1.015625 0 1.71875 -0.765625q0.703125 -0.765625 0.703125 -2.03125q0 -1.203125 -0.671875 -1.890625q-0.671875 -0.703125 -1.765625 -0.703125q-0.6875 0 -1.234375 0.3125q-0.546875 0.3125 -0.859375 0.796875l-1.3125 -0.171875l1.109375 -5.875l5.6875 0l0 1.34375l-4.5625 0l-0.625 3.078125q1.03125 -0.71875 2.171875 -0.71875q1.5 0 2.53125 1.046875q1.03125 1.03125 1.03125 2.65625q0 1.5625 -0.90625 2.6875q-1.109375 1.40625 -3.015625 1.40625q-1.5625 0 -2.546875 -0.875q-0.984375 -0.890625 -1.125 -2.328125z" fill-rule="nonzero"/><path fill="#000000" fill-opacity="0.0" d="m202.11285 104.65092l37.795288 0l0 35.55906l-37.795288 0z" fill-rule="evenodd"/><path fill="#000000" d="m221.61676 126.45092l0 -2.28125l-4.140625 0l0 -1.078125l4.34375 -6.1875l0.96875 0l0 6.1875l1.28125 0l0 1.078125l-1.28125 0l0 2.28125l-1.171875 0zm0 -3.359375l0 -4.296875l-2.984375 4.296875l2.984375 0z" fill-rule="nonzero"/><path fill="#000000" fill-opacity="0.0" d="m156.47507 104.65092l37.795273 0l0 35.55906l-37.795273 0z" fill-rule="evenodd"/><path fill="#000000" d="m172.22896 123.935295l1.171875 -0.15625q0.203125 1.0 0.6875 1.4375q0.484375 0.4375 1.171875 0.4375q0.828125 0 1.390625 -0.578125q0.578125 -0.578125 0.578125 -1.421875q0 -0.796875 -0.53125 -1.3125q-0.515625 -0.53125 -1.328125 -0.53125q-0.34375 0 -0.828125 0.125l0.125 -1.03125q0.125 0.015625 0.1875 0.015625q0.75 0 1.34375 -0.390625q0.609375 -0.390625 0.609375 -1.203125q0 -0.640625 -0.4375 -1.0625q-0.4375 -0.421875 -1.125 -0.421875q-0.6875 0 -1.140625 0.4375q-0.453125 0.421875 -0.59375 1.28125l-1.171875 -0.21875q0.21875 -1.171875 0.984375 -1.8125q0.765625 -0.65625 1.890625 -0.65625q0.78125 0 1.4375 0.34375q0.65625 0.328125 1.0 0.90625q0.359375 0.578125 0.359375 1.234375q0 0.609375 -0.34375 1.125q-0.328125 0.5 -0.96875 0.796875q0.84375 0.203125 1.3125 0.828125q0.46875 0.609375 0.46875 1.53125q0 1.25 -0.921875 2.125q-0.90625 0.859375 -2.296875 0.859375q-1.25 0 -2.09375 -0.75q-0.828125 -0.75 -0.9375 -1.9375z" fill-rule="nonzero"/><path fill="#000000" fill-opacity="0.0" d="m110.83727 104.65092l37.79528 0l0 35.55906l-37.79528 0z" fill-rule="evenodd"/><path fill="#000000" d="m132.7318 125.32592l0 1.125l-6.296875 0q-0.015625 -0.421875 0.140625 -0.8125q0.234375 -0.640625 0.765625 -1.265625q0.53125 -0.625 1.53125 -1.453125q1.5625 -1.265625 2.109375 -2.015625q0.546875 -0.75 0.546875 -1.40625q0 -0.703125 -0.5 -1.171875q-0.5 -0.484375 -1.296875 -0.484375q-0.859375 0 -1.375 0.515625q-0.5 0.5 -0.5 1.390625l-1.203125 -0.109375q0.125 -1.359375 0.921875 -2.0625q0.8125 -0.703125 2.171875 -0.703125q1.375 0 2.171875 0.765625q0.8125 0.75 0.8125 1.875q0 0.578125 -0.234375 1.140625q-0.234375 0.546875 -0.78125 1.15625q-0.546875 0.609375 -1.8125 1.671875q-1.046875 0.890625 -1.359375 1.21875q-0.296875 0.3125 -0.484375 0.625l4.671875 0z" fill-rule="nonzero"/><path fill="#000000" fill-opacity="0.0" d="m19.56168 104.65092l37.795277 0l0 35.55906l-37.795277 0z" fill-rule="evenodd"/><path fill="#000000" d="m35.299953 121.747795q0 -1.6875 0.34375 -2.71875q0.359375 -1.03125 1.046875 -1.59375q0.6875 -0.5625 1.71875 -0.5625q0.78125 0 1.359375 0.3125q0.578125 0.296875 0.953125 0.890625q0.375 0.578125 0.59375 1.421875q0.21875 0.828125 0.21875 2.25q0 1.671875 -0.359375 2.703125q-0.34375 1.03125 -1.03125 1.59375q-0.671875 0.5625 -1.734375 0.5625q-1.375 0 -2.15625 -0.984375q-0.953125 -1.1875 -0.953125 -3.875zm1.203125 0q0 2.34375 0.546875 3.125q0.5625 0.78125 1.359375 0.78125q0.8125 0 1.359375 -0.78125q0.5625 -0.78125 0.5625 -3.125q0 -2.359375 -0.5625 -3.125q-0.546875 -0.78125 -1.359375 -0.78125q-0.8125 0 -1.296875 0.6875q-0.609375 0.875 -0.609375 3.21875z" fill-rule="nonzero"/><path fill="#000000" fill-opacity="0.0" d="m65.19948 104.65092l37.795273 0l0 35.55906l-37.795273 0z" fill-rule="evenodd"/><path fill="#000000" d="m85.35963 126.45092l-1.171875 0l0 -7.46875q-0.421875 0.40625 -1.109375 0.8125q-0.6875 0.40625 -1.234375 0.609375l0 -1.140625q0.984375 -0.453125 1.71875 -1.109375q0.734375 -0.671875 1.03125 -1.28125l0.765625 0l0 9.578125z" fill-rule="nonzero"/><path fill="#000000" fill-opacity="0.0" d="m278.1942 103.04462l141.7323 0l0 38.771652l-141.7323 0z" fill-rule="evenodd"/><path fill="#000000" d="m287.16296 127.40462l4.40625 -11.453125l1.640625 0l4.6875 11.453125l-1.734375 0l-1.328125 -3.46875l-4.796875 0l-1.25 3.46875l-1.625 0zm3.3125 -4.703125l3.890625 0l-1.203125 -3.171875q-0.546875 -1.453125 -0.8125 -2.375q-0.21875 1.09375 -0.609375 2.1875l-1.265625 3.359375zm8.4375 4.703125l0 -8.296875l1.265625 0l0 1.25q0.484375 -0.875 0.890625 -1.15625q0.40625 -0.28125 0.90625 -0.28125q0.703125 0 1.4375 0.453125l-0.484375 1.296875q-0.515625 -0.296875 -1.03125 -0.296875q-0.453125 0 -0.828125 0.28125q-0.359375 0.265625 -0.515625 0.765625q-0.234375 0.75 -0.234375 1.640625l0 4.34375l-1.40625 0zm5.328125 0l0 -8.296875l1.265625 0l0 1.25q0.484375 -0.875 0.890625 -1.15625q0.40625 -0.28125 0.90625 -0.28125q0.703125 0 1.4375 0.453125l-0.484375 1.296875q-0.515625 -0.296875 -1.03125 -0.296875q-0.453125 0 -0.828125 0.28125q-0.359375 0.265625 -0.515625 0.765625q-0.234375 0.75 -0.234375 1.640625l0 4.34375l-1.40625 0zm10.75 -1.03125q-0.78125 0.671875 -1.5 0.953125q-0.71875 0.265625 -1.546875 0.265625q-1.375 0 -2.109375 -0.671875q-0.734375 -0.671875 -0.734375 -1.703125q0 -0.609375 0.28125 -1.109375q0.28125 -0.515625 0.71875 -0.8125q0.453125 -0.3125 1.015625 -0.46875q0.421875 -0.109375 1.25 -0.203125q1.703125 -0.203125 2.515625 -0.484375q0 -0.296875 0 -0.375q0 -0.859375 -0.390625 -1.203125q-0.546875 -0.484375 -1.609375 -0.484375q-0.984375 0 -1.46875 0.359375q-0.46875 0.34375 -0.6875 1.21875l-1.375 -0.1875q0.1875 -0.875 0.609375 -1.421875q0.4375 -0.546875 1.25 -0.828125q0.8125 -0.296875 1.875 -0.296875q1.0625 0 1.71875 0.25q0.671875 0.25 0.984375 0.625q0.3125 0.375 0.4375 0.953125q0.078125 0.359375 0.078125 1.296875l0 1.875q0 1.96875 0.078125 2.484375q0.09375 0.515625 0.359375 1.0l-1.46875 0q-0.21875 -0.4375 -0.28125 -1.03125zm-0.109375 -3.140625q-0.765625 0.3125 -2.296875 0.53125q-0.875 0.125 -1.234375 0.28125q-0.359375 0.15625 -0.5625 0.46875q-0.1875 0.296875 -0.1875 0.65625q0 0.5625 0.421875 0.9375q0.4375 0.375 1.25 0.375q0.8125 0 1.4375 -0.34375q0.640625 -0.359375 0.9375 -0.984375q0.234375 -0.46875 0.234375 -1.40625l0 -0.515625zm3.5390625 7.375l-0.15625 -1.328125q0.453125 0.125 0.796875 0.125q0.46875 0 0.75 -0.15625q0.28125 -0.15625 0.46875 -0.4375q0.125 -0.203125 0.421875 -1.046875q0.046875 -0.109375 0.125 -0.34375l-3.140625 -8.3125l1.515625 0l1.71875 4.796875q0.34375 0.921875 0.609375 1.921875q0.234375 -0.96875 0.578125 -1.890625l1.765625 -4.828125l1.40625 0l-3.15625 8.4375q-0.5 1.375 -0.78125 1.890625q-0.375 0.6875 -0.859375 1.015625q-0.484375 0.328125 -1.15625 0.328125q-0.40625 0 -0.90625 -0.171875zm12.9453125 -3.203125l0 -11.453125l1.515625 0l0 11.453125l-1.515625 0zm4.0078125 0l0 -8.296875l1.265625 0l0 1.171875q0.90625 -1.359375 2.640625 -1.359375q0.75 0 1.375 0.265625q0.625 0.265625 0.9375 0.703125q0.3125 0.4375 0.4375 1.046875q0.078125 0.390625 0.078125 1.359375l0 5.109375l-1.40625 0l0 -5.046875q0 -0.859375 -0.171875 -1.28125q-0.15625 -0.4375 -0.578125 -0.6875q-0.40625 -0.25 -0.96875 -0.25q-0.90625 0 -1.5625 0.578125q-0.640625 0.5625 -0.640625 2.15625l0 4.53125l-1.40625 0zm14.2734375 0l0 -1.046875q-0.78125 1.234375 -2.3125 1.234375q-1.0 0 -1.828125 -0.546875q-0.828125 -0.546875 -1.296875 -1.53125q-0.453125 -0.984375 -0.453125 -2.25q0 -1.25 0.40625 -2.25q0.421875 -1.015625 1.25 -1.546875q0.828125 -0.546875 1.859375 -0.546875q0.75 0 1.328125 0.3125q0.59375 0.3125 0.953125 0.828125l0 -4.109375l1.40625 0l0 11.453125l-1.3125 0zm-4.4375 -4.140625q0 1.59375 0.671875 2.390625q0.671875 0.78125 1.578125 0.78125q0.921875 0 1.5625 -0.75q0.65625 -0.765625 0.65625 -2.3125q0 -1.703125 -0.65625 -2.5q-0.65625 -0.796875 -1.625 -0.796875q-0.9375 0 -1.5625 0.765625q-0.625 0.765625 -0.625 2.421875zm7.9609375 -5.703125l0 -1.609375l1.40625 0l0 1.609375l-1.40625 0zm0 9.84375l0 -8.296875l1.40625 0l0 8.296875l-1.40625 0zm2.8046875 0l0 -1.140625l5.28125 -6.0625q-0.890625 0.046875 -1.578125 0.046875l-3.390625 0l0 -1.140625l6.78125 0l0 0.921875l-4.484375 5.265625l-0.875 0.96875q0.953125 -0.078125 1.78125 -0.078125l3.828125 0l0 1.21875l-7.34375 0zm14.421875 -2.671875l1.453125 0.171875q-0.34375 1.28125 -1.28125 1.984375q-0.921875 0.703125 -2.359375 0.703125q-1.828125 0 -2.890625 -1.125q-1.0625 -1.125 -1.0625 -3.140625q0 -2.09375 1.078125 -3.25q1.078125 -1.15625 2.796875 -1.15625q1.65625 0 2.703125 1.140625q1.0625 1.125 1.0625 3.171875q0 0.125 0 0.375l-6.1875 0q0.078125 1.375 0.765625 2.109375q0.703125 0.71875 1.734375 0.71875q0.78125 0 1.328125 -0.40625q0.546875 -0.40625 0.859375 -1.296875zm-4.609375 -2.28125l4.625 0q-0.09375 -1.046875 -0.53125 -1.5625q-0.671875 -0.8125 -1.734375 -0.8125q-0.96875 0 -1.640625 0.65625q-0.65625 0.640625 -0.71875 1.71875zm7.2734375 2.46875l1.390625 -0.21875q0.109375 0.84375 0.640625 1.296875q0.546875 0.4375 1.5 0.4375q0.96875 0 1.4375 -0.390625q0.46875 -0.40625 0.46875 -0.9375q0 -0.46875 -0.40625 -0.75q-0.296875 -0.1875 -1.4375 -0.46875q-1.546875 -0.390625 -2.15625 -0.671875q-0.59375 -0.296875 -0.90625 -0.796875q-0.296875 -0.5 -0.296875 -1.109375q0 -0.5625 0.25 -1.03125q0.25 -0.46875 0.6875 -0.78125q0.328125 -0.25 0.890625 -0.40625q0.578125 -0.171875 1.21875 -0.171875q0.984375 0 1.71875 0.28125q0.734375 0.28125 1.078125 0.765625q0.359375 0.46875 0.5 1.28125l-1.375 0.1875q-0.09375 -0.640625 -0.546875 -1.0q-0.453125 -0.359375 -1.265625 -0.359375q-0.96875 0 -1.390625 0.328125q-0.40625 0.3125 -0.40625 0.734375q0 0.28125 0.171875 0.5q0.171875 0.21875 0.53125 0.375q0.21875 0.078125 1.25 0.359375q1.484375 0.390625 2.078125 0.65625q0.59375 0.25 0.921875 0.734375q0.34375 0.484375 0.34375 1.203125q0 0.703125 -0.421875 1.328125q-0.40625 0.609375 -1.1875 0.953125q-0.765625 0.34375 -1.734375 0.34375q-1.625 0 -2.46875 -0.671875q-0.84375 -0.671875 -1.078125 -2.0z" fill-rule="nonzero"/><path fill="#000000" fill-opacity="0.0" d="m282.99475 122.43044l-43.08661 0" fill-rule="evenodd"/><path stroke="#000000" stroke-width="2.0" stroke-linejoin="round" stroke-linecap="butt" d="m282.99475 122.43044l-31.086609 0" fill-rule="evenodd"/><path fill="#000000" stroke="#000000" stroke-width="2.0" stroke-linecap="butt" d="m251.90814 119.12698l-9.076202 3.3034592l9.076202 3.3034668z" fill-rule="evenodd"/></g></svg>