<svg version="1.1" viewBox="0.0 0.0 731.3280839895014 159.86089238845145" fill="none" stroke="none" stroke-linecap="square" stroke-miterlimit="10" xmlns:xlink="http://www.w3.org/1999/xlink" xmlns="http://www.w3.org/2000/svg"><clipPath id="p.0"><path d="m0 0l731.32806 0l0 159.86089l-731.32806 0l0 -159.86089z" clip-rule="nonzero"/></clipPath><g clip-path="url(#p.0)"><path fill="#000000" fill-opacity="0.0" d="m0 0l731.32806 0l0 159.86089l-731.32806 0z" fill-rule="evenodd"/><path fill="#000000" fill-opacity="0.0" d="m136.83464 54.3832l142.92915 0l0 37.795273l-142.92915 0z" fill-rule="evenodd"/><path stroke="#000000" stroke-width="2.0" stroke-linejoin="round" stroke-linecap="butt" d="m136.83464 54.3832l142.92915 0l0 37.795273l-142.92915 0z" fill-rule="evenodd"/><path fill="#000000" fill-opacity="0.0" d="m136.83464 92.178474l142.92915 0l0 37.79528l-142.92915 0z" fill-rule="evenodd"/><path stroke="#000000" stroke-width="2.0" stroke-linejoin="round" stroke-linecap="butt" d="m136.83464 92.178474l142.92915 0l0 37.79528l-142.92915 0z" fill-rule="evenodd"/><path fill="#000000" d="m212.42017 117.99612l0 -1.375l-6.65625 0l3.5625 -3.859375q0.5 -0.546875 0.953125 -1.09375q0.453125 -0.5625 0.796875 -1.125q0.328125 -0.5625 0.53125 -1.140625q0.203125 -0.578125 0.203125 -1.171875q0 -0.796875 -0.28125 -1.46875q-0.28125 -0.671875 -0.796875 -1.15625q-0.515625 -0.5 -1.265625 -0.78125q-0.75 -0.28125 -1.6875 -0.28125q-1.03125 0 -1.828125 0.328125q-0.796875 0.328125 -1.34375 0.890625q-0.546875 0.5625 -0.84375 1.3125q-0.28125 0.734375 -0.28125 1.5625l1.6875 0q0 -0.609375 0.15625 -1.109375q0.15625 -0.515625 0.484375 -0.859375q0.328125 -0.34375 0.8125 -0.53125q0.484375 -0.203125 1.15625 -0.203125q0.546875 0 0.96875 0.1875q0.4375 0.1875 0.75 0.5q0.296875 0.328125 0.453125 0.765625q0.171875 0.421875 0.171875 0.921875q0 0.390625 -0.109375 0.78125q-0.09375 0.375 -0.328125 0.796875q-0.25 0.421875 -0.640625 0.921875q-0.390625 0.5 -0.96875 1.140625l-4.34375 4.828125l0 1.21875l8.6875 0z" fill-rule="nonzero"/><path fill="#000000" fill-opacity="0.0" d="m24.48819 54.3832l112.34645 0l0 37.795273l-112.34645 0z" fill-rule="evenodd"/><path fill="#000000" d="m72.25652 70.29008l-1.296875 0l0 8.453125l1.375 0l0 -6.734375q0.046875 -0.125 0.109375 -0.234375q0.078125 -0.109375 0.1875 -0.1875q0.125 -0.109375 0.3125 -0.171875q0.203125 -0.0625 0.453125 -0.0625q0.234375 0 0.40625 0.0625q0.1875 0.0625 0.296875 0.1875q0.125 0.125 0.1875 0.328125q0.0625 0.203125 0.0625 0.46875l0 6.34375l1.375 0l0 -6.328125q0 -0.046875 0 -0.078125q0 -0.046875 0 -0.078125q0.015625 -0.203125 0.078125 -0.359375q0.078125 -0.15625 0.203125 -0.28125q0.125 -0.125 0.3125 -0.1875q0.1875 -0.078125 0.453125 -0.078125q0.234375 0 0.421875 0.0625q0.1875 0.0625 0.3125 0.1875q0.109375 0.140625 0.171875 0.34375q0.0625 0.203125 0.0625 0.46875l0 6.328125l1.375 0l0 -6.3125q0 -0.609375 -0.140625 -1.0625q-0.140625 -0.453125 -0.40625 -0.734375q-0.234375 -0.25 -0.59375 -0.375q-0.34375 -0.125 -0.78125 -0.125q-0.328125 0 -0.59375 0.078125q-0.265625 0.078125 -0.484375 0.21875q-0.171875 0.109375 -0.328125 0.265625q-0.140625 0.15625 -0.25 0.34375q-0.09375 -0.203125 -0.21875 -0.359375q-0.109375 -0.15625 -0.265625 -0.265625q-0.203125 -0.140625 -0.46875 -0.203125q-0.265625 -0.078125 -0.609375 -0.078125q-0.59375 0 -1.015625 0.25q-0.40625 0.25 -0.671875 0.703125l-0.03125 -0.796875zm15.9453125 9.640625l0 -1.1875l-7.15625 0l0 1.1875l7.15625 0zm8.1328125 -9.796875q-0.921875 0 -1.65625 0.40625q-0.71875 0.390625 -1.234375 1.09375l0 -0.21875l-0.0625 -1.125l-1.375 0l0 8.453125l1.453125 0l0 -5.421875q0.140625 -0.390625 0.34375 -0.703125q0.21875 -0.328125 0.515625 -0.546875q0.3125 -0.25 0.734375 -0.375q0.4375 -0.125 0.96875 -0.125q0.421875 0 0.796875 0.046875q0.375 0.03125 0.796875 0.125l0.203125 -1.40625q-0.21875 -0.09375 -0.65625 -0.140625q-0.4375 -0.0625 -0.828125 -0.0625zm3.6484375 4.296875l0 0.171875q0 0.921875 0.265625 1.703125q0.265625 0.78125 0.765625 1.359375q0.5 0.578125 1.203125 0.90625q0.71875 0.328125 1.625 0.328125q0.890625 0 1.59375 -0.328125q0.71875 -0.328125 1.21875 -0.90625q0.484375 -0.578125 0.75 -1.359375q0.265625 -0.78125 0.265625 -1.703125l0 -0.171875q0 -0.90625 -0.265625 -1.6875q-0.265625 -0.796875 -0.75 -1.375q-0.5 -0.578125 -1.21875 -0.90625q-0.71875 -0.328125 -1.609375 -0.328125q-0.890625 0 -1.609375 0.328125q-0.703125 0.328125 -1.203125 0.90625q-0.5 0.578125 -0.765625 1.375q-0.265625 0.78125 -0.265625 1.6875zm1.453125 0.171875l0 -0.171875q0 -0.609375 0.140625 -1.171875q0.15625 -0.578125 0.453125 -1.0q0.296875 -0.4375 0.734375 -0.6875q0.453125 -0.25 1.0625 -0.25q0.59375 0 1.046875 0.25q0.453125 0.25 0.75 0.6875q0.296875 0.421875 0.453125 1.0q0.15625 0.5625 0.15625 1.171875l0 0.171875q0 0.625 -0.15625 1.203125q-0.140625 0.5625 -0.4375 0.984375q-0.3125 0.4375 -0.765625 0.6875q-0.4375 0.25 -1.03125 0.25q-0.609375 0 -1.0625 -0.25q-0.453125 -0.25 -0.75 -0.6875q-0.296875 -0.421875 -0.453125 -0.984375q-0.140625 -0.578125 -0.140625 -1.203125zm8.1484375 -0.171875l0 0.171875q0 0.921875 0.265625 1.703125q0.265625 0.78125 0.765625 1.359375q0.5 0.578125 1.203125 0.90625q0.71875 0.328125 1.625 0.328125q0.890625 0 1.59375 -0.328125q0.71875 -0.328125 1.21875 -0.90625q0.484375 -0.578125 0.75 -1.359375q0.265625 -0.78125 0.265625 -1.703125l0 -0.171875q0 -0.90625 -0.265625 -1.6875q-0.265625 -0.796875 -0.75 -1.375q-0.5 -0.578125 -1.21875 -0.90625q-0.71875 -0.328125 -1.609375 -0.328125q-0.890625 0 -1.609375 0.328125q-0.703125 0.328125 -1.203125 0.90625q-0.5 0.578125 -0.765625 1.375q-0.265625 0.78125 -0.265625 1.6875zm1.453125 0.171875l0 -0.171875q0 -0.609375 0.140625 -1.171875q0.15625 -0.578125 0.453125 -1.0q0.296875 -0.4375 0.734375 -0.6875q0.453125 -0.25 1.0625 -0.25q0.59375 0 1.046875 0.25q0.453125 0.25 0.75 0.6875q0.296875 0.421875 0.453125 1.0q0.15625 0.5625 0.15625 1.171875l0 0.171875q0 0.625 -0.15625 1.203125q-0.140625 0.5625 -0.4375 0.984375q-0.3125 0.4375 -0.765625 0.6875q-0.4375 0.25 -1.03125 0.25q-0.609375 0 -1.0625 -0.25q-0.453125 -0.25 -0.75 -0.6875q-0.296875 -0.421875 -0.453125 -0.984375q-0.140625 -0.578125 -0.140625 -1.203125zm11.9765625 -6.359375l-1.453125 0l0 2.046875l-2.21875 0l0 1.109375l2.21875 0l0 4.59375q0 0.78125 0.203125 1.34375q0.21875 0.546875 0.578125 0.890625q0.359375 0.34375 0.84375 0.515625q0.484375 0.15625 1.046875 0.15625q0.34375 0 0.671875 -0.03125q0.34375 -0.03125 0.65625 -0.09375q0.296875 -0.0625 0.546875 -0.140625q0.265625 -0.078125 0.453125 -0.1875l-0.203125 -1.03125q-0.140625 0.03125 -0.34375 0.078125q-0.203125 0.046875 -0.4375 0.078125q-0.25 0.046875 -0.5 0.078125q-0.25 0.015625 -0.484375 0.015625q-0.3125 0 -0.609375 -0.078125q-0.28125 -0.078125 -0.5 -0.265625q-0.21875 -0.1875 -0.34375 -0.5q-0.125 -0.328125 -0.125 -0.828125l0 -4.59375l3.21875 0l0 -1.109375l-3.21875 0l0 -2.046875z" fill-rule="nonzero"/><path fill="#000000" fill-opacity="0.0" d="m24.48819 92.178474l112.34645 0l0 37.79528l-112.34645 0z" fill-rule="evenodd"/><path fill="#000000" d="m62.65496 108.08535l-1.296875 0l0 8.453125l1.375 0l0 -6.734375q0.046875 -0.125 0.109375 -0.234375q0.078125 -0.109375 0.1875 -0.1875q0.125 -0.109375 0.3125 -0.171875q0.203125 -0.0625 0.453125 -0.0625q0.234375 0 0.40625 0.0625q0.1875 0.0625 0.296875 0.1875q0.125 0.125 0.1875 0.328125q0.0625 0.203125 0.0625 0.46875l0 6.34375l1.375 0l0 -6.328125q0 -0.046875 0 -0.078125q0 -0.046875 0 -0.078125q0.015625 -0.203125 0.078125 -0.359375q0.078125 -0.15625 0.203125 -0.28125q0.125 -0.125 0.3125 -0.1875q0.1875 -0.078125 0.453125 -0.078125q0.234375 0 0.421875 0.0625q0.1875 0.0625 0.3125 0.1875q0.109375 0.140625 0.171875 0.34375q0.0625 0.203125 0.0625 0.46875l0 6.328125l1.375 0l0 -6.3125q0 -0.609375 -0.140625 -1.0625q-0.140625 -0.453125 -0.40625 -0.734375q-0.234375 -0.25 -0.59375 -0.375q-0.34375 -0.125 -0.78125 -0.125q-0.328125 0 -0.59375 0.078125q-0.265625 0.078125 -0.484375 0.21875q-0.171875 0.109375 -0.328125 0.265625q-0.140625 0.15625 -0.25 0.34375q-0.09375 -0.203125 -0.21875 -0.359375q-0.109375 -0.15625 -0.265625 -0.265625q-0.203125 -0.140625 -0.46875 -0.203125q-0.265625 -0.078125 -0.609375 -0.078125q-0.59375 0 -1.015625 0.25q-0.40625 0.25 -0.671875 0.703125l-0.03125 -0.796875zm15.9453125 9.640625l0 -1.1875l-7.15625 0l0 1.1875l7.15625 0zm6.1953125 -2.203125q-0.6875 0 -1.140625 -0.265625q-0.453125 -0.28125 -0.734375 -0.71875q-0.28125 -0.421875 -0.40625 -0.96875q-0.109375 -0.546875 -0.109375 -1.09375l0 -0.328125q0 -0.546875 0.109375 -1.078125q0.125 -0.546875 0.40625 -0.984375q0.28125 -0.4375 0.734375 -0.703125q0.46875 -0.265625 1.140625 -0.265625q0.4375 0 0.8125 0.15625q0.375 0.140625 0.65625 0.390625q0.265625 0.265625 0.421875 0.609375q0.171875 0.328125 0.171875 0.71875l1.375 0q0 -0.640625 -0.265625 -1.203125q-0.25 -0.5625 -0.703125 -0.984375q-0.46875 -0.40625 -1.09375 -0.640625q-0.625 -0.234375 -1.375 -0.234375q-0.96875 0 -1.6875 0.34375q-0.71875 0.34375 -1.1875 0.921875q-0.484375 0.578125 -0.734375 1.34375q-0.234375 0.765625 -0.234375 1.609375l0 0.328125q0 0.84375 0.234375 1.609375q0.25 0.75 0.734375 1.328125q0.46875 0.59375 1.1875 0.9375q0.71875 0.34375 1.6875 0.34375q0.671875 0 1.28125 -0.234375q0.625 -0.234375 1.09375 -0.625q0.484375 -0.375 0.765625 -0.890625q0.28125 -0.515625 0.296875 -1.078125l-1.375 0q0 0.359375 -0.1875 0.65625q-0.171875 0.296875 -0.453125 0.515625q-0.296875 0.234375 -0.671875 0.359375q-0.359375 0.125 -0.75 0.125zm5.5859375 -3.296875l0 0.171875q0 0.921875 0.265625 1.703125q0.265625 0.78125 0.765625 1.359375q0.5 0.578125 1.203125 0.90625q0.71875 0.328125 1.625 0.328125q0.890625 0 1.59375 -0.328125q0.71875 -0.328125 1.21875 -0.90625q0.484375 -0.578125 0.75 -1.359375q0.265625 -0.78125 0.265625 -1.703125l0 -0.171875q0 -0.90625 -0.265625 -1.6875q-0.265625 -0.796875 -0.75 -1.375q-0.5 -0.578125 -1.21875 -0.90625q-0.71875 -0.328125 -1.609375 -0.328125q-0.890625 0 -1.609375 0.328125q-0.703125 0.328125 -1.203125 0.90625q-0.5 0.578125 -0.765625 1.375q-0.265625 0.78125 -0.265625 1.6875zm1.453125 0.171875l0 -0.171875q0 -0.609375 0.140625 -1.171875q0.15625 -0.578125 0.453125 -1.0q0.296875 -0.4375 0.734375 -0.6875q0.453125 -0.25 1.0625 -0.25q0.59375 0 1.046875 0.25q0.453125 0.25 0.75 0.6875q0.296875 0.421875 0.453125 1.0q0.15625 0.5625 0.15625 1.171875l0 0.171875q0 0.625 -0.15625 1.203125q-0.140625 0.5625 -0.4375 0.984375q-0.3125 0.4375 -0.765625 0.6875q-0.4375 0.25 -1.03125 0.25q-0.609375 0 -1.0625 -0.25q-0.453125 -0.25 -0.75 -0.6875q-0.296875 -0.421875 -0.453125 -0.984375q-0.140625 -0.578125 -0.140625 -1.203125zm14.1328125 4.140625l1.3125 0l0 -8.453125l-1.453125 0l0 6.0625q-0.125 0.265625 -0.296875 0.5q-0.171875 0.234375 -0.40625 0.390625q-0.28125 0.203125 -0.671875 0.328125q-0.375 0.109375 -0.859375 0.109375q-0.421875 0 -0.734375 -0.109375q-0.3125 -0.109375 -0.53125 -0.390625q-0.21875 -0.265625 -0.328125 -0.71875q-0.109375 -0.453125 -0.109375 -1.140625l0 -5.03125l-1.453125 0l0 5.015625q0 0.953125 0.203125 1.625q0.21875 0.671875 0.59375 1.109375q0.390625 0.4375 0.921875 0.65625q0.546875 0.203125 1.203125 0.203125q0.828125 0 1.453125 -0.34375q0.640625 -0.359375 1.0625 -0.984375l0.09375 1.171875zm4.0234375 0l1.453125 0l0 -6.0625q0.140625 -0.28125 0.34375 -0.5q0.203125 -0.234375 0.4375 -0.40625q0.28125 -0.1875 0.625 -0.296875q0.34375 -0.125 0.75 -0.125q0.453125 0 0.8125 0.109375q0.359375 0.109375 0.609375 0.359375q0.234375 0.234375 0.359375 0.625q0.125 0.390625 0.125 0.953125l0 5.34375l1.453125 0l0 -5.375q0 -0.84375 -0.21875 -1.453125q-0.203125 -0.609375 -0.578125 -1.015625q-0.390625 -0.390625 -0.9375 -0.578125q-0.53125 -0.1875 -1.203125 -0.1875q-0.484375 0 -0.9375 0.140625q-0.4375 0.140625 -0.8125 0.390625q-0.25 0.15625 -0.46875 0.390625q-0.21875 0.21875 -0.40625 0.484375l-0.109375 -1.25l-1.296875 0l0 8.453125zm13.0234375 -10.5l-1.453125 0l0 2.046875l-2.21875 0l0 1.109375l2.21875 0l0 4.59375q0 0.78125 0.203125 1.34375q0.21875 0.546875 0.578125 0.890625q0.359375 0.34375 0.84375 0.515625q0.484375 0.15625 1.046875 0.15625q0.34375 0 0.671875 -0.03125q0.34375 -0.03125 0.65625 -0.09375q0.296875 -0.0625 0.546875 -0.140625q0.265625 -0.078125 0.453125 -0.1875l-0.203125 -1.03125q-0.140625 0.03125 -0.34375 0.078125q-0.203125 0.046875 -0.4375 0.078125q-0.25 0.046875 -0.5 0.078125q-0.25 0.015625 -0.484375 0.015625q-0.3125 0 -0.609375 -0.078125q-0.28125 -0.078125 -0.5 -0.265625q-0.21875 -0.1875 -0.34375 -0.5q-0.125 -0.328125 -0.125 -0.828125l0 -4.59375l3.21875 0l0 -1.109375l-3.21875 0l0 -2.046875z" fill-rule="nonzero"/><path fill="#000000" fill-opacity="0.0" d="m136.83464 16.587927l142.92915 0l0 37.795273l-142.92915 0z" fill-rule="evenodd"/><path fill="#000000" d="m155.80573 42.070423l0 -11.828123l-1.6875 0l0 13.265623l8.171875 0l0 -1.4375l-6.484375 0zm9.554947 -8.421875l0 1.46875l3.359375 0l0 6.9375l-3.359375 0l0 1.453125l8.265625 0l0 -1.453125l-3.21875 0l0 -8.40625l-5.046875 0zm3.140625 -2.578123q0 0.40625 0.25 0.6875q0.25 0.2656231 0.765625 0.2656231q0.5 0 0.75 -0.2656231q0.25 -0.28125 0.25 -0.6875q0 -0.234375 -0.078125 -0.421875q-0.0625 -0.1875 -0.203125 -0.328125q-0.125 -0.109375 -0.3125 -0.171875q-0.171875 -0.078125 -0.40625 -0.078125q-0.25 0 -0.4375 0.078125q-0.171875 0.0625 -0.296875 0.171875q-0.140625 0.140625 -0.21875 0.34375q-0.0625 0.1875 -0.0625 0.40625zm7.789322 12.437498l1.6875 0l0 -7.0625q0.171875 -0.328125 0.40625 -0.59375q0.234375 -0.265625 0.515625 -0.453125q0.328125 -0.234375 0.71875 -0.359375q0.40625 -0.140625 0.875 -0.140625q0.546875 0 0.953125 0.125q0.421875 0.125 0.703125 0.40625q0.28125 0.296875 0.421875 0.75q0.15625 0.453125 0.15625 1.109375l0 6.21875l1.6875 0l0 -6.265625q0 -0.96875 -0.25 -1.6875q-0.234375 -0.71875 -0.6875 -1.1875q-0.4375 -0.453125 -1.078125 -0.671875q-0.625 -0.21875 -1.40625 -0.21875q-0.5625 0 -1.078125 0.171875q-0.515625 0.15625 -0.953125 0.4375q-0.296875 0.1875 -0.5625 0.453125q-0.25 0.265625 -0.46875 0.5625l-0.125 -1.453125l-1.515625 0l0 9.859375zm14.148697 -4.59375l3.625 4.59375l2.140625 0l-4.609375 -5.75l4.0 -4.109375l-2.046875 0l-3.234375 3.25l-1.109375 1.1875l0 -8.578123l-1.6875 0l0 13.999998l1.6875 0l0 -3.40625l1.234375 -1.1875zm12.601822 4.78125q1.4375 0 2.421875 -0.578125q0.984375 -0.578125 1.46875 -1.328125l-1.03125 -0.796875q-0.46875 0.59375 -1.171875 0.96875q-0.6875 0.359375 -1.59375 0.359375q-0.6875 0 -1.25 -0.25q-0.5625 -0.265625 -0.96875 -0.71875q-0.390625 -0.40625 -0.609375 -0.953125q-0.21875 -0.546875 -0.28125 -1.265625l0 -0.078125l7.03125 0l0 -0.75q0 -1.03125 -0.265625 -1.90625q-0.25 -0.890625 -0.78125 -1.546875q-0.53125 -0.640625 -1.328125 -1.0q-0.796875 -0.375 -1.859375 -0.375q-0.84375 0 -1.65625 0.34375q-0.796875 0.34375 -1.4375 0.984375q-0.625 0.65625 -1.015625 1.609375q-0.375 0.9375 -0.375 2.125l0 0.390625q0 1.03125 0.34375 1.90625q0.34375 0.875 0.96875 1.5q0.609375 0.640625 1.484375 1.0q0.875 0.359375 1.90625 0.359375zm-0.21875 -8.84375q0.65625 0 1.125 0.234375q0.46875 0.234375 0.765625 0.625q0.3125 0.375 0.484375 0.90625q0.171875 0.515625 0.171875 0.984375l0 0.078125l-5.296875 0q0.09375 -0.6875 0.34375 -1.203125q0.265625 -0.53125 0.625 -0.890625q0.359375 -0.359375 0.8125 -0.546875q0.453125 -0.1875 0.96875 -0.1875zm6.742447 3.640625l0 0.203125q0 1.046875 0.28125 1.96875q0.28125 0.90625 0.796875 1.59375q0.5 0.671875 1.21875 1.0625q0.734375 0.375 1.625 0.375q0.921875 0 1.59375 -0.3125q0.6875 -0.3125 1.1875 -0.90625l0.0625 1.03125l1.546875 0l0 -13.999998l-1.6875 0l0 5.124998q-0.46875 -0.578125 -1.140625 -0.859375q-0.65625 -0.296875 -1.546875 -0.296875q-0.890625 0 -1.625 0.375q-0.734375 0.359375 -1.234375 1.03125q-0.515625 0.65625 -0.796875 1.59375q-0.28125 0.921875 -0.28125 2.015625zm1.6875 0.203125l0 -0.203125q0 -0.71875 0.15625 -1.359375q0.15625 -0.65625 0.484375 -1.15625q0.3125 -0.5 0.8125 -0.78125q0.515625 -0.296875 1.21875 -0.296875q0.828125 0 1.375 0.390625q0.5625 0.390625 0.890625 0.984375l0 4.578125q-0.328125 0.640625 -0.890625 1.03125q-0.546875 0.375 -1.390625 0.375q-0.703125 0 -1.203125 -0.28125q-0.5 -0.296875 -0.8125 -0.78125q-0.328125 -0.5 -0.484375 -1.140625q-0.15625 -0.640625 -0.15625 -1.359375zm11.726822 3.375l0 -11.828123l-1.6875 0l0 13.265623l8.171875 0l0 -1.4375l-6.484375 0zm9.554947 -8.421875l0 1.46875l3.359375 0l0 6.9375l-3.359375 0l0 1.453125l8.265625 0l0 -1.453125l-3.21875 0l0 -8.40625l-5.046875 0zm3.140625 -2.578123q0 0.40625 0.25 0.6875q0.25 0.2656231 0.765625 0.2656231q0.5 0 0.75 -0.2656231q0.25 -0.28125 0.25 -0.6875q0 -0.234375 -0.078125 -0.421875q-0.0625 -0.1875 -0.203125 -0.328125q-0.125 -0.109375 -0.3125 -0.171875q-0.171875 -0.078125 -0.40625 -0.078125q-0.25 0 -0.4375 0.078125q-0.171875 0.0625 -0.296875 0.171875q-0.140625 0.140625 -0.21875 0.34375q-0.0625 0.1875 -0.0625 0.40625zm14.351822 9.828123q0 0.234375 -0.09375 0.453125q-0.09375 0.203125 -0.265625 0.375q-0.28125 0.28125 -0.78125 0.4375q-0.5 0.15625 -1.171875 0.15625q-0.4375 0 -0.875 -0.078125q-0.4375 -0.09375 -0.796875 -0.3125q-0.359375 -0.21875 -0.609375 -0.578125q-0.234375 -0.359375 -0.265625 -0.875l-1.6875 0q0 0.625 0.28125 1.21875q0.296875 0.578125 0.84375 1.015625q0.53125 0.4375 1.3125 0.71875q0.78125 0.265625 1.796875 0.265625q0.875 0 1.609375 -0.203125q0.734375 -0.21875 1.265625 -0.609375q0.53125 -0.375 0.8125 -0.90625q0.296875 -0.546875 0.296875 -1.203125q0 -0.609375 -0.265625 -1.0625q-0.25 -0.46875 -0.734375 -0.828125q-0.5 -0.34375 -1.21875 -0.59375q-0.71875 -0.25 -1.625 -0.453125q-0.6875 -0.125 -1.140625 -0.265625q-0.453125 -0.15625 -0.71875 -0.34375q-0.28125 -0.171875 -0.390625 -0.40625q-0.109375 -0.234375 -0.109375 -0.515625q0 -0.28125 0.140625 -0.546875q0.140625 -0.265625 0.40625 -0.46875q0.265625 -0.203125 0.671875 -0.3125q0.40625 -0.125 0.953125 -0.125q0.515625 0 0.921875 0.15625q0.421875 0.140625 0.71875 0.375q0.28125 0.234375 0.4375 0.546875q0.171875 0.296875 0.171875 0.625l1.6875 0q0 -0.65625 -0.28125 -1.21875q-0.265625 -0.5625 -0.78125 -0.96875q-0.515625 -0.421875 -1.25 -0.65625q-0.71875 -0.234375 -1.625 -0.234375q-0.859375 0 -1.5625 0.234375q-0.703125 0.21875 -1.21875 0.609375q-0.5 0.390625 -0.78125 0.921875q-0.28125 0.515625 -0.28125 1.109375q0 0.609375 0.265625 1.078125q0.28125 0.453125 0.78125 0.796875q0.484375 0.34375 1.171875 0.59375q0.703125 0.234375 1.5625 0.421875q0.6875 0.125 1.140625 0.296875q0.46875 0.171875 0.75 0.375q0.28125 0.203125 0.40625 0.4375q0.125 0.234375 0.125 0.546875zm8.633087 -9.640623l-1.703125 0l0 2.390623l-2.5781403 0l0 1.3125l2.5781403 0l0 5.34375q0 0.921875 0.234375 1.5625q0.25 0.640625 0.671875 1.046875q0.421875 0.40625 0.984375 0.59375q0.578125 0.1875 1.234375 0.1875q0.390625 0 0.78125 -0.046875q0.40625 -0.03125 0.75 -0.109375q0.359375 -0.0625 0.65625 -0.15625q0.296875 -0.09375 0.515625 -0.21875l-0.234375 -1.203125q-0.15625 0.046875 -0.40625 0.09375q-0.234375 0.046875 -0.515625 0.09375q-0.28125 0.046875 -0.578125 0.078125q-0.28125 0.03125 -0.546875 0.03125q-0.375 0 -0.71875 -0.09375q-0.328125 -0.09375 -0.578125 -0.3125q-0.265625 -0.21875 -0.40625 -0.59375q-0.140625 -0.375 -0.140625 -0.953125l0 -5.34375l3.75 0l0 -1.3125l-3.75 0l0 -2.390623z" fill-rule="nonzero"/><path fill="#000000" fill-opacity="0.0" d="m352.8609 54.3832l142.92914 0l0 37.795273l-142.92914 0z" fill-rule="evenodd"/><path stroke="#000000" stroke-width="2.0" stroke-linejoin="round" stroke-linecap="butt" d="m352.8609 54.3832l142.92914 0l0 37.795273l-142.92914 0z" fill-rule="evenodd"/><path fill="#000000" d="m368.74734 70.68771l-1.296875 0l0 8.453125l1.375 0l0 -6.734375q0.046875 -0.125 0.109375 -0.234375q0.078125 -0.109375 0.1875 -0.1875q0.125 -0.109375 0.3125 -0.171875q0.203125 -0.0625 0.453125 -0.0625q0.234375 0 0.40625 0.0625q0.1875 0.0625 0.296875 0.1875q0.125 0.125 0.1875 0.328125q0.0625 0.203125 0.0625 0.46875l0 6.34375l1.375 0l0 -6.328125q0 -0.046875 0 -0.078125q0 -0.046875 0 -0.078125q0.015625 -0.203125 0.078125 -0.359375q0.078125 -0.15625 0.203125 -0.28125q0.125 -0.125 0.3125 -0.1875q0.1875 -0.078125 0.453125 -0.078125q0.234375 0 0.421875 0.0625q0.1875 0.0625 0.3125 0.1875q0.109375 0.140625 0.171875 0.34375q0.0625 0.203125 0.0625 0.46875l0 6.328125l1.375 0l0 -6.3125q0 -0.609375 -0.140625 -1.0625q-0.140625 -0.453125 -0.40625 -0.734375q-0.234375 -0.25 -0.59375 -0.375q-0.34375 -0.125 -0.78125 -0.125q-0.328125 0 -0.59375 0.078125q-0.265625 0.078125 -0.484375 0.21875q-0.171875 0.109375 -0.328125 0.265625q-0.140625 0.15625 -0.25 0.34375q-0.09375 -0.203125 -0.21875 -0.359375q-0.109375 -0.15625 -0.265625 -0.265625q-0.203125 -0.140625 -0.46875 -0.203125q-0.265625 -0.078125 -0.609375 -0.078125q-0.59375 0 -1.015625 0.25q-0.40625 0.25 -0.671875 0.703125l-0.03125 -0.796875zm15.9453125 9.640625l0 -1.1875l-7.15625 0l0 1.1875l7.15625 0zm5.4765625 -1.1875l1.09375 0l3.453125 -8.453125l-1.484375 0l-2.359375 6.375l-0.140625 0.515625l-0.140625 -0.515625l-2.421875 -6.375l-1.484375 0l3.484375 8.453125zm12.2734375 0l1.5 0l0 -0.125q-0.140625 -0.359375 -0.21875 -0.828125q-0.078125 -0.46875 -0.078125 -0.890625l0 -3.9375q0 -0.703125 -0.265625 -1.234375q-0.25 -0.53125 -0.6875 -0.890625q-0.453125 -0.359375 -1.078125 -0.53125q-0.609375 -0.171875 -1.328125 -0.171875q-0.796875 0 -1.421875 0.21875q-0.609375 0.21875 -1.046875 0.5625q-0.4375 0.359375 -0.671875 0.8125q-0.21875 0.4375 -0.234375 0.90625l1.453125 0q0 -0.265625 0.125 -0.515625q0.140625 -0.25 0.375 -0.421875q0.234375 -0.1875 0.5625 -0.296875q0.34375 -0.109375 0.78125 -0.109375q0.453125 0 0.828125 0.125q0.375 0.109375 0.625 0.328125q0.265625 0.21875 0.40625 0.53125q0.140625 0.296875 0.140625 0.671875l0 0.671875l-1.578125 0q-0.890625 0 -1.609375 0.171875q-0.703125 0.171875 -1.21875 0.515625q-0.5 0.34375 -0.78125 0.875q-0.28125 0.515625 -0.28125 1.21875q0 0.53125 0.203125 0.984375q0.21875 0.453125 0.59375 0.78125q0.375 0.34375 0.921875 0.546875q0.546875 0.1875 1.21875 0.1875q0.40625 0 0.765625 -0.09375q0.375 -0.078125 0.703125 -0.234375q0.328125 -0.140625 0.59375 -0.328125q0.265625 -0.203125 0.484375 -0.421875q0.03125 0.265625 0.078125 0.515625q0.046875 0.234375 0.140625 0.40625zm-2.5625 -1.109375q-0.421875 0 -0.75 -0.109375q-0.3125 -0.109375 -0.515625 -0.296875q-0.21875 -0.1875 -0.328125 -0.453125q-0.09375 -0.265625 -0.09375 -0.578125q0 -0.328125 0.109375 -0.578125q0.125 -0.265625 0.359375 -0.453125q0.328125 -0.265625 0.890625 -0.390625q0.5625 -0.140625 1.3125 -0.140625l1.34375 0l0 1.71875q-0.125 0.25 -0.34375 0.484375q-0.21875 0.21875 -0.515625 0.40625q-0.3125 0.171875 -0.6875 0.28125q-0.359375 0.109375 -0.78125 0.109375zm6.8359375 -10.890625l0 1.25l2.875 0l0 9.5l-2.875 0l0 1.25l7.078125 0l0 -1.25l-2.765625 0l0 -10.75l-4.3125 0zm14.9453125 12.0l1.3125 0l0 -8.453125l-1.453125 0l0 6.0625q-0.125 0.265625 -0.296875 0.5q-0.171875 0.234375 -0.40625 0.390625q-0.28125 0.203125 -0.671875 0.328125q-0.375 0.109375 -0.859375 0.109375q-0.421875 0 -0.734375 -0.109375q-0.3125 -0.109375 -0.53125 -0.390625q-0.21875 -0.265625 -0.328125 -0.71875q-0.109375 -0.453125 -0.109375 -1.140625l0 -5.03125l-1.453125 0l0 5.015625q0 0.953125 0.203125 1.625q0.21875 0.671875 0.59375 1.109375q0.390625 0.4375 0.921875 0.65625q0.546875 0.203125 1.203125 0.203125q0.828125 0 1.453125 -0.34375q0.640625 -0.359375 1.0625 -0.984375l0.09375 1.171875zm7.7578125 0.15625q1.234375 0 2.078125 -0.5q0.84375 -0.5 1.265625 -1.140625l-0.890625 -0.6875q-0.390625 0.515625 -1.0 0.828125q-0.59375 0.3125 -1.375 0.3125q-0.578125 0 -1.0625 -0.21875q-0.484375 -0.21875 -0.828125 -0.59375q-0.34375 -0.359375 -0.53125 -0.828125q-0.1875 -0.46875 -0.25 -1.09375l0 -0.046875l6.046875 0l0 -0.65625q0 -0.875 -0.234375 -1.625q-0.21875 -0.765625 -0.671875 -1.328125q-0.453125 -0.5625 -1.140625 -0.875q-0.671875 -0.3125 -1.59375 -0.3125q-0.71875 0 -1.421875 0.296875q-0.6875 0.296875 -1.21875 0.84375q-0.546875 0.5625 -0.875 1.375q-0.328125 0.8125 -0.328125 1.828125l0 0.328125q0 0.890625 0.296875 1.640625q0.296875 0.75 0.828125 1.296875q0.53125 0.546875 1.265625 0.859375q0.75 0.296875 1.640625 0.296875zm-0.1875 -7.578125q0.5625 0 0.953125 0.203125q0.40625 0.203125 0.671875 0.53125q0.265625 0.328125 0.40625 0.78125q0.15625 0.4375 0.15625 0.828125l0 0.078125l-4.546875 0q0.09375 -0.59375 0.296875 -1.03125q0.21875 -0.453125 0.53125 -0.765625q0.3125 -0.3125 0.703125 -0.46875q0.390625 -0.15625 0.828125 -0.15625zm8.9609375 6.484375q0 0.453125 0.28125 0.78125q0.296875 0.3125 0.859375 0.3125q0.546875 0 0.84375 -0.3125q0.296875 -0.328125 0.296875 -0.78125q0 -0.46875 -0.296875 -0.796875q-0.28125 -0.328125 -0.84375 -0.328125q-0.578125 0 -0.859375 0.328125q-0.28125 0.328125 -0.28125 0.796875zm0 -6.84375q0 0.453125 0.28125 0.78125q0.296875 0.3125 0.859375 0.3125q0.546875 0 0.84375 -0.3125q0.296875 -0.328125 0.296875 -0.78125q0 -0.46875 -0.296875 -0.796875q-0.28125 -0.328125 -0.84375 -0.328125q-0.578125 0 -0.859375 0.328125q-0.28125 0.328125 -0.28125 0.796875zm20.984375 7.78125l0 -11.375l-0.109375 0l-4.3125 1.65625l0 1.3125l2.984375 -1.125l0 9.53125l1.4375 0zm11.8984375 0l0 -1.1875l-5.71875 0l3.0625 -3.3125q0.421875 -0.46875 0.8125 -0.9375q0.390625 -0.46875 0.6875 -0.953125q0.28125 -0.484375 0.453125 -0.984375q0.171875 -0.5 0.171875 -1.0q0 -0.6875 -0.234375 -1.265625q-0.234375 -0.578125 -0.6875 -1.0q-0.4375 -0.421875 -1.09375 -0.65625q-0.640625 -0.234375 -1.4375 -0.234375q-0.875 0 -1.5625 0.28125q-0.6875 0.28125 -1.15625 0.75q-0.46875 0.484375 -0.71875 1.125q-0.25 0.625 -0.25 1.34375l1.453125 0q0 -0.53125 0.125 -0.953125q0.140625 -0.4375 0.421875 -0.734375q0.28125 -0.296875 0.6875 -0.453125q0.421875 -0.171875 1.0 -0.171875q0.46875 0 0.828125 0.15625q0.375 0.15625 0.640625 0.4375q0.265625 0.265625 0.390625 0.640625q0.140625 0.375 0.140625 0.796875q0 0.34375 -0.09375 0.671875q-0.078125 0.3125 -0.28125 0.671875q-0.203125 0.375 -0.546875 0.8125q-0.328125 0.421875 -0.828125 0.96875l-3.71875 4.140625l0 1.046875l7.453125 0zm4.3046875 -6.390625l0 1.171875l1.03125 0q0.546875 0 0.984375 0.125q0.453125 0.125 0.78125 0.390625q0.3125 0.25 0.484375 0.640625q0.171875 0.390625 0.171875 0.921875q0 0.53125 -0.15625 0.9375q-0.140625 0.390625 -0.421875 0.65625q-0.28125 0.265625 -0.6875 0.390625q-0.390625 0.125 -0.890625 0.125q-0.484375 0 -0.890625 -0.140625q-0.40625 -0.140625 -0.6875 -0.390625q-0.28125 -0.265625 -0.4375 -0.625q-0.140625 -0.375 -0.140625 -0.8125l-1.453125 0q0 0.75 0.28125 1.34375q0.296875 0.578125 0.78125 0.984375q0.484375 0.40625 1.140625 0.625q0.65625 0.203125 1.40625 0.203125q0.765625 0 1.421875 -0.21875q0.671875 -0.234375 1.15625 -0.65625q0.484375 -0.421875 0.75 -1.03125q0.28125 -0.625 0.28125 -1.421875q0 -0.390625 -0.09375 -0.78125q-0.09375 -0.40625 -0.3125 -0.765625q-0.21875 -0.359375 -0.59375 -0.640625q-0.375 -0.296875 -0.921875 -0.484375q0.453125 -0.1875 0.78125 -0.484375q0.34375 -0.296875 0.546875 -0.625q0.21875 -0.328125 0.3125 -0.671875q0.109375 -0.359375 0.109375 -0.6875q0 -0.796875 -0.25 -1.390625q-0.25 -0.609375 -0.703125 -1.015625q-0.453125 -0.40625 -1.09375 -0.609375q-0.625 -0.203125 -1.390625 -0.203125q-0.796875 0 -1.4375 0.25q-0.640625 0.234375 -1.109375 0.65625q-0.453125 0.4375 -0.71875 1.015625q-0.25 0.5625 -0.25 1.21875l1.453125 0q0 -0.453125 0.140625 -0.8125q0.15625 -0.359375 0.4375 -0.609375q0.265625 -0.265625 0.640625 -0.390625q0.375 -0.140625 0.84375 -0.140625q0.46875 0 0.84375 0.125q0.375 0.109375 0.625 0.359375q0.25 0.25 0.375 0.625q0.140625 0.375 0.140625 0.890625q0 0.421875 -0.15625 0.78125q-0.140625 0.359375 -0.421875 0.625q-0.28125 0.25 -0.703125 0.40625q-0.421875 0.140625 -0.96875 0.140625l-1.03125 0z" fill-rule="nonzero"/><path fill="#000000" fill-opacity="0.0" d="m352.8609 92.178474l142.92914 0l0 37.79528l-142.92914 0z" fill-rule="evenodd"/><path stroke="#000000" stroke-width="2.0" stroke-linejoin="round" stroke-linecap="butt" d="m352.8609 92.178474l142.92914 0l0 37.79528l-142.92914 0z" fill-rule="evenodd"/><path fill="#000000" fill-opacity="0.0" d="m352.86084 16.587927l142.92914 0l0 37.795273l-142.92914 0z" fill-rule="evenodd"/><path fill="#000000" d="m383.0275 42.070423l0 -11.828123l-1.6875 0l0 13.265623l8.171875 0l0 -1.4375l-6.484375 0zm9.554962 -8.421875l0 1.46875l3.359375 0l0 6.9375l-3.359375 0l0 1.453125l8.265625 0l0 -1.453125l-3.21875 0l0 -8.40625l-5.046875 0zm3.140625 -2.578123q0 0.40625 0.25 0.6875q0.25 0.2656231 0.765625 0.2656231q0.5 0 0.75 -0.2656231q0.25 -0.28125 0.25 -0.6875q0 -0.234375 -0.078125 -0.421875q-0.0625 -0.1875 -0.203125 -0.328125q-0.125 -0.109375 -0.3125 -0.171875q-0.171875 -0.078125 -0.40625 -0.078125q-0.25 0 -0.4375 0.078125q-0.171875 0.0625 -0.296875 0.171875q-0.140625 0.140625 -0.21875 0.34375q-0.0625 0.1875 -0.0625 0.40625zm14.351807 9.828123q0 0.234375 -0.09375 0.453125q-0.09375 0.203125 -0.265625 0.375q-0.28125 0.28125 -0.78125 0.4375q-0.5 0.15625 -1.171875 0.15625q-0.4375 0 -0.875 -0.078125q-0.4375 -0.09375 -0.796875 -0.3125q-0.359375 -0.21875 -0.609375 -0.578125q-0.234375 -0.359375 -0.265625 -0.875l-1.6875 0q0 0.625 0.28125 1.21875q0.296875 0.578125 0.84375 1.015625q0.53125 0.4375 1.3125 0.71875q0.78125 0.265625 1.796875 0.265625q0.875 0 1.609375 -0.203125q0.734375 -0.21875 1.265625 -0.609375q0.53125 -0.375 0.8125 -0.90625q0.296875 -0.546875 0.296875 -1.203125q0 -0.609375 -0.265625 -1.0625q-0.25 -0.46875 -0.734375 -0.828125q-0.5 -0.34375 -1.21875 -0.59375q-0.71875 -0.25 -1.625 -0.453125q-0.6875 -0.125 -1.140625 -0.265625q-0.453125 -0.15625 -0.71875 -0.34375q-0.28125 -0.171875 -0.390625 -0.40625q-0.109375 -0.234375 -0.109375 -0.515625q0 -0.28125 0.140625 -0.546875q0.140625 -0.265625 0.40625 -0.46875q0.265625 -0.203125 0.671875 -0.3125q0.40625 -0.125 0.953125 -0.125q0.515625 0 0.921875 0.15625q0.421875 0.140625 0.71875 0.375q0.28125 0.234375 0.4375 0.546875q0.171875 0.296875 0.171875 0.625l1.6875 0q0 -0.65625 -0.28125 -1.21875q-0.265625 -0.5625 -0.78125 -0.96875q-0.515625 -0.421875 -1.25 -0.65625q-0.71875 -0.234375 -1.625 -0.234375q-0.859375 0 -1.5625 0.234375q-0.703125 0.21875 -1.21875 0.609375q-0.5 0.390625 -0.78125 0.921875q-0.28125 0.515625 -0.28125 1.109375q0 0.609375 0.265625 1.078125q0.28125 0.453125 0.78125 0.796875q0.484375 0.34375 1.171875 0.59375q0.703125 0.234375 1.5625 0.421875q0.6875 0.125 1.140625 0.296875q0.46875 0.171875 0.75 0.375q0.28125 0.203125 0.40625 0.4375q0.125 0.234375 0.125 0.546875zm8.633087 -9.640623l-1.703125 0l0 2.390623l-2.578125 0l0 1.3125l2.578125 0l0 5.34375q0 0.921875 0.234375 1.5625q0.25 0.640625 0.671875 1.046875q0.421875 0.40625 0.984375 0.59375q0.578125 0.1875 1.234375 0.1875q0.390625 0 0.78125 -0.046875q0.40625 -0.03125 0.75 -0.109375q0.359375 -0.0625 0.65625 -0.15625q0.296875 -0.09375 0.515625 -0.21875l-0.234375 -1.203125q-0.15625 0.046875 -0.40625 0.09375q-0.234375 0.046875 -0.515625 0.09375q-0.28125 0.046875 -0.578125 0.078125q-0.28125 0.03125 -0.546875 0.03125q-0.375 0 -0.71875 -0.09375q-0.328125 -0.09375 -0.578125 -0.3125q-0.265625 -0.21875 -0.40625 -0.59375q-0.140625 -0.375 -0.140625 -0.953125l0 -5.34375l3.75 0l0 -1.3125l-3.75 0l0 -2.390623zm7.1955566 -1.015625l0 1.46875l3.109375 0l0 10.343748l-3.109375 0l0 1.453125l8.015625 0l0 -1.453125l-3.171875 0l0 -10.343748l3.171875 0l0 -1.46875l-8.015625 0zm15.195587 1.015625l-1.703125 0l0 2.390623l-2.578125 0l0 1.3125l2.578125 0l0 5.34375q0 0.921875 0.234375 1.5625q0.25 0.640625 0.671875 1.046875q0.421875 0.40625 0.984375 0.59375q0.578125 0.1875 1.234375 0.1875q0.390625 0 0.78125 -0.046875q0.40625 -0.03125 0.75 -0.109375q0.359375 -0.0625 0.65625 -0.15625q0.296875 -0.09375 0.515625 -0.21875l-0.234375 -1.203125q-0.15625 0.046875 -0.40625 0.09375q-0.234375 0.046875 -0.515625 0.09375q-0.28125 0.046875 -0.578125 0.078125q-0.28125 0.03125 -0.546875 0.03125q-0.375 0 -0.71875 -0.09375q-0.328125 -0.09375 -0.578125 -0.3125q-0.265625 -0.21875 -0.40625 -0.59375q-0.140625 -0.375 -0.140625 -0.953125l0 -5.34375l3.75 0l0 -1.3125l-3.75 0l0 -2.390623zm11.554932 12.437498q1.4375 0 2.421875 -0.578125q0.984375 -0.578125 1.46875 -1.328125l-1.03125 -0.796875q-0.46875 0.59375 -1.171875 0.96875q-0.6875 0.359375 -1.59375 0.359375q-0.6875 0 -1.25 -0.25q-0.5625 -0.265625 -0.96875 -0.71875q-0.390625 -0.40625 -0.609375 -0.953125q-0.21875 -0.546875 -0.28125 -1.265625l0 -0.078125l7.03125 0l0 -0.75q0 -1.03125 -0.265625 -1.90625q-0.25 -0.890625 -0.78125 -1.546875q-0.53125 -0.640625 -1.328125 -1.0q-0.796875 -0.375 -1.859375 -0.375q-0.84375 0 -1.65625 0.34375q-0.796875 0.34375 -1.4375 0.984375q-0.625 0.65625 -1.015625 1.609375q-0.375 0.9375 -0.375 2.125l0 0.390625q0 1.03125 0.34375 1.90625q0.34375 0.875 0.96875 1.5q0.609375 0.640625 1.484375 1.0q0.875 0.359375 1.90625 0.359375zm-0.21875 -8.84375q0.65625 0 1.125 0.234375q0.46875 0.234375 0.765625 0.625q0.3125 0.375 0.484375 0.90625q0.171875 0.515625 0.171875 0.984375l0 0.078125l-5.296875 0q0.09375 -0.6875 0.34375 -1.203125q0.265625 -0.53125 0.625 -0.890625q0.359375 -0.359375 0.8125 -0.546875q0.453125 -0.1875 0.96875 -0.1875zm7.836212 -1.203125l-1.515625 0l0 9.859375l1.609375 0l0 -7.84375q0.046875 -0.140625 0.125 -0.265625q0.09375 -0.140625 0.21875 -0.234375q0.15625 -0.125 0.375 -0.1875q0.21875 -0.078125 0.53125 -0.078125q0.265625 0 0.46875 0.078125q0.203125 0.0625 0.34375 0.203125q0.15625 0.15625 0.21875 0.390625q0.0625 0.234375 0.0625 0.546875l0 7.390625l1.609375 0l0 -7.375q0 -0.0625 0 -0.09375q0 -0.046875 0 -0.09375q0.03125 -0.21875 0.109375 -0.40625q0.078125 -0.1875 0.21875 -0.34375q0.15625 -0.125 0.375 -0.203125q0.21875 -0.09375 0.515625 -0.09375q0.28125 0 0.484375 0.078125q0.21875 0.0625 0.375 0.21875q0.140625 0.15625 0.203125 0.390625q0.078125 0.234375 0.078125 0.546875l0 7.375l1.59375 0l0 -7.359375q0 -0.71875 -0.171875 -1.234375q-0.15625 -0.53125 -0.453125 -0.859375q-0.28125 -0.28125 -0.703125 -0.421875q-0.40625 -0.15625 -0.921875 -0.15625q-0.359375 0 -0.6875 0.09375q-0.3125 0.09375 -0.5625 0.25q-0.203125 0.125 -0.375 0.3125q-0.171875 0.1875 -0.296875 0.390625q-0.109375 -0.21875 -0.25 -0.40625q-0.140625 -0.1875 -0.3125 -0.3125q-0.234375 -0.15625 -0.546875 -0.234375q-0.3125 -0.09375 -0.703125 -0.09375q-0.6875 0 -1.1875 0.296875q-0.484375 0.28125 -0.78125 0.8125l-0.046875 -0.9375z" fill-rule="nonzero"/><path fill="#000000" fill-opacity="0.0" d="m204.38846 73.69029l105.98706 0l0 -19.496067l42.485382 0" fill-rule="evenodd"/><path stroke="#000000" stroke-width="2.0" stroke-linejoin="round" stroke-linecap="butt" d="m211.96844 73.69029l98.407074 0l0 -19.496067l30.485382 0" fill-rule="evenodd"/><path fill="#000000" stroke="#000000" stroke-width="2.0" stroke-linecap="butt" d="m205.38846 73.69029c0 -1.8170166 1.4729767 -3.290001 3.2899933 -3.290001c1.8170166 0 3.2899933 1.4729843 3.2899933 3.290001c0 1.8170166 -1.4729767 3.2899933 -3.2899933 3.2899933c-1.8170166 0 -3.2899933 -1.4729767 -3.2899933 -3.2899933z" fill-rule="nonzero"/><path fill="#000000" stroke="#000000" stroke-width="2.0" stroke-linecap="butt" d="m340.8609 57.497692l9.076172 -3.3034668l-9.076172 -3.303463z" fill-rule="evenodd"/><path fill="#000000" fill-opacity="0.0" d="m568.88715 56.48819l142.92914 0l0 37.795273l-142.92914 0z" fill-rule="evenodd"/><path stroke="#000000" stroke-width="2.0" stroke-linejoin="round" stroke-linecap="butt" d="m568.88715 56.48819l142.92914 0l0 37.795273l-142.92914 0z" fill-rule="evenodd"/><path fill="#000000" d="m584.77356 72.7927l-1.296875 0l0 8.453125l1.375 0l0 -6.734375q0.046875 -0.125 0.109375 -0.234375q0.078125 -0.109375 0.1875 -0.1875q0.125 -0.109375 0.3125 -0.171875q0.203125 -0.0625 0.453125 -0.0625q0.234375 0 0.40625 0.0625q0.1875 0.0625 0.296875 0.1875q0.125 0.125 0.1875 0.328125q0.0625 0.203125 0.0625 0.46875l0 6.34375l1.375 0l0 -6.328125q0 -0.046875 0 -0.078125q0 -0.046875 0 -0.078125q0.015625 -0.203125 0.078125 -0.359375q0.078125 -0.15625 0.203125 -0.28125q0.125 -0.125 0.3125 -0.1875q0.1875 -0.078125 0.453125 -0.078125q0.234375 0 0.421875 0.0625q0.1875 0.0625 0.3125 0.1875q0.109375 0.140625 0.171875 0.34375q0.0625 0.203125 0.0625 0.46875l0 6.328125l1.375 0l0 -6.3125q0 -0.609375 -0.140625 -1.0625q-0.140625 -0.453125 -0.40625 -0.734375q-0.234375 -0.25 -0.59375 -0.375q-0.34375 -0.125 -0.78125 -0.125q-0.328125 0 -0.59375 0.078125q-0.265625 0.078125 -0.484375 0.21875q-0.171875 0.109375 -0.328125 0.265625q-0.140625 0.15625 -0.25 0.34375q-0.09375 -0.203125 -0.21875 -0.359375q-0.109375 -0.15625 -0.265625 -0.265625q-0.203125 -0.140625 -0.46875 -0.203125q-0.265625 -0.078125 -0.609375 -0.078125q-0.59375 0 -1.015625 0.25q-0.40625 0.25 -0.671875 0.703125l-0.03125 -0.796875zm15.9453125 9.640625l0 -1.1875l-7.15625 0l0 1.1875l7.15625 0zm5.4765625 -1.1875l1.09375 0l3.453125 -8.453125l-1.484375 0l-2.359375 6.375l-0.140625 0.515625l-0.140625 -0.515625l-2.421875 -6.375l-1.484375 0l3.484375 8.453125zm12.2734375 0l1.5 0l0 -0.125q-0.140625 -0.359375 -0.21875 -0.828125q-0.078125 -0.46875 -0.078125 -0.890625l0 -3.9375q0 -0.703125 -0.265625 -1.234375q-0.25 -0.53125 -0.6875 -0.890625q-0.453125 -0.359375 -1.078125 -0.53125q-0.609375 -0.171875 -1.328125 -0.171875q-0.796875 0 -1.421875 0.21875q-0.609375 0.21875 -1.046875 0.5625q-0.4375 0.359375 -0.671875 0.8125q-0.21875 0.4375 -0.234375 0.90625l1.453125 0q0 -0.265625 0.125 -0.515625q0.140625 -0.25 0.375 -0.421875q0.234375 -0.1875 0.5625 -0.296875q0.34375 -0.109375 0.78125 -0.109375q0.453125 0 0.828125 0.125q0.375 0.109375 0.625 0.328125q0.265625 0.21875 0.40625 0.53125q0.140625 0.296875 0.140625 0.671875l0 0.671875l-1.578125 0q-0.890625 0 -1.609375 0.171875q-0.703125 0.171875 -1.21875 0.515625q-0.5 0.34375 -0.78125 0.875q-0.28125 0.515625 -0.28125 1.21875q0 0.53125 0.203125 0.984375q0.21875 0.453125 0.59375 0.78125q0.375 0.34375 0.921875 0.546875q0.546875 0.1875 1.21875 0.1875q0.40625 0 0.765625 -0.09375q0.375 -0.078125 0.703125 -0.234375q0.328125 -0.140625 0.59375 -0.328125q0.265625 -0.203125 0.484375 -0.421875q0.03125 0.265625 0.078125 0.515625q0.046875 0.234375 0.140625 0.40625zm-2.5625 -1.109375q-0.421875 0 -0.75 -0.109375q-0.3125 -0.109375 -0.515625 -0.296875q-0.21875 -0.1875 -0.328125 -0.453125q-0.09375 -0.265625 -0.09375 -0.578125q0 -0.328125 0.109375 -0.578125q0.125 -0.265625 0.359375 -0.453125q0.328125 -0.265625 0.890625 -0.390625q0.5625 -0.140625 1.3125 -0.140625l1.34375 0l0 1.71875q-0.125 0.25 -0.34375 0.484375q-0.21875 0.21875 -0.515625 0.40625q-0.3125 0.171875 -0.6875 0.28125q-0.359375 0.109375 -0.78125 0.109375zm6.8359375 -10.890625l0 1.25l2.875 0l0 9.5l-2.875 0l0 1.25l7.078125 0l0 -1.25l-2.765625 0l0 -10.75l-4.3125 0zm14.9453125 12.0l1.3125 0l0 -8.453125l-1.453125 0l0 6.0625q-0.125 0.265625 -0.296875 0.5q-0.171875 0.234375 -0.40625 0.390625q-0.28125 0.203125 -0.671875 0.328125q-0.375 0.109375 -0.859375 0.109375q-0.421875 0 -0.734375 -0.109375q-0.3125 -0.109375 -0.53125 -0.390625q-0.21875 -0.265625 -0.328125 -0.71875q-0.109375 -0.453125 -0.109375 -1.140625l0 -5.03125l-1.453125 0l0 5.015625q0 0.953125 0.203125 1.625q0.21875 0.671875 0.59375 1.109375q0.390625 0.4375 0.921875 0.65625q0.546875 0.203125 1.203125 0.203125q0.828125 0 1.453125 -0.34375q0.640625 -0.359375 1.0625 -0.984375l0.09375 1.171875zm7.7578125 0.15625q1.234375 0 2.078125 -0.5q0.84375 -0.5 1.265625 -1.140625l-0.890625 -0.6875q-0.390625 0.515625 -1.0 0.828125q-0.59375 0.3125 -1.375 0.3125q-0.578125 0 -1.0625 -0.21875q-0.484375 -0.21875 -0.828125 -0.59375q-0.34375 -0.359375 -0.53125 -0.828125q-0.1875 -0.46875 -0.25 -1.09375l0 -0.046875l6.046875 0l0 -0.65625q0 -0.875 -0.234375 -1.625q-0.21875 -0.765625 -0.671875 -1.328125q-0.453125 -0.5625 -1.140625 -0.875q-0.671875 -0.3125 -1.59375 -0.3125q-0.71875 0 -1.421875 0.296875q-0.6875 0.296875 -1.21875 0.84375q-0.546875 0.5625 -0.875 1.375q-0.328125 0.8125 -0.328125 1.828125l0 0.328125q0 0.890625 0.296875 1.640625q0.296875 0.75 0.828125 1.296875q0.53125 0.546875 1.265625 0.859375q0.75 0.296875 1.640625 0.296875zm-0.1875 -7.578125q0.5625 0 0.953125 0.203125q0.40625 0.203125 0.671875 0.53125q0.265625 0.328125 0.40625 0.78125q0.15625 0.4375 0.15625 0.828125l0 0.078125l-4.546875 0q0.09375 -0.59375 0.296875 -1.03125q0.21875 -0.453125 0.53125 -0.765625q0.3125 -0.3125 0.703125 -0.46875q0.390625 -0.15625 0.828125 -0.15625zm8.9609375 6.484375q0 0.453125 0.28125 0.78125q0.296875 0.3125 0.859375 0.3125q0.546875 0 0.84375 -0.3125q0.296875 -0.328125 0.296875 -0.78125q0 -0.46875 -0.296875 -0.796875q-0.28125 -0.328125 -0.84375 -0.328125q-0.578125 0 -0.859375 0.328125q-0.28125 0.328125 -0.28125 0.796875zm0 -6.84375q0 0.453125 0.28125 0.78125q0.296875 0.3125 0.859375 0.3125q0.546875 0 0.84375 -0.3125q0.296875 -0.328125 0.296875 -0.78125q0 -0.46875 -0.296875 -0.796875q-0.28125 -0.328125 -0.84375 -0.328125q-0.578125 0 -0.859375 0.328125q-0.28125 0.328125 -0.28125 0.796875zm22.15625 3.953125l0 -7.546875l-1.53125 0l-5.09375 7.875l0 0.859375l5.1875 0l0 2.640625l1.4375 0l0 -2.640625l1.59375 0l0 -1.1875l-1.59375 0zm-5.03125 0l3.359375 -5.1875l0.234375 -0.4375l0 5.625l-3.59375 0zm9.2890625 -1.875l1.15625 0.296875q0.203125 -0.171875 0.375 -0.296875q0.1875 -0.140625 0.40625 -0.234375q0.203125 -0.09375 0.46875 -0.140625q0.265625 -0.0625 0.625 -0.0625q0.546875 0 0.96875 0.203125q0.421875 0.1875 0.703125 0.53125q0.296875 0.34375 0.4375 0.8125q0.15625 0.453125 0.15625 0.984375q0 0.578125 -0.140625 1.0625q-0.125 0.46875 -0.390625 0.8125q-0.28125 0.34375 -0.6875 0.53125q-0.390625 0.171875 -0.90625 0.171875q-0.90625 0 -1.5 -0.5q-0.578125 -0.5 -0.703125 -1.46875l-1.375 0q0.078125 0.796875 0.375 1.390625q0.3125 0.59375 0.796875 0.984375q0.484375 0.390625 1.09375 0.59375q0.625 0.1875 1.3125 0.1875q0.90625 0 1.578125 -0.28125q0.671875 -0.296875 1.125 -0.796875q0.4375 -0.5 0.65625 -1.1875q0.21875 -0.703125 0.21875 -1.515625q0 -0.859375 -0.234375 -1.5625q-0.234375 -0.703125 -0.671875 -1.203125q-0.4375 -0.5 -1.0625 -0.765625q-0.625 -0.28125 -1.421875 -0.28125q-0.609375 0 -1.078125 0.15625q-0.46875 0.140625 -0.8125 0.34375l0.328125 -3.03125l4.609375 0l0 -1.40625l-5.828125 0l-0.578125 5.671875zm14.4140625 -5.6875l-0.125 0q-1.21875 0 -2.1875 0.34375q-0.953125 0.34375 -1.625 1.015625q-0.96875 0.96875 -1.3125 2.34375q-0.328125 1.375 -0.328125 2.796875l0 0.6875q0 0.828125 0.25 1.65625q0.25 0.8125 0.75 1.4375q0.453125 0.5625 1.109375 0.921875q0.671875 0.34375 1.546875 0.34375q0.875 0 1.53125 -0.296875q0.65625 -0.3125 1.109375 -0.84375q0.4375 -0.53125 0.65625 -1.234375q0.234375 -0.703125 0.234375 -1.5q0 -0.6875 -0.1875 -1.359375q-0.1875 -0.671875 -0.59375 -1.203125q-0.390625 -0.53125 -1.015625 -0.859375q-0.609375 -0.328125 -1.46875 -0.328125q-0.390625 0 -0.75 0.09375q-0.34375 0.09375 -0.65625 0.234375q-0.3125 0.15625 -0.578125 0.375q-0.265625 0.203125 -0.46875 0.4375q0.046875 -0.75 0.296875 -1.453125q0.265625 -0.71875 0.75 -1.234375q0.46875 -0.484375 1.1875 -0.78125q0.71875 -0.296875 1.75 -0.296875l0.125 0l0 -1.296875zm-1.890625 5.125q0.53125 0 0.921875 0.21875q0.390625 0.21875 0.640625 0.59375q0.265625 0.359375 0.390625 0.84375q0.125 0.46875 0.125 0.96875q0 0.5625 -0.140625 1.046875q-0.140625 0.46875 -0.40625 0.8125q-0.265625 0.34375 -0.65625 0.546875q-0.390625 0.1875 -0.90625 0.1875q-0.4375 0 -0.84375 -0.203125q-0.390625 -0.203125 -0.6875 -0.609375q-0.3125 -0.390625 -0.5 -0.96875q-0.171875 -0.59375 -0.171875 -1.34375l0 -0.484375q0.140625 -0.359375 0.359375 -0.65625q0.234375 -0.296875 0.53125 -0.5q0.296875 -0.21875 0.640625 -0.328125q0.34375 -0.125 0.703125 -0.125z" fill-rule="nonzero"/><path fill="#000000" fill-opacity="0.0" d="m568.88715 94.28346l142.92914 0l0 37.795273l-142.92914 0z" fill-rule="evenodd"/><path stroke="#000000" stroke-width="2.0" stroke-linejoin="round" stroke-linecap="butt" d="m568.88715 94.28346l142.92914 0l0 37.795273l-142.92914 0z" fill-rule="evenodd"/><path fill="#000000" d="m629.63293 119.0411l0 -11.375l-1.453125 0l-0.03125 8.484375l-4.40625 -8.484375l-1.46875 0l0 11.375l1.453125 0l0.03125 -8.5l4.40625 8.5l1.46875 0zm9.6171875 -11.375l-1.390625 0l-0.03125 7.703125q-0.015625 0.5 -0.171875 0.96875q-0.140625 0.46875 -0.421875 0.828125q-0.28125 0.375 -0.703125 0.59375q-0.421875 0.203125 -0.984375 0.203125q-0.546875 0 -0.984375 -0.21875q-0.421875 -0.21875 -0.703125 -0.578125q-0.28125 -0.359375 -0.4375 -0.828125q-0.15625 -0.46875 -0.15625 -0.96875l-0.03125 -7.703125l-1.375 0l-0.015625 7.703125q0 0.796875 0.265625 1.5q0.28125 0.6875 0.765625 1.203125q0.484375 0.53125 1.15625 0.828125q0.6875 0.296875 1.515625 0.296875q0.8125 0 1.484375 -0.296875q0.6875 -0.3125 1.1875 -0.828125q0.484375 -0.515625 0.765625 -1.203125q0.28125 -0.703125 0.28125 -1.5l-0.015625 -7.703125zm4.1015625 10.140625l0 -10.140625l-1.453125 0l0 11.375l7.015625 0l0 -1.234375l-5.5625 0zm9.6015625 0l0 -10.140625l-1.453125 0l0 11.375l7.015625 0l0 -1.234375l-5.5625 0z" fill-rule="nonzero"/><path fill="#000000" fill-opacity="0.0" d="m568.8871 18.692913l142.92914 0l0 37.795277l-142.92914 0z" fill-rule="evenodd"/><path fill="#000000" d="m599.0538 44.17541l0 -11.828125l-1.6875 0l0 13.265625l8.171875 0l0 -1.4375l-6.484375 0zm9.554932 -8.421875l0 1.46875l3.359375 0l0 6.9375l-3.359375 0l0 1.453125l8.265625 0l0 -1.453125l-3.21875 0l0 -8.40625l-5.046875 0zm3.140625 -2.578125q0 0.40625 0.25 0.6875q0.25 0.265625 0.765625 0.265625q0.5 0 0.75 -0.265625q0.25 -0.28125 0.25 -0.6875q0 -0.234375 -0.078125 -0.421875q-0.0625 -0.1875 -0.203125 -0.328125q-0.125 -0.109375 -0.3125 -0.171875q-0.171875 -0.078125 -0.40625 -0.078125q-0.25 0 -0.4375 0.078125q-0.171875 0.0625 -0.296875 0.171875q-0.140625 0.140625 -0.21875 0.34375q-0.0625 0.1875 -0.0625 0.40625zm14.351807 9.828125q0 0.234375 -0.09375 0.453125q-0.09375 0.203125 -0.265625 0.375q-0.28125 0.28125 -0.78125 0.4375q-0.5 0.15625 -1.171875 0.15625q-0.4375 0 -0.875 -0.078125q-0.4375 -0.09375 -0.796875 -0.3125q-0.359375 -0.21875 -0.609375 -0.578125q-0.234375 -0.359375 -0.265625 -0.875l-1.6875 0q0 0.625 0.28125 1.21875q0.296875 0.578125 0.84375 1.015625q0.53125 0.4375 1.3125 0.71875q0.78125 0.265625 1.796875 0.265625q0.875 0 1.609375 -0.203125q0.734375 -0.21875 1.265625 -0.609375q0.53125 -0.375 0.8125 -0.90625q0.296875 -0.546875 0.296875 -1.203125q0 -0.609375 -0.265625 -1.0625q-0.25 -0.46875 -0.734375 -0.828125q-0.5 -0.34375 -1.21875 -0.59375q-0.71875 -0.25 -1.625 -0.453125q-0.6875 -0.125 -1.140625 -0.265625q-0.453125 -0.15625 -0.71875 -0.34375q-0.28125 -0.171875 -0.390625 -0.40625q-0.109375 -0.234375 -0.109375 -0.515625q0 -0.28125 0.140625 -0.546875q0.140625 -0.265625 0.40625 -0.46875q0.265625 -0.203125 0.671875 -0.3125q0.40625 -0.125 0.953125 -0.125q0.515625 0 0.921875 0.15625q0.421875 0.140625 0.71875 0.375q0.28125 0.234375 0.4375 0.546875q0.171875 0.296875 0.171875 0.625l1.6875 0q0 -0.65625 -0.28125 -1.21875q-0.265625 -0.5625 -0.78125 -0.96875q-0.515625 -0.421875 -1.25 -0.65625q-0.71875 -0.234375 -1.625 -0.234375q-0.859375 0 -1.5625 0.234375q-0.703125 0.21875 -1.21875 0.609375q-0.5 0.390625 -0.78125 0.921875q-0.28125 0.515625 -0.28125 1.109375q0 0.609375 0.265625 1.078125q0.28125 0.453125 0.78125 0.796875q0.484375 0.34375 1.171875 0.59375q0.703125 0.234375 1.5625 0.421875q0.6875 0.125 1.140625 0.296875q0.46875 0.171875 0.75 0.375q0.28125 0.203125 0.40625 0.4375q0.125 0.234375 0.125 0.546875zm8.633057 -9.640625l-1.703125 0l0 2.390625l-2.578125 0l0 1.3125l2.578125 0l0 5.34375q0 0.921875 0.234375 1.5625q0.25 0.640625 0.671875 1.046875q0.421875 0.40625 0.984375 0.59375q0.578125 0.1875 1.234375 0.1875q0.390625 0 0.78125 -0.046875q0.40625 -0.03125 0.75 -0.109375q0.359375 -0.0625 0.65625 -0.15625q0.296875 -0.09375 0.515625 -0.21875l-0.234375 -1.203125q-0.15625 0.046875 -0.40625 0.09375q-0.234375 0.046875 -0.515625 0.09375q-0.28125 0.046875 -0.578125 0.078125q-0.28125 0.03125 -0.546875 0.03125q-0.375 0 -0.71875 -0.09375q-0.328125 -0.09375 -0.578125 -0.3125q-0.265625 -0.21875 -0.40625 -0.59375q-0.140625 -0.375 -0.140625 -0.953125l0 -5.34375l3.75 0l0 -1.3125l-3.75 0l0 -2.390625zm7.1956177 -1.015625l0 1.46875l3.109375 0l0 10.34375l-3.109375 0l0 1.453125l8.015625 0l0 -1.453125l-3.171875 0l0 -10.34375l3.171875 0l0 -1.46875l-8.015625 0zm15.195557 1.015625l-1.703125 0l0 2.390625l-2.578125 0l0 1.3125l2.578125 0l0 5.34375q0 0.921875 0.234375 1.5625q0.25 0.640625 0.671875 1.046875q0.421875 0.40625 0.984375 0.59375q0.578125 0.1875 1.234375 0.1875q0.390625 0 0.78125 -0.046875q0.40625 -0.03125 0.75 -0.109375q0.359375 -0.0625 0.65625 -0.15625q0.296875 -0.09375 0.515625 -0.21875l-0.234375 -1.203125q-0.15625 0.046875 -0.40625 0.09375q-0.234375 0.046875 -0.515625 0.09375q-0.28125 0.046875 -0.578125 0.078125q-0.28125 0.03125 -0.546875 0.03125q-0.375 0 -0.71875 -0.09375q-0.328125 -0.09375 -0.578125 -0.3125q-0.265625 -0.21875 -0.40625 -0.59375q-0.140625 -0.375 -0.140625 -0.953125l0 -5.34375l3.75 0l0 -1.3125l-3.75 0l0 -2.390625zm11.554932 12.4375q1.4375 0 2.421875 -0.578125q0.984375 -0.578125 1.46875 -1.328125l-1.03125 -0.796875q-0.46875 0.59375 -1.171875 0.96875q-0.6875 0.359375 -1.59375 0.359375q-0.6875 0 -1.25 -0.25q-0.5625 -0.265625 -0.96875 -0.71875q-0.390625 -0.40625 -0.609375 -0.953125q-0.21875 -0.546875 -0.28125 -1.265625l0 -0.078125l7.03125 0l0 -0.75q0 -1.03125 -0.265625 -1.90625q-0.25 -0.890625 -0.78125 -1.546875q-0.53125 -0.640625 -1.328125 -1.0q-0.796875 -0.375 -1.859375 -0.375q-0.84375 0 -1.65625 0.34375q-0.796875 0.34375 -1.4375 0.984375q-0.625 0.65625 -1.015625 1.609375q-0.375 0.9375 -0.375 2.125l0 0.390625q0 1.03125 0.34375 1.90625q0.34375 0.875 0.96875 1.5q0.609375 0.640625 1.484375 1.0q0.875 0.359375 1.90625 0.359375zm-0.21875 -8.84375q0.65625 0 1.125 0.234375q0.46875 0.234375 0.765625 0.625q0.3125 0.375 0.484375 0.90625q0.171875 0.515625 0.171875 0.984375l0 0.078125l-5.296875 0q0.09375 -0.6875 0.34375 -1.203125q0.265625 -0.53125 0.625 -0.890625q0.359375 -0.359375 0.8125 -0.546875q0.453125 -0.1875 0.96875 -0.1875zm7.8361816 -1.203125l-1.515625 0l0 9.859375l1.609375 0l0 -7.84375q0.046875 -0.140625 0.125 -0.265625q0.09375 -0.140625 0.21875 -0.234375q0.15625 -0.125 0.375 -0.1875q0.21875 -0.078125 0.53125 -0.078125q0.265625 0 0.46875 0.078125q0.203125 0.0625 0.34375 0.203125q0.15625 0.15625 0.21875 0.390625q0.0625 0.234375 0.0625 0.546875l0 7.390625l1.609375 0l0 -7.375q0 -0.0625 0 -0.09375q0 -0.046875 0 -0.09375q0.03125 -0.21875 0.109375 -0.40625q0.078125 -0.1875 0.21875 -0.34375q0.15625 -0.125 0.375 -0.203125q0.21875 -0.09375 0.515625 -0.09375q0.28125 0 0.484375 0.078125q0.21875 0.0625 0.375 0.21875q0.140625 0.15625 0.203125 0.390625q0.078125 0.234375 0.078125 0.546875l0 7.375l1.59375 0l0 -7.359375q0 -0.71875 -0.171875 -1.234375q-0.15625 -0.53125 -0.453125 -0.859375q-0.28125 -0.28125 -0.703125 -0.421875q-0.40625 -0.15625 -0.921875 -0.15625q-0.359375 0 -0.6875 0.09375q-0.3125 0.09375 -0.5625 0.25q-0.203125 0.125 -0.375 0.3125q-0.171875 0.1875 -0.296875 0.390625q-0.109375 -0.21875 -0.25 -0.40625q-0.140625 -0.1875 -0.3125 -0.3125q-0.234375 -0.15625 -0.546875 -0.234375q-0.3125 -0.09375 -0.703125 -0.09375q-0.6875 0 -1.1875 0.296875q-0.484375 0.28125 -0.78125 0.8125l-0.046875 -0.9375z" fill-rule="nonzero"/><path fill="#000000" fill-opacity="0.0" d="m419.37534 111.69029l112.50168 0l0 -55.496067l37.01013 0" fill-rule="evenodd"/><path stroke="#000000" stroke-width="2.0" stroke-linejoin="round" stroke-linecap="butt" d="m426.95535 111.69029l104.9216 0l0 -55.496067l25.010193 0" fill-rule="evenodd"/><path fill="#000000" stroke="#000000" stroke-width="2.0" stroke-linecap="butt" d="m420.37534 111.69029c0 -1.8170166 1.4729614 -3.290001 3.289978 -3.290001c1.8170166 0 3.2900085 1.4729843 3.2900085 3.290001c0 1.8170166 -1.472992 3.2899933 -3.2900085 3.2899933c-1.8170166 0 -3.289978 -1.4729767 -3.289978 -3.2899933z" fill-rule="nonzero"/><path fill="#000000" stroke="#000000" stroke-width="2.0" stroke-linecap="butt" d="m556.88715 59.497692l9.076172 -3.3034668l-9.076172 -3.303463z" fill-rule="evenodd"/></g></svg>